<svg xmlns="http://www.w3.org/2000/svg" width="240" height="120" viewBox="0 0 240 120">
    <g fill="none" fill-rule="evenodd">
        <path fill="#FFF" fill-rule="nonzero" d="M123.84 33.41L96.91 48.87l21.93-4.11 22.18 4.08"/>
        <path fill="#E1E1E1" fill-rule="nonzero" d="M123.94 89.82c-7.46-.03-13.5-6.1-13.5-13.56V53.69c0-1.11.34-2.2.96-3.12l3.45-5.05-31.95 6.46h-3.95v31.16c0 5.8 5.57 13.24 10.52 15.37 1.73.74 3.45.53 5.18 1.28.04.02.08.04.12.05.82.36 1.71.72 2.59.58 11.79.01 23.58.01 35.37.02 4.24 0 7.79-1.12 11.32-3.63 1.82-1.29 3.43-2.88 4.86-4.59.19-.22 1.46-2.28 1.72-2.28l-26.69-.12z"/>
        <path fill="#F5F5F5" fill-rule="nonzero" d="M78.29 78.74c-.16-2.76-.09-5.56.04-8.34-.02-.09-.04-.19-.04-.29v-8.09c-2.13.87-4.28 1.72-6.43 2.55-1.27.5-2.72 1-4.28 1.53 4.18 3.59 6.96 8.59 10.71 12.64z"/>
        <path fill="#FFF" fill-rule="nonzero" d="M181.31 69.84c-.4-8.65-.11-16.78-4.2-24.75-5.88-11.46-18.36-17.73-30.5-17.71-9.99.01-19.71 3.75-28.42 9.28.06.53.1 1.07.13 1.6.08 1.46.09 2.93.18 4.39.04.6.07 1.21.17 1.8.02.12.08.22.17.33 1.91-.48 3.95.16 5.77.8 1.2.42 2.39.9 3.6 1.29 1.3.42 2.65.61 3.99.9 3.46.75 6.97 1.46 10.39 2.34 1.51.39 2.88 1 4.15 1.92.21.15.4.32.58.49 3.69-.55 7.72.13 11.14 1.52.69.28 1.16 1.04.72 1.76-.29.47-.61.86-.96 1.18.31.54.12 1.25-.43 1.64a13.4 13.4 0 0 1-4.92 2.2c-.09.02-.17.03-.26.03 0 .05.01.11.01.16.07 2.58.19 5.15.27 7.73.32.18.55.51.55 1-.02 1.73-.28 3.47-.55 5.22a73.89 73.89 0 0 1-.37 4.95c.5.77.67 1.66.73 2.56 2.77-.45 5.47-1.6 7.99-2.75 2.37-1.09 5.22-2.09 7.21-3.84 4.1-3.61 2.13-10.07 6.3-13.7.72-.63 1.67-.33 2 .53.28.72.45 1.5.56 2.3.04.08.06.16.08.26.36 1.86.31 3.72.12 5.58-.04.76-.12 1.51-.28 2.25-.13.61-.55.87-1 .87-1.13 3.54-3.17 6.69-6.65 8.31-2.33 1.08-4.87 1.74-7.41 2.42-1.57 1.47-3.42 2.5-5.54 2.59-1.94 1.22-3.85 2.51-6.08 3.12-.06.3-.14.59-.3.89-.19.37-.5.55-.83.58-.45 3.94-5.91 5.9-9.02 7.16-2.87 1.17-5.85 1.39-8.92 1.36-3.36-.04-6.71-.08-10.07-.2-2.66-.1-5.33-.21-7.99-.24-4.12.41-8.33.74-12.49.49-4.15-.06-8.38-.77-11.91-2.88-2.93-1.43-5.53-3.47-7.25-6.31-1.65-2.72-2.57-5.68-3.06-8.76-5.19-4.55-8.17-11.42-13.79-15.48-5.21 1.79-10.97 3.96-14.68 7.14-.76.65-1.43 1.34-1.99 2.07-3.14 4.11-3.14 9.73-3.01 14.9.35 13.52 14.46 16.91 25.46 18.06 7.76.81 15.46-.45 23.28-.62 10.29-.22 20.65.11 30.76 2.2 8.17 1.69 16.12 4.5 24.4 5.54 8.28 1.04 17.27.09 23.86-5.02 5.41-4.19 8.61-10.78 9.78-17.52 1.43-8.4-1.1-15.83-1.47-23.93z"/>
        <path fill="#E1E1E1" fill-rule="nonzero" d="M79.23 59.93l-4.21-2.04c-.13 1.51-.4 3.01-.78 4.48-.28 1.08-.65 2.32-1.79 2.77-1.28.5-2.7-.36-3.68-1.14-1.05-.84-1.88-1.9-2.89-2.77-1.16-1-2.28-2.06-3.41-3.09-2.24-2.02-4.47-4.04-6.71-6.07-1.84-1.66-7.51-7.14-10.56-10.01-.79.07-1.59.16-2.38.18l36.2 41.8V60.13c-.02-.07.15-.16.21-.2zM164.38 78.49l-4.81 2.07v-.13l-6.36 2.86-2.56 7.45 8.93-4.08v-.28l3.89-1.58c.7-2.13.8-4.07.91-6.31z"/>
        <path fill="#E1E1E1" fill-rule="nonzero" d="M166.42 77.74c-.6.22-.78 1.08-.42 1.61.35.53 1.07.73 1.7.64.63-.09 1.2-.44 1.72-.8 3.75-2.61 6.2-6.7 8.12-10.85-.68 3.75-2 7.39-3.9 10.7-.19.33-.38.65-.66.91-.7.67-1.84.81-2.38 1.62l-8.87 4.01c.26-1.28.09-2.8.36-4.08.07-.36.15-.74.35-1.05.12-.19.28-.35.43-.5.74-.74 1.47-1.48 2.2-2.21M179.64 61.74c.27-.35.45-.73.76-1.07.57-.62 1.11-1.25 1.66-1.88 1.46-1.67 2.73-2.56 1.98-5.02-.35-1.16-1.01-2.2-1.58-3.27-.98-1.84-1.71-3.82-2.17-5.85-.47-2.04-.14-4.24-.57-6.22-.42-1.92-1.57-.49-2.73.44l-3.27 2.64c-.85.69-10.24 9.04-10.76 8.68l3.33 2.31c2 1.39 4 2.77 6.01 4.16.9.62 2.21 1.22 2.79 2.14.86 1.35 1.71 2.7 2.56 4.05.04.06.09.13.16.15.06.01.12-.01.18-.03.57-.23 1.09-.6 1.51-1.05.05-.07.1-.13.14-.18z"/>
        <path stroke="#514E4F" stroke-linecap="round" stroke-linejoin="round" d="M152.95 52.78v2.3M78.96 67.05V52.78M150.64 90.74c-3.21 5.88-9.45 9.86-16.62 9.86H97.89c-9.69 0-17.67-7.27-18.8-16.66M79.08 83.8L42.55 42.59c-.32-.36-.07-.94.41-.95l3.47-.12c.33-.01.66.08.95.26l31.57 18.37M152.95 55.08c7.46-4.08 16.98-2.67 21.95 4.49 1.34 1.94 2.19 4.07 2.58 6.25.74 4.2-.38 8.57-2.95 11.96-2.92 3.85-7.31 5.5-11.56 7.37-3.26 1.43-8.99 3.91-12.23 5.4"/>
        <path stroke="#514E4F" stroke-linecap="round" stroke-linejoin="round" d="M152.89 82.97c2.95-1.38 6.04-2.45 9.01-3.79 5.26-2.37 10.38-5.55 9.3-12.23-.24-1.45-.79-2.87-1.67-4.15-1.92-2.77-5.18-4.43-8.63-4.39-2.76.03-5.42 1.22-7.98 2.63l-.03 21.93zM78.96 52.78l33.1-6.69c1.85-.37 3.76-.4 5.63-.08l30.41 5.3"/>
        <path fill="#5067DA" fill-rule="nonzero" stroke="#0223C9" stroke-linecap="round" stroke-linejoin="round" d="M47.6 69.57c-.83-1.57-1.96-3.03-2.86-4.46-1.12-1.77-2.24-3.55-3.36-5.32-1.45 2.29-2.89 4.59-4.34 6.88-1.37 2.17-3.04 4.25-3.04 6.94a7.37 7.37 0 0 0 14.74 0c.01-1.44-.46-2.77-1.14-4.04z"/>
        <path fill="#7184E1" fill-rule="nonzero" d="M43.32 77.77c-.11.06-.23.11-.35.15-.75.28-1.58.33-2.34.11-1.02-.28-.76-1.37-.19-2 .59-.63 1.18-1.21 1.66-1.92.55-.81 1.01-1.68 1.47-2.55l.37-.7c.14-.27.53-.28.68-.01.6 1.08 1 2.27.94 3.49-.06 1.45-.95 2.79-2.24 3.43z"/>
        <path stroke="#514E4F" stroke-linecap="round" stroke-linejoin="round" d="M164.19 32.6l11.71-12.91 8.97-12.38M205.99 25.28c-5.61 4.72-10.57 8.66-13.47 10.92-1.51 1.18-2.45 2.97-2.5 4.89-.2 8.17-6.81 17.5-10.58 20.49l-2 1.81"/>
        <path fill="#FFF" fill-rule="nonzero" stroke="#514E4F" stroke-linecap="round" stroke-linejoin="round" stroke-width="1.227" d="M168.72 52.13c1.81-1.26 3.08-5.4-.52-5.68-1.99-.16-3.54 1.73-4.74 2.87-1.3 1.23-2.44 2.58-3.65 3.88-1.9 2.05-3.29 5.48-.65 8.07.95.93 2.54 1.32 3.56.66"/>
        <path fill="#FFF" fill-rule="nonzero" stroke="#514E4F" stroke-linecap="round" stroke-linejoin="round" stroke-width="1.227" d="M172.62 55.57c1.78-1.24 2.31-4.16-.52-5.11-2.11-.71-3.52 1.14-4.73 2.29-1.3 1.23-2.44 2.58-3.65 3.88-1.9 2.05-3.29 5.48-.65 8.07.95.93 2.54 1.32 3.56.66"/>
        <path fill="#FFF" fill-rule="nonzero" stroke="#514E4F" stroke-linecap="round" stroke-linejoin="round" stroke-width="1.227" d="M171.09 67.05c-.15.96-1.07 1.6-2.01 1.38-.61-.14-1.2-.46-1.65-.9-2.65-2.59-1.26-6.02.65-8.07 1.37-1.47 2.73-2.94 4.14-4.38.95-.96 2-1.82 3.6-1.11.62.28 1.23.66 1.57 1.23 1.69 2.81-3.35 6.15-4.69 7.96-.82 1.09-1.39 2.47-1.61 3.89z"/>
        <path fill="#FFF" fill-rule="nonzero" d="M164.93 34.02l-18.66 19.41s3.03 5.12 9.48.9c6.44-4.22 9.4-3.78 14.03-5.85 6.1-2.71 10.17-14.12 10.17-14.12l-15.02-.34z"/>
        <path stroke="#514E4F" stroke-linecap="round" stroke-linejoin="round" d="M164.19 32.6l-16.96 19.72c-.61.7-.55 1.76.12 2.4 1.49 1.41 4.45 3.05 8.39-.38 6.34-5.51 9.02-3.8 14.9-6.17 5.09-2.06 7.7-8.43 8.74-11.75M173.99 21.99s13.71.26 18.94 13.89"/>
        <path fill="#F8F8F8" fill-rule="nonzero" stroke="#514E4F" stroke-linecap="round" stroke-linejoin="round" d="M109.86 42.07h10.27v4.37h-10.27z"/>
        <path d="M0 1h240v118H0z"/>
    </g>
</svg>
