<svg xmlns="http://www.w3.org/2000/svg" width="544" height="344" viewBox="0 0 544 344">
    <g fill="none" fill-rule="evenodd">
        <path fill="#FFF" fill-rule="nonzero" d="M274.12 60.07l10.19 22.09c.48 1.03.5 2.21.07 3.26l-1.62 3.94a2.358 2.358 0 0 1-2.88 1.36l-5.91-1.83c-1.67-.29-2.6-2.67-2.8-4.35-.2-1.68-.08-3.49-.98-4.92-1.2-1.9-3.93-2.63-4.64-4.76-.74-2.25.78-4.57-1.19-6.88-.54-.63-1.25-1.1-2.01-1.42-.38-.16-.74-.32-1.05-.58"/>
        <path fill="#ECECEC" fill-rule="nonzero" d="M270.45 69.62c-1.64 1.99-2.65 4.43-3.32 6.92-.83-.11-1.3-1.06-1.32-1.9-.02-.84.26-1.66.24-2.5-.05-2.25-2.09-3.84-3.63-5.47-.33-.35-.66-.81-.53-1.27.07-.25.27-.43.46-.61 2.03-1.81 4.35-3.25 6.67-4.68.75-.46 1.51-.93 2.36-1.12.86-.19 1.83-.05 2.46.56.39.39.6.93.8 1.44.54 1.42 2.14 3.82.79 5.1-.6.57-1.86.83-2.58 1.31-.89.62-1.7 1.37-2.4 2.22"/>
        <path fill="#3746C7" fill-rule="nonzero" d="M402.79 332.71c12.31-4.92 23.44-13.32 32.89-25.47 12.38-15.92 16.55-33.95 15.39-53.69-1.04-17.5-9.46-34.1-21.57-46.78-14.16-14.84-36.23-29.28-57.25-29.58-20.33-.29-40.84 2.13-60.92-1.05-11.32-1.8-22.4-5.4-32.38-11.05-13.94-7.9-23.17-22.08-36.54-31.24-14.25-9.75-30.56-16.6-47.67-19.18-31.01-4.67-59.79 10.37-77.53 35.83-12.1 17.37-18.69 38.08-22.26 58.95-6.67 38.96 1.58 71.78 28.76 100.79 13.25 14.14 30.31 25.29 49.36 28.87 40.81 7.67 81-19.78 122.44-17.12 18.33 1.18 35.69 8.19 53.48 12.74 19.24 4.94 37.55 4.48 53.8-2.02"/>
        <path fill="#FFF" fill-rule="nonzero" d="M347.38 24.07l-10.8 7.51c0 .12-1.47 1.09-1.47 1.21l-1.35 14.32-9.88-6.7-11.69 6.82-16.9-43.53 52.09 20.37zM174.87 149.32c1.08.85 2.68.32 3.03-1.01l3.17-11.85 2.77-10.38c.43-1.62-1.28-2.97-2.76-2.18l-9.45 5.1-10.79 5.83c-1.21.65-1.36 2.33-.28 3.18l4.13 3.26-7.27 9.21c-.7.89-.55 2.18.34 2.88l2.82 2.23c.89.7 2.18.55 2.88-.34l7.27-9.21 4.14 3.28z"/>
        <path fill="#5067DA" fill-rule="nonzero" d="M243.96 178.42h78.66l5.17 19.42h-99.07"/>
        <path fill="#DEDEDE" fill-rule="nonzero" d="M166.57 132.26c.24.37.53.73.88 1l11.16 10.27c0-.11.35-1.01.35-1.13l1.35-5.25c-.17-.23-.34-.28-.51-.51l-7.11-7.79c-.23 0-.11.34-.34.34l-5.78 3.07z"/>
        <path fill="#2D48D2" fill-rule="nonzero" d="M347.81 218.5l-169.83 70.03v-91.08h149.35z"/>
        <path fill="#5067DA" fill-rule="nonzero" d="M199.86 220.66h149.35v91.08H199.86z"/>
        <path fill="#5067DA" fill-rule="nonzero" d="M349.21 221.19H199.86l10.76-16.3h152.2z"/>
        <path fill="#1E3BCF" fill-rule="nonzero" d="M240.19 197.11l7.14-18.79c-.3-.1-.88-.6-1.19-.6h-73.23l5.37 19.65 61.91-.26z"/>
        <path fill="#3F58D6" fill-rule="nonzero" d="M298.78 204.98l-87.17-.61-8.78 12.5c-.64.39-2.62 3.57-2.03 4.02h90.14c1.07-2.71 6.97-13.28 7.84-15.91"/>
        <path fill="#2D48D2" fill-rule="nonzero" d="M177.68 198.27l22.92 23.81c0 .2.3.99.3 1.19l-.6 89-22.92-24.11.3-89.89z"/>
        <path fill="#3F58D6" fill-rule="nonzero" d="M323.72 300.58c-8.05-3.39-15.56-8.68-20.09-16.15-6.05-9.97-6.09-22.35-5.4-33.99.61-10.45 2.13-21.85 9.76-29.01h-26.43l-.02.35h-81.68v90.16h89.74v-.3h56.26c.72.43 2.54.42 3.27.03v-4.47c-8.58-1.64-17.36-3.23-25.41-6.62"/>
        <path stroke="#0223C9" stroke-linecap="round" stroke-linejoin="round" stroke-width="1.588" d="M348.85 221.15H199.02l-21.93-23.93M326.92 197.22l6.4 6.99M177.09 197.22v90.77M177.09 288l21.93 23.93h149.96v-90.78M199.94 311.93v-51.06M199.94 251.27v-30.12"/>
        <path stroke="#0223C9" stroke-linecap="round" stroke-linejoin="round" stroke-width="1.588" d="M199.02 221.15l12.28-16.94h152.56l-15.01 16.94M322.44 178.02H172.27M327.41 197.22l-4.97-19.2M177.25 197.22l-4.98-19.2M327.41 197.22H193.45"/>
        <path stroke="#0D1F8F" stroke-linecap="round" stroke-linejoin="round" stroke-width="1.588" d="M295.59 105.7l11.81 9.47M296.76 116.34l9.47-11.81"/>
        <path stroke="#0223C9" stroke-linecap="round" stroke-linejoin="round" stroke-width="1.588" d="M134.91 286.3h42.14"/>
        <path stroke="#FFF" stroke-linecap="round" stroke-linejoin="round" stroke-width="1.588" d="M149.59 189.7a3.83 3.83 0 1 1 3.83 3.83c-2.11.01-3.83-1.71-3.83-3.83z"/>
        <path stroke="#5067DA" stroke-linecap="round" stroke-linejoin="round" stroke-width="1.588" d="M315.19 105.11a3.24 3.24 0 1 1 6.48 0 3.24 3.24 0 0 1-3.24 3.24c-1.79 0-3.24-1.44-3.24-3.24z"/>
        <path stroke="#0223C9" stroke-linecap="round" stroke-linejoin="round" stroke-width="1.588" d="M349.96 286.07h41.48"/>
        <path fill="#FFF" fill-rule="nonzero" d="M205.19 27.55l4.32 5.23c.43.52 1.09.8 1.77.74l6.76-.6c1.7-.15 2.83 1.71 1.92 3.15l-3.63 5.73c-.36.57-.42 1.29-.16 1.91l2.66 6.24c.67 1.57-.75 3.22-2.4 2.8l-6.57-1.69c-.66-.17-1.35 0-1.86.44l-5.11 4.46c-1.29 1.12-3.3.28-3.4-1.42l-.43-6.77c-.04-.68-.41-1.29-1-1.63l-5.82-3.49c-1.46-.88-1.28-3.05.3-3.68l6.31-2.5c.63-.25 1.1-.79 1.25-1.45l1.52-6.61c.36-1.67 2.48-2.17 3.57-.86"/>
        <path fill="#ECECEC" fill-rule="nonzero" d="M215.93 43.01c-5.63 4.8-16.36 1.2-16.6-6.53-.15.12-.32.21-.5.29l-6.31 2.5c-1.58.63-1.76 2.8-.3 3.68l5.82 3.49c.58.35.95.96 1 1.64l.43 6.77c.11 1.7 2.12 2.54 3.4 1.42l5.11-4.46c.51-.44 1.21-.61 1.86-.44l6.57 1.69c1.65.42 3.07-1.23 2.4-2.8l-2.66-6.24c-.13-.3-.18-.62-.16-.93-.01-.04-.04-.06-.06-.08"/>
        <path stroke="#514E4F" stroke-linecap="round" stroke-linejoin="round" stroke-width="1.588" d="M205.19 27.55l4.32 5.23c.43.52 1.09.8 1.77.74l6.76-.6c1.7-.15 2.83 1.71 1.92 3.15l-3.63 5.73c-.36.57-.42 1.29-.16 1.91l2.66 6.24c.67 1.57-.75 3.22-2.4 2.8l-6.57-1.69c-.66-.17-1.35 0-1.86.44l-5.11 4.46c-1.29 1.12-3.3.28-3.4-1.42l-.43-6.77c-.04-.68-.41-1.29-1-1.63l-5.82-3.49c-1.46-.88-1.28-3.05.3-3.68l6.31-2.5c.63-.25 1.1-.79 1.25-1.45l1.52-6.61c.36-1.67 2.48-2.17 3.57-.86z"/>
        <path fill="#E6E6E6" fill-rule="nonzero" d="M323.5 40.83c3.8-.07 5.88 4.37 9.62 5.08-.16-3.49-1.61-6.91-4.01-9.45-2.41 1.06-3.96 2.33-5.61 4.37"/>
        <path fill="#ECECEC" fill-rule="nonzero" d="M323.63 30.87c-1.03 3.58-4.82 5.85-8.54 6.07-2.53.15-5.28-.63-6.75-2.69-.53-.75-.94-1.68-1.79-2.04l4.26 12.81c.26.8.71 1.74 1.55 1.79.44.03.84-.21 1.21-.44 2.61-1.61 5.87-5.67 8.93-6.03 2.05-.24 3.91 2.27 5.47 3.39 1.63 1.18 3.28 2.74 5.29 2.6.13-1.38-.62-2.68-1.35-3.87-1.69-2.78-3.13-6.16-5.46-8.42"/>
        <path stroke="#514E4F" stroke-linecap="round" stroke-linejoin="round" stroke-width="1.588" d="M329.2 36.01l-16.44 11.26c-.1 0-.82-.31-.92-.31L295.52 3.52l51.75 20.95-12.18 8.05"/>
        <path stroke="#514E4F" stroke-linecap="round" stroke-linejoin="round" stroke-width="1.588" d="M305.99 14.38l29.1 18.14-1.13 14.75-4.76-11.26-23.21-21.63M333.96 47.27l-10.74-6.91"/>
        <path stroke="#0223C9" stroke-linecap="round" stroke-linejoin="round" stroke-width="1.588" d="M183.53 295.58h-18.94"/>
        <path stroke="#514E4F" stroke-linecap="round" stroke-linejoin="round" stroke-width="1.588" d="M174.87 149.32c1.08.85 2.68.32 3.03-1.01l3.17-11.85 2.77-10.38c.43-1.62-1.28-2.97-2.76-2.18l-9.45 5.1-10.79 5.83c-1.21.65-1.36 2.33-.28 3.18l4.13 3.26-7.27 9.21c-.7.89-.55 2.18.34 2.88l2.82 2.23c.89.7 2.18.55 2.88-.34l7.27-9.21 4.14 3.28z"/>
        <path fill="#FFF" fill-rule="nonzero" d="M218.45 181.34l5.31 6.25c3.74 4.4 10.34 4.94 14.74 1.2l36.4-30.92c4.4-3.74 4.94-10.34 1.2-14.74l-49.36-58.1a11.184 11.184 0 0 0-10.12-3.83l-27.06 3.9a11.18 11.18 0 0 0-9.07 7.71l-8.22 26.07c-1.16 3.67-.35 7.67 2.14 10.61l39.41 46.38m-13.19-68.53a7.07 7.07 0 0 1-9.97-.81 7.07 7.07 0 0 1 .81-9.97 7.07 7.07 0 0 1 9.97.81 7.07 7.07 0 0 1-.81 9.97"/>
        <path fill="#ECECEC" fill-rule="nonzero" d="M186 132.07c3.45 4.97 8 9.51 11.94 14.14l28.17 33.15a7.046 7.046 0 0 0 9.92.81l30.84-26.21a7.038 7.038 0 0 0 .79-9.93c-1.89-2.22-3.79-4.44-5.69-6.66-2.38-2.8-3.27-4.32-7.01-3.19-16.74 5.08-33.42 7.88-50.68 3.58-3.3-.82-6.67-1.38-9.94-2.32-2.89-.83-5.6-2.75-8.37-3.43.01.03.02.04.03.06"/>
        <path stroke="#514E4F" stroke-linecap="round" stroke-linejoin="round" stroke-width="1.588" d="M218.45 181.34l5.31 6.25c3.74 4.4 10.34 4.94 14.74 1.2l36.4-30.92c4.4-3.74 4.94-10.34 1.2-14.74l-49.36-58.1a11.184 11.184 0 0 0-10.12-3.83l-27.06 3.9a11.18 11.18 0 0 0-9.07 7.71l-8.22 26.07c-1.16 3.67-.35 7.67 2.14 10.61l39.41 46.38 4.63 5.47zm-17.82-74a7.07 7.07 0 0 1-9.97-.81 7.07 7.07 0 0 1 .81-9.97 7.07 7.07 0 0 1 9.97.81 7.07 7.07 0 0 1-.81 9.97z"/>
        <path fill="#5067DA" fill-rule="nonzero" d="M204.25 130a8.366 8.366 0 0 0-.96 11.79 8.366 8.366 0 0 0 11.79.96 8.366 8.366 0 0 0 .96-11.79 8.366 8.366 0 0 0-11.79-.96m8.7 10.24a5.074 5.074 0 0 1-7.16-.58 5.074 5.074 0 0 1 .58-7.16 5.074 5.074 0 0 1 7.16.58 5.074 5.074 0 0 1-.58 7.16"/>
        <path stroke="#0223C9" stroke-linecap="round" stroke-linejoin="round" stroke-width="1.588" d="M204.25 130a8.366 8.366 0 0 0-.96 11.79 8.366 8.366 0 0 0 11.79.96 8.366 8.366 0 0 0 .96-11.79 8.366 8.366 0 0 0-11.79-.96zm8.7 10.24a5.074 5.074 0 0 1-7.16-.58 5.074 5.074 0 0 1 .58-7.16 5.074 5.074 0 0 1 7.16.58 5.074 5.074 0 0 1-.58 7.16z"/>
        <path fill="#5067DA" fill-rule="nonzero" d="M239.43 132.86a8.366 8.366 0 0 0-.96 11.79 8.366 8.366 0 0 0 11.79.96 8.366 8.366 0 0 0 .96-11.79c-3-3.52-8.28-3.95-11.79-.96m8.7 10.24a5.074 5.074 0 0 1-7.16-.58 5.074 5.074 0 0 1 .58-7.16 5.074 5.074 0 0 1 7.16.58 5.074 5.074 0 0 1-.58 7.16"/>
        <path stroke="#0223C9" stroke-linecap="round" stroke-linejoin="round" stroke-width="1.588" d="M239.43 132.86a8.366 8.366 0 0 0-.96 11.79 8.366 8.366 0 0 0 11.79.96 8.366 8.366 0 0 0 .96-11.79c-3-3.52-8.28-3.95-11.79-.96zm8.7 10.24a5.074 5.074 0 0 1-7.16-.58 5.074 5.074 0 0 1 .58-7.16 5.074 5.074 0 0 1 7.16.58 5.074 5.074 0 0 1-.58 7.16z"/>
        <path fill="#5067DA" fill-rule="nonzero" d="M223.09 163.32l3.88-47.69a1.614 1.614 0 1 1 3.22.26l-3.88 47.69c-.07.89-.85 1.55-1.74 1.48a1.6 1.6 0 0 1-1.48-1.74"/>
        <path stroke="#0223C9" stroke-linecap="round" stroke-linejoin="round" stroke-width="1.588" d="M223.09 163.32l3.88-47.69a1.614 1.614 0 1 1 3.22.26l-3.88 47.69c-.07.89-.85 1.55-1.74 1.48a1.6 1.6 0 0 1-1.48-1.74z"/>
        <path stroke="#514E4F" stroke-linecap="round" stroke-linejoin="round" stroke-width="1.467" d="M236.02 180.17l30.84-26.22"/>
        <path fill="#5067DA" fill-rule="nonzero" d="M283.14 48.74l-7.68-16.64c-1.35-2.93-4.86-4.22-7.79-2.87L243.03 40.6c-2.93 1.35-4.22 4.86-2.87 7.79l7.68 16.64c1.35 2.93 4.86 4.22 7.79 2.87l24.64-11.37c2.93-1.36 4.22-4.86 2.87-7.79m-14.92-5.81l-13.68 6.24c-.52.24-1.14.01-1.38-.51l-1.36-2.95c-.24-.52-.01-1.14.51-1.38l13.68-6.24c.52-.24 1.14-.01 1.38.51l1.36 2.95c.24.51.01 1.14-.51 1.38"/>
        <path stroke="#514E4F" stroke-linecap="round" stroke-linejoin="round" stroke-width="1.588" d="M274.12 60.07l10.19 22.09c.48 1.03.5 2.21.07 3.26l-1.62 3.94a2.358 2.358 0 0 1-2.88 1.36l-5.91-1.83c-1.67-.29-2.6-2.67-2.8-4.35-.2-1.68-.08-3.49-.98-4.92-1.2-1.9-3.93-2.63-4.64-4.76-.74-2.25.78-4.57-1.19-6.88-.54-.63-1.25-1.1-2.01-1.42-.38-.16-.74-.32-1.05-.58"/>
        <path stroke="#A1A1A1" stroke-linecap="round" stroke-linejoin="round" stroke-width="1.588" d="M268.24 62.67l8.38 17.49"/>
        <path fill="#3F58D6" fill-rule="nonzero" d="M282.16 46.95a.407.407 0 0 0-.25-.11c-.13 0-.23.1-.31.19-1.3 1.41-2.43 3-3.92 4.21-1.33 1.08-2.89 1.83-4.51 2.41-1.84.66-3.74 1.1-5.65 1.51-4.11.9-8.29 1.7-12.49 1.57-3.81-.12-9.09-1.03-11.83-3.98-.14.1-.24.23-.35.37l5.49 11.9c1.35 2.93 4.86 4.22 7.79 2.87L279.73 57a.88.88 0 0 0 .06-.1c-1.13.16-2.25.36-3.37.58.85-.21 1.71-.39 2.59-.54 1.15-.19 2.15-.96 2.81-1.92.67-.96 1.04-2.09 1.3-3.23.39-1.69.43-3.78-.96-4.84zm-37.92 7.13c-.34-.39-.66-.8-.96-1.24l.96 1.24z"/>
        <path stroke="#0223C9" stroke-linecap="round" stroke-linejoin="round" stroke-width="1.588" d="M283.14 48.74l-7.68-16.64c-1.35-2.93-4.86-4.22-7.79-2.87L243.03 40.6c-2.93 1.35-4.22 4.86-2.87 7.79l7.68 16.64c1.35 2.93 4.86 4.22 7.79 2.87l24.64-11.37c2.93-1.36 4.22-4.86 2.87-7.79zm-14.99-5.81l-13.55 6.18c-.51.24-1.13.01-1.37-.5l-1.35-2.92c-.24-.52-.01-1.13.5-1.37l13.55-6.18c.52-.24 1.13-.01 1.37.5l1.35 2.92c.24.52.01 1.14-.5 1.37z"/>
        <path fill="#FFF" fill-rule="nonzero" d="M345.3 125.93l7.3 5.48c11.98 9.17 12.62 28.46 1.42 43.08-11.19 14.62-29.98 19.03-41.96 9.86l-7.52-5.63"/>
        <path fill="#FFF" fill-rule="nonzero" d="M347.08 169.4c-11.19 14.62-29.98 19.04-41.96 9.86-11.98-9.17-12.62-28.46-1.42-43.08 11.19-14.62 29.98-19.04 41.96-9.86 11.97 9.17 12.61 28.46 1.42 43.08"/>
        <path fill="#ECECEC" fill-rule="nonzero" d="M344.7 126.11c-13.47-6.29-25.62 7-28.18 19.16-3.09 14.69 5.13 29.04 20.13 32-8.97 7.4-22.88 8.04-32.48 1.49-1.66-1.13-3.21-2.47-4.36-4.12-1.12-1.6-1.83-3.46-2.4-5.34-2.15-7.15-1.89-14.45-.23-21.65 1.57-6.85 5.5-10.96 10.66-15.93 3.6-3.47 7.19-6.82 12.03-8.05 2.14-.55 4.97-1.59 7.15-1.59 5.59-.01 11.19 1.16 16.31 3.42"/>
        <path stroke="#A1A1A1" stroke-linecap="round" stroke-linejoin="round" stroke-width="1.588" d="M345.3 125.93l7.3 5.48c11.98 9.17 12.62 28.46 1.42 43.08-11.19 14.62-29.98 19.03-41.96 9.86l-7.52-5.63"/>
        <path stroke="#A1A1A1" stroke-linecap="round" stroke-linejoin="round" stroke-width="1.588" d="M347.08 169.4c-11.19 14.62-29.98 19.04-41.96 9.86-11.98-9.17-12.62-28.46-1.42-43.08 11.19-14.62 29.98-19.04 41.96-9.86 11.97 9.17 12.61 28.46 1.42 43.08z"/>
        <path stroke="#929AE0" stroke-linecap="round" stroke-width="1.588" d="M341.38 55.14c.6.45 1.21.93 1.83 1.42"/>
        <path stroke="#929AE0" stroke-dasharray="5.06,5.06" stroke-linecap="round" stroke-width="1.588" d="M346.81 59.56c6.26 5.5 12.44 12.56 13.97 20.19.85 4.27-.06 9.05-3.14 12.13-2.32 2.33-5.62 3.47-8.89 3.78-6.31.61-12.84-.96-18.79-2.95-15.34-5.11-42.28-10.43-48.67 10.7-2.63 8.71-1.25 18.12.99 26.94s5.32 17.51 6.07 26.57c.98 11.85-2.24 23.98-8.88 33.84"/>
        <path stroke="#929AE0" stroke-linecap="round" stroke-width="1.588" d="M278.13 192.68c-.46.62-.93 1.23-1.42 1.83"/>
        <path fill="#5067DA" fill-rule="nonzero" d="M320.95 167.02c-.56 0-1.1-.26-1.48-.71l-8.24-9.75c-.76-.9-.72-2.32.1-3.16.82-.84 2.1-.79 2.86.11l6.59 7.8 15.82-23.36c.67-.99 1.94-1.19 2.83-.45.9.74 1.08 2.14.41 3.13l-17.27 25.5c-.36.53-.91.86-1.51.89h-.11"/>
        <path stroke="#0223C9" stroke-linecap="round" stroke-linejoin="round" stroke-width="1.588" d="M320.95 167.02c-.56 0-1.1-.26-1.48-.71l-8.24-9.75c-.76-.9-.72-2.32.1-3.16.82-.84 2.1-.79 2.86.11l6.59 7.8 15.82-23.36c.67-.99 1.94-1.19 2.83-.45.9.74 1.08 2.14.41 3.13l-17.27 25.5c-.36.53-.91.86-1.51.89h-.11z"/>
    </g>
</svg>
