<?xml version="1.0" encoding="utf-8"?>
<!-- Generator: Adobe Illustrator 23.0.4, SVG Export Plug-In . SVG Version: 6.00 Build 0)  -->
<svg version="1.1" id="Layer_1" xmlns="http://www.w3.org/2000/svg" xmlns:xlink="http://www.w3.org/1999/xlink" x="0px" y="0px"
	 viewBox="0 0 240 120" style="enable-background:new 0 0 240 120;" xml:space="preserve">
<g id="XMLID_501_">
	<path id="XMLID_330_" style="fill:#FFFFFF;" d="M185.8,66.2c1.3-8.3,3.2-15.9,0.9-24.3c-3.3-12-13.9-20.5-25.4-22.9
		c-23.5-4.9-46.5,11.3-84.4,16.4c-23.6,3.1-23.6,19-24.5,23.9C50.1,72.2,62.8,78.2,73,81.5c7.2,2.3,14.7,2.7,22.2,4
		c9.8,1.8,19.6,4.2,28.7,8.2c7.4,3.2,14.4,7.5,22,10.1c7.6,2.6,16.4,3.5,23.6,0c6-2.9,10.3-8.5,12.8-14.7
		C185.4,81.5,184.5,74,185.8,66.2z"/>
	<g id="XMLID_103_">
		<path id="XMLID_142_" style="fill:#F0F0F0;" d="M159.6,66.6c-3.3,0-6-2.7-6-6c0-0.5,0.1-1.1,0.2-1.6c-2.5,0.7-4.4,3-4.4,5.8
			c0,3.3,2.7,6,6,6c2.8,0,5.1-1.9,5.8-4.4C160.7,66.5,160.1,66.6,159.6,66.6"/>
		<path id="XMLID_141_" style="fill:#F0F0F0;" d="M74.5,48c0.4-0.6,0.6-1.3,1-1.9c0.3-0.6,0.7-1.1,1-1.7l-0.6-2l-0.2-0.7
			c-0.3-1.1-0.9-2-1.9-2.5c-0.5-0.2-1-0.3-1.6-0.3h-3.8c-2,0-3.7,1.6-3.7,3.7s1.6,3.7,3.7,3.7h2.2c1.2,0,1.9-0.3,2.2,1.1
			C73,48,73,48.5,73.2,49c0.1,0.1,0.2,0.3,0.3,0.3c0.1,0,0.2-0.1,0.2-0.2c0.1-0.1,0.2-0.2,0.2-0.3C74.1,48.5,74.2,48.3,74.5,48"/>
		<path id="XMLID_140_" style="fill:none;stroke:#514E4F;stroke-linecap:round;stroke-linejoin:round;stroke-miterlimit:10;" d="
			M73.5,46.1c-0.4,0.2-0.9,0.2-1.3,0.2h-3.8c-2,0-3.7-1.6-3.7-3.7c0-2,1.6-3.7,3.7-3.7h3.8c0.6,0,1.1,0.1,1.6,0.3
			c1,0.5,1.7,1.4,1.9,2.5l0.3,1l0.5,1.8"/>
		
			<line id="XMLID_139_" style="fill:none;stroke:#514E4F;stroke-linecap:round;stroke-linejoin:round;stroke-miterlimit:10;" x1="72.5" y1="46.6" x2="73.5" y2="49.6"/>
		<path id="XMLID_138_" style="fill:#F0F0F0;" d="M99.1,24.3h-1.5c-4,0-7.7,2.3-9.5,5.9l-7.8,16.2l-6.5,11.5c-1.3,1.8-2,4-2,6.3
			v13.3c0,1.7,0.4,3.3,1.1,4.8l1.8,3.6c1.8,3.6,5.5,5.8,9.4,5.8h29.4V57.9L99.1,24.3z"/>
		<path id="XMLID_137_" style="fill:#F0F0F0;" d="M81,94.5c-2.2-0.3-4.4-1.3-6.2-2.5c-1.7-1.1-3.1-2.5-4.3-4.2
			c-1.1-1.6-1.9-3.4-2.8-5.1v5.7h-0.5v11.2c0,2.5,2,4.5,4.5,4.5h2.9v-7.4h9.3v-2.1C82.9,94.7,81.9,94.7,81,94.5"/>
		<path id="XMLID_136_" style="fill:#F0F0F0;" d="M166.3,91.3c-3,2.9-6.8,3-10.7,3v2.5h16.2V83C170.5,86.1,168.6,89.1,166.3,91.3"/>
		<path id="XMLID_135_" style="fill:none;stroke:#514E4F;stroke-linecap:round;stroke-linejoin:round;stroke-miterlimit:10;" d="
			M83.6,94.4v5.2c0,2.5-2.1,4.6-4.6,4.6h-7.1c-2.5,0-4.6-2.1-4.6-4.6v-20"/>
		<path id="XMLID_134_" style="fill:none;stroke:#514E4F;stroke-linecap:round;stroke-linejoin:round;stroke-miterlimit:10;" d="
			M155.8,94.4v5.2c0,2.5,2.1,4.6,4.6,4.6h7.1c2.5,0,4.6-2.1,4.6-4.6v-20"/>
		<path id="XMLID_133_" style="fill:none;stroke:#514E4F;stroke-linecap:round;stroke-linejoin:round;stroke-miterlimit:10;" d="
			M172.1,64.2v14.6c0,1.8-0.4,3.6-1.3,5.3l-2,3.9c-2,3.9-6,6.4-10.4,6.4H80.8c-4.4,0-8.4-2.5-10.4-6.4l-2-3.9
			c-0.8-1.6-1.3-3.4-1.3-5.3V64.2c0-2.5,0.8-4.9,2.3-6.9l7.2-12.7l8.6-17.8c1.9-4,6-6.5,10.4-6.5h47.7c4.4,0,8.5,2.5,10.4,6.5
			l8.6,17.8l7.5,12.7C171.3,59.3,172.1,61.7,172.1,64.2z"/>
		<path id="XMLID_132_" style="fill:none;stroke:#514E4F;stroke-linecap:round;stroke-linejoin:round;stroke-miterlimit:10;" d="
			M165.5,46.1c0.4,0.2,0.9,0.2,1.3,0.2h3.8c2,0,3.7-1.6,3.7-3.7c0-2-1.6-3.7-3.7-3.7h-3.8c-0.6,0-1.1,0.1-1.6,0.3
			c-1,0.5-1.7,1.4-1.9,2.5l-0.2,0.7l-0.5,2.7"/>
		
			<line id="XMLID_131_" style="fill:none;stroke:#514E4F;stroke-linecap:round;stroke-linejoin:round;stroke-miterlimit:10;" x1="166.5" y1="46.6" x2="165.5" y2="49.6"/>
		<path id="XMLID_130_" style="fill:#D9DEF7;" d="M82.5,47c-1.1,0-1.8-1.2-1.4-2.2l7.6-15.8c1.3-2.7,4.1-4.4,7.1-4.4h47.5
			c3,0,5.7,1.7,7.1,4.4l7.6,15.8c0.5,1-0.2,2.2-1.4,2.2H82.5z"/>
		<path id="XMLID_129_" style="fill:#CCD3F4;" d="M82.4,42.3l-1.2,2.6c-0.5,1,0.2,2.2,1.4,2.2h74.2c1.1,0,1.8-1.2,1.4-2.2l-2.7-5.5
			H84.1L82.4,42.3z"/>
		<path id="XMLID_128_" style="fill:#CCD3F4;" d="M114.3,46.9H88.9v-8.5c0-2.4,1.9-4.3,4.3-4.3H110c2.4,0,4.3,1.9,4.3,4.3V46.9z"/>
		<path id="XMLID_127_" style="fill:#CCD3F4;" d="M150.2,46.9h-25.4v-8.5c0-2.4,1.9-4.3,4.3-4.3h16.8c2.4,0,4.3,1.9,4.3,4.3V46.9z"
			/>
		<path id="XMLID_126_" style="fill:#CCD3F4;" d="M125.5,30.9h-11.9c-0.9,0-1.7-0.8-1.7-1.7s0.8-1.7,1.7-1.7h11.9
			c0.9,0,1.7,0.8,1.7,1.7S126.5,30.9,125.5,30.9"/>
		<rect id="XMLID_125_" x="117.5" y="25.2" style="fill:#CCD3F4;" width="4.1" height="2.7"/>
		<g id="XMLID_121_" style="opacity:0.33;">
			<g id="XMLID_122_">
				<defs>
					<rect id="XMLID_123_" x="99.8" y="24.9" width="39.5" height="22.7"/>
				</defs>
				<clipPath id="XMLID_331_">
					<use xlink:href="#XMLID_123_"  style="overflow:visible;"/>
				</clipPath>
				<path id="XMLID_124_" style="clip-path:url(#XMLID_331_);fill:#FFFFFF;" d="M139.3,47.6c0,0-9.3-22.7-9.3-22.7h-30h-0.1
					l9.4,22.7h10.5"/>
			</g>
		</g>
		<path id="XMLID_120_" style="fill:none;stroke:#5D72DC;stroke-linecap:round;stroke-linejoin:round;stroke-miterlimit:10;" d="
			M82.5,47c-1.1,0-1.8-1.2-1.4-2.2l7.6-15.8c1.3-2.7,4.1-4.4,7.1-4.4h47.5c3,0,5.7,1.7,7.1,4.4l7.6,15.8c0.5,1-0.2,2.2-1.4,2.2H82.5
			z"/>
		
			<line id="XMLID_119_" style="fill:none;stroke:#514E4F;stroke-linecap:round;stroke-linejoin:round;stroke-miterlimit:10;" x1="119.5" y1="18.6" x2="119.5" y2="13.8"/>
		<path id="XMLID_118_" style="fill:none;stroke:#514E4F;stroke-linecap:round;stroke-linejoin:round;stroke-miterlimit:10;" d="
			M116.2,20.3c-0.1-0.2-0.1-0.3-0.1-0.5c0-0.6,0.5-1.1,1.1-1.1h4.6c0.6,0,1.1,0.5,1.1,1.1c0,0.1,0,0.3-0.1,0.4"/>
		<path id="XMLID_117_" style="fill:#E5E5E5;" d="M75.1,76.6c0-1.9,1.6-3.5,3.5-3.5c1.9,0,3.5,1.6,3.5,3.5c0,1.9-1.6,3.5-3.5,3.5
			C76.6,80.1,75.1,78.6,75.1,76.6"/>
		<path id="XMLID_116_" style="fill:none;stroke:#514E4F;stroke-linecap:round;stroke-linejoin:round;stroke-miterlimit:10;" d="
			M75.1,76.6c0-1.9,1.6-3.5,3.5-3.5c1.9,0,3.5,1.6,3.5,3.5c0,1.9-1.6,3.5-3.5,3.5C76.6,80.1,75.1,78.6,75.1,76.6z"/>
		<path id="XMLID_115_" style="fill:none;stroke:#514E4F;stroke-linecap:round;stroke-linejoin:round;stroke-miterlimit:10;" d="
			M157.2,76.6c0-1.9,1.6-3.5,3.5-3.5c1.9,0,3.5,1.6,3.5,3.5c0,1.9-1.6,3.5-3.5,3.5C158.8,80.1,157.2,78.6,157.2,76.6z"/>
		<path id="XMLID_114_" style="fill:none;stroke:#514E4F;stroke-linecap:round;stroke-linejoin:round;stroke-miterlimit:10;" d="
			M149.3,64.8c0-3.3,2.7-6,6-6c3.3,0,6,2.7,6,6c0,3.3-2.7,6-6,6C152,70.8,149.3,68.1,149.3,64.8z"/>
		
			<line id="XMLID_113_" style="fill:none;stroke:#514E4F;stroke-linecap:round;stroke-linejoin:round;stroke-miterlimit:10;" x1="131.5" y1="84.2" x2="143.8" y2="84.2"/>
		<path id="XMLID_112_" style="fill:none;stroke:#514E4F;stroke-linecap:round;stroke-linejoin:round;stroke-miterlimit:10;" d="
			M158.5,84v3.8c0,1.4-1.1,2.4-2.4,2.4H83.2c-1.4,0-2.4-1.1-2.4-2.4v-1.7c0-1.1,0.9-2,2-2h24.9"/>
		<path id="XMLID_111_" style="fill:none;stroke:#514E4F;stroke-linecap:round;stroke-linejoin:round;stroke-miterlimit:10;" d="
			M118.1,71.9c0-0.8,0.6-1.4,1.4-1.4c0.8,0,1.4,0.6,1.4,1.4c0,0.8-0.6,1.4-1.4,1.4C118.7,73.3,118.1,72.7,118.1,71.9z"/>
		<path id="XMLID_110_" style="fill:none;stroke:#514E4F;stroke-linecap:round;stroke-linejoin:round;stroke-miterlimit:10;" d="
			M135,72.7h-11.2c-0.5,0-0.9-0.4-0.9-0.9c0-0.5,0.4-0.9,0.9-0.9H135c0.5,0,0.9,0.4,0.9,0.9C135.8,72.3,135.4,72.7,135,72.7z"/>
		<path id="XMLID_109_" style="fill:none;stroke:#514E4F;stroke-linecap:round;stroke-linejoin:round;stroke-miterlimit:10;" d="
			M115.5,72.7h-11.2c-0.5,0-0.9-0.4-0.9-0.9c0-0.5,0.4-0.9,0.9-0.9h11.2c0.5,0,0.9,0.4,0.9,0.9C116.3,72.3,116,72.7,115.5,72.7z"/>
		<path id="XMLID_108_" style="fill:none;stroke:#514E4F;stroke-linecap:round;stroke-linejoin:round;stroke-miterlimit:10;" d="
			M128.2,86.9h-17.1c-1.8,0-3.2-1.5-3.2-3.2v-0.5c0-1.8,1.5-3.2,3.2-3.2h17.1c1.8,0,3.2,1.5,3.2,3.2v0.5
			C131.4,85.4,130,86.9,128.2,86.9z"/>
		
			<line id="XMLID_107_" style="fill:none;stroke:#514E4F;stroke-linecap:round;stroke-linejoin:round;stroke-miterlimit:10;" x1="114.3" y1="82.6" x2="125" y2="82.6"/>
		
			<line id="XMLID_106_" style="fill:none;stroke:#514E4F;stroke-linecap:round;stroke-linejoin:round;stroke-miterlimit:10;" x1="117.2" y1="84.4" x2="122" y2="84.4"/>
		<path id="XMLID_105_" style="fill:#E2E2E2;" d="M86.9,66.6c-3.3,0-6-2.7-6-6c0-0.5,0.1-1.1,0.2-1.6c-2.5,0.7-4.4,3-4.4,5.8
			c0,3.3,2.7,6,6,6c2.8,0,5.1-1.9,5.8-4.4C87.9,66.5,87.4,66.6,86.9,66.6"/>
		<path id="XMLID_104_" style="fill:none;stroke:#514E4F;stroke-linecap:round;stroke-linejoin:round;stroke-miterlimit:10;" d="
			M76.7,64.8c0-3.3,2.7-6,6-6c3.3,0,6,2.7,6,6c0,3.3-2.7,6-6,6C79.4,70.8,76.7,68.1,76.7,64.8z"/>
	</g>
</g>
</svg>
