<svg xmlns="http://www.w3.org/2000/svg" width="240" height="120" viewBox="0 0 240 120">
    <g fill="none" fill-rule="evenodd">
        <path fill="#ECECEC" fill-rule="nonzero" d="M139.93 52.48c.21 8.01-.56 16.11-2.99 23.77-2.46 7.78-6.68 14.94-12.6 20.59a45.739 45.739 0 0 1-18.29 10.71c-4.64 1.42-9.86.14-13.31 4.43-1.48 1.84-2.96 3.69-4.45 5.53.95.83 2.2 1.27 3.45 1.41 1.25.14 2.52.01 3.77-.16.2-.03.41-.06.58-.17.2-.13.32-.34.44-.55 1.17-2.09 2.33-4.18 3.5-6.26.96.14 1.98.27 3.08.36.3.01.59.01.89.01h24.09c1.79 0 3.55-.16 5.26-.46 0 0 8.05-1.06 12.94-5.58 7.53-5.59 12.44-14.55 12.44-24.6v-.8c.01-12.65-7.78-23.58-18.8-28.23"/>
        <path fill="#5A70DC" fill-rule="nonzero" d="M116.28 29.28c-.06-.16-.12-.32-.17-.48-1.83-5.5.98-11.53 6.45-13.63 1.17-.45 2.36-.68 3.54-.72 4.53-.15 8.85 2.54 10.57 7 1.27 3.31.82 6.86-.91 9.67a10.848 10.848 0 0 1-5.37 4.44c-.95.37-1.92.59-2.89.68-4.76.44-9.42-2.29-11.22-6.96"/>
        <path stroke="#5A70DC" stroke-linecap="round" stroke-linejoin="round" d="M116.28 29.28c-.06-.16-.12-.32-.17-.48-1.83-5.5.98-11.53 6.45-13.63 1.17-.45 2.36-.68 3.54-.72 4.53-.15 8.85 2.54 10.57 7 1.27 3.31.82 6.86-.91 9.67a10.848 10.848 0 0 1-5.37 4.44c-.95.37-1.92.59-2.89.68-4.76.44-9.42-2.29-11.22-6.96z"/>
        <path fill="#435CD7" fill-rule="nonzero" d="M126.11 14.57c-1.18.04-2.38.27-3.54.72-4.43 1.7-7.12 5.98-7 10.47l.33.25c1.88.09 4.67-1.33 6.28-2.44.97-.67 1.88-1.42 2.83-2.12.78-.58 1.41-1.16 2.35-1.47 1.85-.63 3.55-.47 5.05.88 2.39 2.14 1.38 5.25-.38 7.44-2.06 2.58-5.42 3.46-8.64 3.31-1.49-.07-2.93-.23-4.37-.64-.5-.14-.97-.49-1.5-.52-.94-.06.08 1.08.36 1.38.34.37.47.51.92.7.32.13.44.37.7.58.68.54 1.62.73 2.4 1.08.66.3 1.37.59 2.06.79 1.91.57 4.27 1.12 6.26.77l.18-.06c2.32-.89 4.16-2.48 5.37-4.44 1.73-2.8 2.18-6.35.91-9.67-1.71-4.48-6.04-7.17-10.57-7.01"/>
        <path fill="#F2F2F2" fill-rule="nonzero" d="M105.82 50.09l-9.13-7.41c-1.57-1.28-3.1-.68-3.4 1.32l-2.17 14.18"/>
        <path stroke="#424150" stroke-linecap="round" stroke-linejoin="round" d="M105.82 50.09l-9.13-7.41c-1.57-1.28-3.1-.68-3.4 1.32l-2.17 14.18M158.72 81.68c.89.12 1.8.13 2.7.01 2.45-.32 5-1.82 5.52-4.24.13-.6.07-1.33-.44-1.67-.96-.64-2.03.07-2.27 1.08-.42 1.78.35 3.1 1.81 4.08 2.06 1.38 4.21 1.86 6.06 1.85M75.65 69.19c-.41 1-.77 2.02-1.07 3.07"/>
        <path stroke="#424150" stroke-linecap="round" stroke-linejoin="round" d="M99.88 111.77c.95.15 1.96.27 3.04.36.13.01.26.02.4.02.23.01.46.01.7.01h24.09c1.79 0 3.55-.16 5.26-.46 0 0 8.05-1.05 12.94-5.58 7.53-5.6 12.44-14.55 12.44-24.6v-.8c0-16.85-13.79-30.64-30.64-30.64h-24.09c-12.77 0-23.79 7.92-28.37 19.1M76.41 94.77c2.61 5.41 6.77 9.94 11.89 13.02"/>
        <path fill="#F8F8F8" fill-rule="nonzero" d="M101.69 52.1l-12.55 7.81-5.58 3.47-3.84-13.82c-.01-.05-.03-.1-.04-.15-.45-1.86.7-2.95 2.61-2.45l19.4 5.14z"/>
        <path fill="#ECECEC" fill-rule="nonzero" d="M101.69 52.1L83.57 63.38l-2.32-8.34s5.41-.89 4.64-7.13l15.8 4.19z"/>
        <path stroke="#424150" stroke-linecap="round" stroke-linejoin="round" d="M101.69 52.1l-19.4-5.14c-1.96-.52-3.11.65-2.57 2.6l3.84 13.82M88.3 105.34v10.49c0 1.2.76 2.27 1.9 2.67.94.33 2.23.59 3.83.48 1.31-.09 2.48-.87 3.13-2.02l4.23-7.56"/>
        <path fill="#F8F8F8" fill-rule="nonzero" d="M142.86 105.34v12.17s-2.03 2.4-7.92 1.11l-1.86-3.32-3.3-5.89 5.35-1.66 7.73-2.41z"/>
        <path fill="#ECECEC" fill-rule="nonzero" d="M142.86 105.34v12.17s-2.03 2.4-7.92 1.11l-1.86-3.32c1.14-1.48 2.49-4.05 2.06-7.55l7.72-2.41z"/>
        <path stroke="#424150" stroke-linecap="round" stroke-linejoin="round" d="M142.86 105.34v10.39c0 1.21-.75 2.3-1.89 2.69-1.17.41-2.84.73-4.84.43a2.42 2.42 0 0 1-1.73-1.21l-4.62-8.25"/>
        <path stroke="#0223C9" stroke-linecap="round" stroke-linejoin="round" d="M133.48 33.76c-.13.11-.26.21-.4.32-4.62 3.51-11.23 2.79-14.98-1.7-.8-.96-1.41-2.01-1.83-3.12-1.61-4.23-.46-9.2 3.21-12.26 2.73-2.27 6.23-2.99 9.44-2.26 2.24.51 4.35 1.74 5.94 3.65a10.892 10.892 0 0 1-1.38 15.37z"/>
        <path stroke="#304BD3" stroke-linecap="round" stroke-linejoin="round" d="M132.61 31.57a8.707 8.707 0 0 1-5.91 2.51c-1 .03-1.96-.12-2.86-.41a8.579 8.579 0 0 1-3.55-2.18c-.41-.42-.78-.87-1.1-1.37a8.57 8.57 0 0 1-1.39-4.21c-.01-.11-.01-.23-.02-.34a8.678 8.678 0 0 1 3.28-7.02 8.683 8.683 0 0 1 5.11-1.89c.04 0 .08-.01.11-.01.81-.02 1.61.08 2.36.26 1.78.45 3.72 1.6 5.04 3.52a8.579 8.579 0 0 1 1.52 4.72v.41c-.03 1.4-.39 2.72-1.01 3.88"/>
        <path stroke="#F8F8F8" stroke-linecap="round" d="M131.25 23.9l-2.07-2.48a2.29 2.29 0 0 0-3.24-.29 2.29 2.29 0 0 0-.29 3.24l1.69 2.03c.81.98.68 2.43-.29 3.24s-2.43.68-3.24-.29l-2.46-2.95M131.12 21.51l-9.19 7.67"/>
        <path fill="#5A70DC" fill-rule="nonzero" d="M110.04 47.12c-.06-.16-.12-.32-.17-.48-1.83-5.5.98-11.53 6.45-13.63 1.17-.45 2.36-.68 3.54-.72 4.52-.15 8.85 2.54 10.57 7 1.27 3.31.82 6.86-.91 9.67a10.848 10.848 0 0 1-5.37 4.44c-.95.37-1.92.59-2.89.68-4.76.44-9.43-2.29-11.22-6.96"/>
        <path stroke="#5A70DC" stroke-linecap="round" stroke-linejoin="round" d="M110.04 47.12c-.06-.16-.12-.32-.17-.48-1.83-5.5.98-11.53 6.45-13.63 1.17-.45 2.36-.68 3.54-.72 4.52-.15 8.85 2.54 10.57 7 1.27 3.31.82 6.86-.91 9.67a10.848 10.848 0 0 1-5.37 4.44c-.95.37-1.92.59-2.89.68-4.76.44-9.43-2.29-11.22-6.96z"/>
        <path fill="#435CD7" fill-rule="nonzero" d="M131.07 44.02c-.01.17-.03.34-.06.5-.74 5.7-5.84 9.86-11.63 9.37-1.24-.1-2.4-.41-3.47-.88-1.18-.52-2.38-1.27-3.23-2.25-.61-.7-1.44-1.22-1.94-2.02-.25-.39-.38-.78-.56-1.2-.29-.69-1.11-1.85-.73-2.58.57.19 1.28.36 1.9.49 1.98.43 4.16.09 6.12-.34 1.5-.33 2.82-.85 4.15-1.61 3.44-1.97 4.94-4.31 6.11-8.09.99-.12 2 2.61 2.34 3.28.85 1.67 1.14 3.46 1 5.33"/>
        <path stroke="#F8F8F8" stroke-linecap="round" d="M120.09 48.18l3.02-1.16a2.293 2.293 0 0 0 1.32-2.97 2.293 2.293 0 0 0-2.97-1.32l-2.46.95c-1.19.46-2.52-.14-2.97-1.32-.46-1.19.14-2.52 1.32-2.97l3.58-1.38M122.39 48.84l-4.29-11.18"/>
        <path stroke="#304BD3" stroke-linecap="round" stroke-linejoin="round" d="M120.49 34.5c.15 0 .31.01.46.03a8.9 8.9 0 0 1 2.32.52c2 .75 3.64 2.2 4.63 4.04.77 1.43 1.15 3.1 1.01 4.85-.01.14-.03.27-.04.4-.6 4.59-4.7 7.94-9.36 7.55-.99-.08-1.94-.33-2.8-.71a8.614 8.614 0 0 1-3.29-2.55 8.683 8.683 0 0 1-1.87-6.15 8.725 8.725 0 0 1 4.01-6.63c.77-.49 1.63-.86 2.54-1.09"/>
        <path stroke="#52515E" stroke-linecap="round" stroke-linejoin="round" d="M128.18 9.85l-.2-5.69M131.32 10.61l3.26-8.59M134.58 11.84l4.27-3.59"/>
        <path fill="#5A70DC" fill-rule="nonzero" d="M124.71 13.51c0 .17 0 .34-.01.51-.2 5.8-4.93 10.46-10.79 10.53-1.25.01-2.45-.18-3.57-.56-4.3-1.43-7.41-5.46-7.46-10.24-.04-3.55 1.62-6.72 4.22-8.74a10.86 10.86 0 0 1 6.58-2.29 10.89 10.89 0 0 1 11.03 10.79"/>
        <path stroke="#5A70DC" stroke-linecap="round" stroke-linejoin="round" d="M124.71 13.51c0 .17 0 .34-.01.51-.2 5.8-4.93 10.46-10.79 10.53-1.25.01-2.45-.18-3.57-.56-4.3-1.43-7.41-5.46-7.46-10.24-.04-3.55 1.62-6.72 4.22-8.74a10.86 10.86 0 0 1 6.58-2.29 10.89 10.89 0 0 1 11.03 10.79z"/>
        <path stroke="#424150" stroke-linecap="round" stroke-linejoin="round" d="M183.41 116.21h4.28M145.75 116.21h34.85M101.69 116.21h28.08M52.31 116.21h32.57M75.59 69.17l-8.54 6.39c-.57.43-.91 1.1-.91 1.82v9.59c0 .77.39 1.49 1.04 1.9 2.62 1.69 9.28 5.93 9.28 5.93"/>
        <path stroke="#0223C9" stroke-linecap="round" stroke-linejoin="round" d="M110.04 47.12c-.06-.16-.12-.32-.17-.48-1.83-5.5.98-11.53 6.45-13.63 1.17-.45 2.36-.68 3.54-.72 4.52-.15 8.85 2.54 10.57 7 1.27 3.31.82 6.86-.91 9.67a10.848 10.848 0 0 1-5.37 4.44c-.95.37-1.92.59-2.89.68-4.76.44-9.43-2.29-11.22-6.96z"/>
        <path fill="#F8F8F8" fill-rule="nonzero" d="M123.8 55.99l-5.44.21-6.63-.72-.76-2.56 15.52-.03z"/>
        <path stroke="#424150" stroke-linecap="round" stroke-linejoin="round" d="M121.18 53.01l-13.49-.15a.511.511 0 0 1-.51-.54M121.18 53.01l10.47-.15c.33-.01.52-.27.51-.54"/>
        <path fill="#435CD7" fill-rule="nonzero" d="M104.06 18.34c1.27 2.65 3.57 4.71 6.39 5.64 1.12.37 2.32.57 3.57.56 5.86-.06 10.59-4.73 10.79-10.53v-.29c-.67.54-1.25 1.44-1.82 2.01-1.3 1.29-2.62 2.06-4.33 2.7-2.33.87-5.17 1.21-7.65 1.27-1.65.04-3.26-.21-4.84-.66-.62-.18-1.46-.37-2.11-.7"/>
        <path stroke="#0223C9" stroke-linecap="round" stroke-linejoin="round" d="M124.71 13.46c0 .17 0 .34-.01.51-.2 5.8-4.93 10.46-10.79 10.53-1.25.01-2.45-.18-3.57-.56-4.3-1.43-7.41-5.46-7.46-10.24-.04-3.55 1.62-6.72 4.22-8.74a10.86 10.86 0 0 1 6.58-2.29 10.89 10.89 0 0 1 11.03 10.79z"/>
        <path stroke="#304BD3" stroke-linecap="round" stroke-linejoin="round" d="M107.15 7.99a8.654 8.654 0 0 1 6.55-3.08c.81-.01 1.6.09 2.35.29a8.72 8.72 0 0 1 4.99 3.58 8.647 8.647 0 0 1 1.46 4.74c0 .14 0 .27-.01.41a8.702 8.702 0 0 1-8.61 8.4 8.636 8.636 0 0 1-6.37-2.67 8.715 8.715 0 0 1-2.44-5.95c-.02-1.53.36-2.97 1.04-4.23"/>
        <path stroke="#F8F8F8" stroke-linecap="round" d="M115.66 9l-3.23.03a2.303 2.303 0 0 0-2.28 2.33 2.303 2.303 0 0 0 2.33 2.28l2.64-.03c1.27-.01 2.31 1 2.33 2.28.01 1.27-1 2.31-2.28 2.33l-3.84.04M113.73 7.59l.13 11.97"/>
        <g fill-rule="nonzero">
            <path fill="#FFF" d="M66.88 89.26a2.761 2.761 0 0 1-1.27-2.32v-9.59c0-.87.42-1.7 1.11-2.22l8.54-6.39c1.57-3.75 3.8-7.06 6.52-9.84l-2.57-9.23c-.31-1.12-.15-2.09.47-2.71.62-.62 1.58-.8 2.71-.5L91.98 49l.78-5.1c.18-1.15.72-1.96 1.54-2.28.82-.32 1.77-.08 2.67.65l8.99 7.3h4.77c-.48-.71-.88-1.47-1.2-2.3-.06-.17-.12-.34-.18-.5-1.93-5.79 1.03-12.05 6.74-14.25.39-.15.79-.27 1.19-.37-.02-.02-.03-.04-.05-.06l-.17-.23c-.16-.23-.31-.46-.45-.7l-.03-.06c-.2-.34-.37-.69-.54-1.05-30.88 7.81-59.97 20.13-63.34 22-3.57 1.99-6.53 4.49-8.25 7.7-3.71 6.91-2.72 16.35 3.68 21.98 4.98 4.38 11.86 6.43 19.07 7.75-.1-.08-.22-.16-.32-.22z"/>
            <path fill="#606060" d="M166.42 77.31c.09-.4.08-.94-.22-1.14a.842.842 0 0 0-.49-.16c-.1 0-.2.02-.3.06-.34.13-.62.48-.71.88-.22.95-.07 1.78.46 2.5.61-.58 1.08-1.3 1.26-2.14z"/>
            <path fill="#FFF" d="M185.35 29.99c-10.03-7.45-27.97-7.64-47.49-4.52 0 .26-.01.51-.03.77-.01.14-.03.28-.05.42-.03.26-.07.52-.12.77-.02.12-.04.24-.07.37-.08.37-.18.74-.3 1.1a.88.88 0 0 0-.05.15c-.13.37-.28.74-.44 1.1-.01.01-.01.02-.02.04-.69 1.48-1.7 2.83-3.01 3.93-.14.12-.28.23-.42.33a11.33 11.33 0 0 1-3.98 1.94c.6.81 1.11 1.71 1.49 2.69 1.29 3.36.94 7.04-.95 10.11-.09.14-.19.28-.28.42 16.45.81 29.58 14.45 29.58 31.1v.49c.71.06 1.42.07 2.11-.02a7.51 7.51 0 0 0 3.04-1.1c-.71-.96-.94-2.09-.64-3.34.17-.72.68-1.33 1.32-1.58.57-.23 1.18-.16 1.71.2.61.41.86 1.22.65 2.19-.23 1.06-.79 1.95-1.54 2.65.13.11.28.22.44.32 2.2 1.47 4.32 1.79 5.78 1.76.27 0 .5.22.5.5s-.22.5-.5.5H172c-1.56 0-3.89-.34-6.27-1.93a6.22 6.22 0 0 1-.67-.52c-1.08.73-2.37 1.18-3.6 1.34-.74.1-1.5.09-2.26.03-.17 7.4-3.03 14.5-7.92 20 19.14.36 36.24-9.29 44.15-24.04 8.47-15.8 5.4-36.67-10.08-48.17z"/>
        </g>
        <path d="M0 1h240v118H0z"/>
    </g>
</svg>
