<svg xmlns="http://www.w3.org/2000/svg" width="120" height="120" viewBox="0 0 120 120">
    <g fill="none" fill-rule="evenodd" transform="translate(0 1)">
        <path fill="#F7F7F7" fill-rule="nonzero" d="M111.67 30.3c-4.44 7.84-12.25 13.71-21.03 15.73-8.32 1.92-16.8.51-25.08-1.96-.28.36-.61.68-.87 1.05-1.63 2.35-.11 5.77-.78 8.44.89.14 1.78.24 2.69.17 2.67-.19 5.48.02 8.03 1.08 2.13.88 3.17 2.65 4.73 4.19l6.12 9c1.3 1.49 2.73 3 3.62 4.77L99.78 61.4c.6-.32.58-1.17.49-1.85-.23-1.59-.45-3.17-.68-4.76.54-.17 1.13.15 1.46.61.33.46.45 1.03.56 1.58.26.18.57-.16.71-.44.79-1.61 1.43-3.29 1.92-5.01l.54.21-.18 2.98c.69-.17.97-.95 1.31-1.57.33-.62 1.12-1.21 1.68-.78-.38 1.04-.6 2.13-.64 3.23.32-.47.67-.94 1.15-1.24.48-.31 1.12-.43 1.62-.16-.19 1.63-2.15 2.65-2.28 4.29 1.05-.34 2.17-.5 3.28-.47.26.26.16.72-.11.97s-.64.34-.99.45c-1.86.57-3.08 1.64-4.18 3.25l-11.92 17c-1.1 1.58-2.48 3.31-4.4 3.39-1.65.07-3.05-1.14-4.22-2.3-2.3-2.28-4.46-4.71-6.47-7.25l-.22 25.54-3.03-.03c0 .03.01.06.01.08l-40.5-.3c-1.29-.01-2.58.23-3.86.12-1.28-.1-2.64-.64-3.26-1.77-.57-1.04-.39-2.31-.19-3.47.92-5.5 1.85-11.01 2.77-16.51.76-4.5 1.53-9.06 3.45-13.2 1.91-4.14 5.14-7.88 9.44-9.39 1.48-.52 3.04-.76 4.58-1l4.22-.66c-.03-.65.04-1.3.13-1.94.25-1.71.62-3.39 1.1-5.05-.73.04-1.47.07-2.16-.17-.69-.24-1.31-.83-1.36-1.55-.02-.32.06-.64.05-.96-.02-.53-.32-1.01-.58-1.48-.65-1.19-1.07-2.51-1.25-3.85l.45.06c-10.7-3.76-21.99-6.7-32.78-3.71-4.08 1.13-7.89 3.14-11.19 5.79a58.766 58.766 0 0 0-3.1 18.42c-.28 32.57 25.9 59.2 58.47 59.48 32.57.28 59.2-25.9 59.48-58.47.1-10.6-2.62-20.57-7.43-29.21"/>
        <path stroke="#514E4F" stroke-linecap="round" stroke-linejoin="round" d="M1.54 67.77c-.14-.97-.26-1.94-.36-2.93M61.32 40.99c-.08-.11-.29-.18-.66-.19-.32 0-.65-.01-.97-.02l-2.25-.03c-.67 0-1.35-.01-2.02.02-.27.01-.8-.03-1.03.11-.5.29.22 1.03.53 1.31.86.76 2.25 1.14 3.55.95.91-.13 1.66-.5 2.23-1.05.35-.34.83-.83.62-1.1z"/>
        <path fill="#E3E3E3" fill-rule="nonzero" d="M52 46.62c.28.75-.08 1.43.44 2.11.47.62 1.32.96 2.01 1.23 1.45.55 3.01.83 4.54 1.03 1.04.14 2.05.21 3.09.29 1.34.11 1.7-.02 1.73-1.44.02-.78-.18-1.55-.14-2.32.01-.26.12-.59-.12-.81-.3-.27-.63.04-.97.19-1.41.64-2.87 1.14-4.42 1.28-1.92.17-3.69-.84-5.39-1.58-.43.24-.93.6-.77.02M78.81 71.1c.59 1.65 3.1 3.82 4.42 4.98 1.4 1.23 3.17 1.98 5.05 2.29 1.41.23 3.1.3 4.36-.42 1.25-.71 2.25-1.86 3.64-2.33.14-.05-.86 1.62-.97 1.78-.44.62-.75 1.33-1.19 1.96A14.84 14.84 0 0 1 90.43 83c-3.23 2.23-5.78-2.51-7.65-4.49-1.39-1.47-2.81-3.2-4.4-4.43"/>
        <path fill="#E3E3E3" fill-rule="nonzero" d="M78.95 71.67c-.55-1.97-2.57-3.65-4.47-4.41-.28.41-.58 1.51-.22 1.9.39.42 1.72.35 2.27.52M81.83 94.2c.56 1.32 2.18 2.77 3.44 3.42 1.1.57 2.35.76 3.46 1.29h-6.68M35.74 88.64c1.31 4.54 8.08 6.89 12.11 8.09 3.42 1.02 7.32.84 10.42 2.04l-23.1.14"/>
        <path fill="#E5E5E5" fill-rule="nonzero" d="M51.9 21.9c-.62.49-2.47-.02-3.16-.59-1.18-.98-1.53-2.68-1.4-4.16.19-2.09 2.14-4.11 4.21-4.49 1.36-.25 2.62.32 3.91.64 1.86.46 3.55-.63 5.29-1.1 1.66-.46 3.56-.43 5.24-.05 1.63.37 3 1.61 3.78 3.07.75 1.41.94 2.67 2.17 3.79.54.49 1.14.87 1.7 1.34 1.5 1.27 2.56 3.54 1.72 5.4-1.07 2.38-3.74 4.46-6.43 4.41"/>
        <path fill="#D6D6D6" fill-rule="nonzero" d="M71.1 23.45c-1.12-.49-1.83-1.61-2.61-2.5-.8-.91-1.59-1.55-2.69-2.09-2.25-1.11-4.39-1.53-6.86-1.31-2.39.21-5.16 1-7.41-.27-.86-.48-1.68-1.23-1.81-2.25-.16-1.25.68-1.52 1.1-2.18-1.77.66-3.3 2.44-3.47 4.28-.13 1.48.22 3.19 1.4 4.16.69.57 2.54 1.08 3.16.59l17.02 8.25c2.69.05 5.36-2.03 6.43-4.41.77-1.7-.06-3.74-1.36-5.05.22 1.66-.94 3.65-2.9 2.78"/>
        <path fill="#5A70DC" fill-rule="nonzero" d="M72.98 33.06c.03-1.23-.56-2.4-1.89-2.61-1.09-.17-2.58.65-2.61 1.89-.05 1.82-.18 3.63-.41 5.43-.36 2.9 4.14 3.64 4.5.72.23-1.8.36-3.61.41-5.43M47.4 32.65c-.19-1.21-.99-2.25-2.34-2.22-1.1.03-2.41 1.11-2.22 2.34.29 1.8.49 3.6.6 5.41.19 2.92 4.74 2.82 4.56-.11-.11-1.82-.31-3.62-.6-5.42"/>
        <path stroke="#514E4F" stroke-linecap="round" stroke-linejoin="round" d="M53.1 69.84h23.78c.83 0 1.5.67 1.5 1.5v27.57M35.17 98.91V71.34c0-.83.67-1.5 1.5-1.5H53.1M64.16 53.59c5.1.01 3.83.02 3.96.02 6.88 0 10.68 3.91 14.39 9.17 2.5 3.55 4.69 7.31 7.06 10.96M51.81 53.17c.1-2.29.19-4.18.3-6.46.09-.1.17-.26.21-.42"/>
        <path stroke="#514E4F" stroke-linecap="round" stroke-linejoin="round" d="M28.56 99.1c-1.25-.38-1.53-1.43-1.47-2.66.05-.87 3.59-20.03 4.2-23.32.9-4.89 1.95-9.92 5.26-13.82 3.77-4.44 9.12-5.44 14.82-5.86M64.16 53.57l-.49-7.21v-.21"/>
        <circle cx="57.075" cy="86.618" r="3.01" stroke="#514E4F" stroke-linecap="round" stroke-linejoin="round" transform="rotate(-76.714 57.075 86.618)"/>
        <path stroke="#514E4F" stroke-linecap="round" stroke-linejoin="round" d="M89.08 72.49l11.09-11.56M101.63 57.01c-.42-.04-.73-1.48-.93-1.81-.2-.33-.6-.98-1.03-.64-.58.45-.14 1.38.03 1.91.26.83.61 4.13.59 4.33-.01.14.01.27-.05.24M106.75 58.23c.89-.87 2.82-3.54 2.88-4.12.08-.72-.69-.69-1.08-.32-.55.53-2.28 2.46-2.75 2.93.33-.34 1.1-2.6 1.44-3.38.18-.43.51-.95.24-1.44-.5-.9-1.18.55-1.37.89-.35.63-1.85 2.58-1.98 3.21.27-1.25.43-2.31.57-3.64.03-.33.17-1.33-.22-1.54-.65-.34-1.93 4.21-2.12 4.77-.08.25-.37 1.38-.74 1.33M106.64 58.3c1.18-.4 2.35-.83 3.54-1.2.46-.14.55.31.39.64-.12.25-.34.44-.56.6-.43.32-.93.53-1.4.77-.51.27-1.11.51-1.55.9-.66.57-1.55 1.36-2.18 2.17l-.67.86c-2.1 3.3-4.21 6.6-6.31 9.9-1.99 3.12-5.04 10.14-9.24 10.43-2.59.17-8.81-7.94-10.19-9.5"/>
        <path stroke="#0223C9" stroke-linecap="round" stroke-linejoin="round" stroke-width=".817" d="M47.68 39.26c-.35.77-1.11 1.32-2.01 1.36-1.29.06-2.38-.93-2.45-2.22l-.29-5.8c-.06-1.29.93-2.38 2.22-2.45.48-.02.94.1 1.32.33"/>
        <path stroke="#514E4F" stroke-linecap="round" stroke-linejoin="round" d="M59.09 47.86c-.93.13-1.91.12-2.91-.03-3.14-.49-5.62-2.6-7.12-5.33-1.3-2.37-1.79-5.04-1.9-7.71-.05-1.18-.08-2.43-.03-3.67"/>
        <path stroke="#0223C9" stroke-linecap="round" stroke-linejoin="round" d="M45.92 40.98v1.54a2 2 0 0 0 2 2h4.72"/>
        <path fill="#F7F7F7" fill-rule="nonzero" d="M52.83 45.58h-2.69a.87.87 0 0 1-.87-.87v-.45c0-.48.39-.87.87-.87h2.69c.48 0 .87.39.87.87v.45c.01.48-.38.87-.87.87"/>
        <path stroke="#0223C9" stroke-linecap="round" stroke-linejoin="round" stroke-width=".817" d="M53.49 45.85H50.3c-.57 0-1.03-.46-1.03-1.03v-.53c0-.57.46-1.03 1.03-1.03h3.19c.57 0 1.03.46 1.03 1.03v.53c.01.57-.46 1.03-1.03 1.03z"/>
        <path stroke="#514E4F" stroke-linecap="round" stroke-linejoin="round" d="M47.19 30.65c.38-1.9 1.16-4.23 2.15-5.72"/>
        <path fill="#E5E5E5" fill-rule="nonzero" d="M68.02 32.01c.12-.18.22-.38.32-.58.25-.5.14-.88.07-1.44-.17-1.37-.42-2.81-1.11-4.03-.7-1.22-1.66-2.28-2.73-3.18a11.788 11.788 0 0 0-4.93-2.44c-3.41-.78-7.31.19-9.56 2.99-2.42 3.01 1.25 5.27 3.72 6.39 2.37 1.08 4.81 1.91 7.32 2.59 1.46.4 3 .9 4.54.82.73-.04 1.48-.22 2.02-.73.14-.12.25-.25.34-.39"/>
        <path fill="#D6D6D6" fill-rule="nonzero" d="M69 29.6a2.58 2.58 0 0 1-.22-.44c-.35-.92-.6-1.8-1.2-2.62-.79.66-1.16 1.57-2.18 2.1-1.85.96-4.14.82-6.13.47a26.17 26.17 0 0 1-4.09-1.07c-1.04-.36-2.24-.82-2.99-1.67-.21-.23-.39-.49-.55-.75-.21-.32-.52-.65-.59-1.04-.07-.41.06-.95.19-1.33.04-.13.66-1.41.81-1.31-.16-.11-.52-.12-.71-.08-.23.05-.42.23-.58.38-.31.27-.67.46-.92.78-.46.58-.9 1.27-.74 2.03.18.84.57 1.66 1.16 2.31.95 1.06 2.29 1.77 3.57 2.35 2.37 1.08 4.81 1.91 7.32 2.59 1.77.48 3.65 1.01 5.5.71 1.24-.2 1.79-1.02 2.56-1.95.46-.58.1-.95-.21-1.46"/>
        <path stroke="#D1D1D1" stroke-linecap="round" stroke-linejoin="round" d="M68.06 30.65c-.03-.26-.08-.52-.1-.73-.17-1.34-.4-2.74-1.09-3.93-.68-1.19-1.62-2.23-2.66-3.1a11.458 11.458 0 0 0-4.81-2.38c-3.33-.76-7.14.19-9.33 2.92"/>
        <path stroke="#514E4F" stroke-linecap="round" stroke-linejoin="round" d="M51.66 53.29c.4 1.23.9 2.2 2.22 2.78 1.35.59 2.79.91 4.27.82 2.2-.13 4.78-.61 5.83-2.86M63.55 45.99c1.57-1.2 2.81-2.9 3.54-4.94.74-2.04 1.16-4.4 1.21-6.75.02-1.24.15-2.09.15-3.18"/>
        <path stroke="#0223C9" stroke-linecap="round" stroke-linejoin="round" stroke-width=".817" d="M68.1 39.26c.35.77 1.11 1.32 2.01 1.36 1.29.06 2.38-.93 2.45-2.22l.29-5.8c.06-1.29-.93-2.38-2.22-2.45-.48-.02-.94.1-1.32.33-.35.21-.59.41-.76.68"/>
        <path stroke="#0223C9" stroke-linecap="round" stroke-linejoin="round" d="M45.42 29.4c.79-4.31 3.38-8.17 7.86-9.7 6.85-2.33 14.08 1 16.13 6.84.4 1.13.65 2.35.76 3.6"/>
        <path stroke="#514E4F" stroke-linecap="round" stroke-linejoin="round" d="M40.55 67.61v2.23M74.13 67.61v2.23M81.76 98.83v-8.22h8.87v8.07"/>
        <path stroke="#514E4F" stroke-linecap="round" stroke-linejoin="round" d="M90.63 92.65h1.17c.56 0 1.01.45 1.01 1.01v2.12c0 .56-.45 1.01-1.01 1.01h-1.08"/>
        <path stroke="#F7F7F7" stroke-linecap="round" stroke-linejoin="round" stroke-width=".739" d="M64.61 14.1c.22-.01.45-.01.67.01 1.02.11 2.41.91 2.78 1.9"/>
        <path stroke="#F7F7F7" stroke-linecap="round" stroke-linejoin="round" d="M68.93 17.7l.53.78"/>
        <path stroke="#514E4F" stroke-linecap="round" stroke-linejoin="round" d="M96.29 99.27l-74.97-.04c-1.72 0-2.54 2.12-1.27 3.28C30.55 112.13 44.53 118 59.89 118c32.68 0 59.47-27.2 58.99-59.88C118.42 25.94 92.18 0 59.89 0 27.3 0 .89 26.42.89 59c0 .93.02 1.85.06 2.76"/>
    </g>
</svg>
