<svg xmlns="http://www.w3.org/2000/svg" width="120" height="120" viewBox="0 0 120 120">
    <g fill="none" fill-rule="evenodd">
        <path fill="#F7F7F7" fill-rule="nonzero" d="M118.5 66.53c1.5-16.54-3.45-33.6-14.87-46.19-10.86-12-26.46-19.07-42.64-19.33C28.49.48 1.72 26.39 1.18 58.89c-.07 4.05.28 8.01 1 11.85.16.87 12.36-1.35 13.58-1.64 4.61-1.08 9.11-2.68 13.35-4.8 4.25-2.13 8.24-4.78 11.83-7.89 3.76-3.26 6.93-7.26 11.09-10.04 3.46-2.31 8.44-3.33 12.49-3.97 13.9-2.16 26.72 2.63 37.89 10.67 5.54 3.98 11.38 8.53 16.09 13.46"/>
        <path fill="#FFF" fill-rule="nonzero" d="M38.67 39.75c-2.37-.99-4.74-1.97-7.11-2.96-1-.42-2.04-.84-3.12-.82-1.08.02-2.23.59-2.58 1.62-.26.77-.02 1.62.3 2.36a9.66 9.66 0 0 0 3.45 4.09c2.07 1.37 4.77 2.05 6.05 4.18-1.91-.28-3.43 1.91-3.24 3.83.19 1.92 1.49 3.52 2.74 4.99-1.49-.1-2.71 1.45-2.7 2.95.01 1.49.92 2.84 1.99 3.89 1.07 1.05 2.32 1.9 3.32 3.01-1.14-.41-2.27-.82-3.41-1.24 2.19 1.06 4.46 1.96 6.79 2.67.86.26 1.79.5 2.63.17.75-.29 1.26-.98 1.63-1.69 1.8-3.49.84-7.75-.61-11.41-1.45-3.65-3.37-7.27-3.42-11.2-.01-.98.08-2.02-.43-2.86-.5-.81-1.42-1.22-2.28-1.58"/>
        <path fill="#E3E3E3" fill-rule="nonzero" d="M98.95 76.98c-1.69 1.2-3.12 2.85-4.96 3.81-2.98 1.54-6.34 2.48-9.68 2.16-3.34-.32-6.62-2.04-8.38-4.89.22 1.24-.07 2.5-.07 3.75s.39 2.66 1.49 3.25c2.7 2.89 4.89 6.22 7.63 8.98 2.42-2.98 4.92-5.9 7.38-8.85 2.16-2.58 4.48-6.7 7.24-8.66-.22.15-.44.3-.65.45"/>
        <path stroke="#514E4F" stroke-linecap="round" stroke-linejoin="round" stroke-width=".983" d="M93.44 103.06c2.08 2.71 2.34 4.13-.53 5.91M76.15 84.03c3.61 3.93 6.59 6.93 9.14 9.67"/>
        <path fill="#DEDEDE" fill-rule="nonzero" d="M35.53 38.59c.06.33.11.65.17.98.21 1.22 1 2.46 1.35 3.66.24.82.44 1.68.27 2.52-.17.84-.82 1.63-1.67 1.71-.33.03-.79.02-.87.35 1.38.86 2.9 1.76 4.46 2.22.82-.82-.03-3.82-.06-5.01l-.12-4.06"/>
        <path stroke="#514E4F" stroke-linecap="round" stroke-linejoin="round" stroke-width=".983" d="M38.78 40.18c-2.28-1.35-4.62-2.59-7.05-3.59-1.24-.52-2.85-1.22-4.21-.72-2.14.79-2.56 3.7-1.39 5.42 1.04 1.52 8.62 6.24 13.3 9.19"/>
        <path fill="#FFF" fill-rule="nonzero" d="M39.44 50.47l-1.23-24.05a3.925 3.925 0 0 1 3.72-4.12l27.67-1.41a3.335 3.335 0 0 1 3.49 3.15l3.31 65.01a3.335 3.335 0 0 1-3.15 3.49l-28.27 1.44a3.335 3.335 0 0 1-3.49-3.15l-.74-14.47"/>
        <path fill="#FFF" fill-rule="nonzero" d="M39.44 50.47l-1.23-24.05a3.925 3.925 0 0 1 3.72-4.12l27.67-1.41a3.335 3.335 0 0 1 3.49 3.15l3.31 65.01a3.335 3.335 0 0 1-3.15 3.49l-28.27 1.44a3.335 3.335 0 0 1-3.49-3.15l-.74-14.47"/>
        <path stroke="#514E4F" stroke-linecap="round" stroke-linejoin="round" stroke-width=".983" d="M39.44 50.47l-1.23-24.05a3.925 3.925 0 0 1 3.72-4.12l27.67-1.41a3.335 3.335 0 0 1 3.49 3.15l3.31 65.01a3.335 3.335 0 0 1-3.15 3.49l-28.27 1.44a3.335 3.335 0 0 1-3.49-3.15l-.74-14.47"/>
        <path stroke="#514E4F" stroke-linecap="round" stroke-linejoin="round" stroke-width=".983" d="M36.38 57.13c-2-1.3-4.06-3.18-3.98-5.56.03-.8.34-1.63.96-2.14 1.24-1.02 3.1-.48 4.54.22 2.01.98 14.25 8.5 8.5 10.94-2.81 1.2-7.77-1.99-10.02-3.46z"/>
        <path stroke="#514E4F" stroke-linecap="round" stroke-linejoin="round" stroke-width=".983" d="M36.38 65.42c-2-1.3-4.06-3.18-3.98-5.56.03-.8.34-1.63.96-2.14 1.24-1.02 3.1-.48 4.54.22 2.01.98 14.25 8.5 8.5 10.94-2.81 1.2-7.77-1.99-10.02-3.46zM100.23 76.36c-4.08-3.17-8.08-6.34-12.37-9.51a6.045 6.045 0 0 1-2.15-2.99c-.97-5.01-1.95-10.01-2.92-15.02-.6-3.08-.78-5.89-.67-9 .06-1.57.57-5.31-.95-6.41-4.1-2.96-6.25 7.83-6.64 9.97-.18.96-.23 1.95-.21 2.95M100.05 76.64l-15 17.82c-1.32 1.56-.87 3.94.93 4.92l7.17 3.91 7.37-26.71 11.36 8.25"/>
        <path stroke="#514E4F" stroke-linecap="round" stroke-linejoin="round" stroke-width=".983" d="M81.96 42.46l-2.59-.03c.29-2.79.62-5.54 2.07-7.95M38.32 28.35l34.89-1.79"/>
        <path stroke="#514E4F" stroke-linecap="round" stroke-linejoin="round" stroke-width=".983" d="M92.92 108.98C83.55 115.31 72.26 119 60.11 119 27.68 119 1.39 92.71 1.39 60.28S27.68 1.56 60.11 1.56s58.72 26.29 58.72 58.72c0 4.93-.61 9.71-1.75 14.29"/>
        <path stroke="#514E4F" stroke-linecap="round" stroke-linejoin="round" stroke-width=".983" d="M36.38 73.71c-2-1.3-4.06-3.18-3.98-5.56.03-.8.34-1.63.96-2.14 1.24-1.02 3.1-.48 4.54.22 2.01.98 14.25 8.5 8.5 10.94-2.81 1.21-7.77-1.99-10.02-3.46z"/>
        <path fill="#F7F7F7" fill-rule="nonzero" d="M44.97 79.99l.36 7.29c.08 1.64 1.47 2.9 3.11 2.82l20.77-.97a2.974 2.974 0 0 0 2.83-3.11l-1.39-28.58-25.68 22.55z"/>
        <path stroke="#514E4F" stroke-linecap="round" stroke-linejoin="round" stroke-width=".983" d="M57.53 86.92c.02-1.12.94-2.02 2.07-2 1.12.02 2.02.94 2 2.07a2.034 2.034 0 0 1-2.07 2 2.034 2.034 0 0 1-2-2.07zM49.66 72.79l16.65-.92"/>
        <path stroke="#D0D0D0" stroke-linecap="round" stroke-linejoin="round" stroke-width=".983" d="M46.89 24.99l17.51-.92"/>
        <path stroke="#514E4F" stroke-linecap="round" stroke-linejoin="round" stroke-width=".983" d="M52.04 76.82l12.13-.67"/>
        <path fill="#5A70DC" fill-rule="nonzero" d="M46.89 47.5c0-5.49 4.45-9.94 9.94-9.94 5.49 0 9.93 4.45 9.93 9.94 0 5.49-4.45 9.94-9.93 9.94-5.49 0-9.94-4.45-9.94-9.94"/>
        <path stroke="#0223C9" stroke-linecap="round" stroke-linejoin="round" stroke-width=".871" d="M46.89 47.5c0-5.49 4.45-9.94 9.94-9.94 5.49 0 9.93 4.45 9.93 9.94 0 5.49-4.45 9.94-9.93 9.94-5.49 0-9.94-4.45-9.94-9.94z"/>
        <path fill="#5A70DC" fill-rule="nonzero" d="M52.84 48.18l3.41 3.39 5.01-8.44"/>
        <path stroke="#FFF" stroke-linecap="round" stroke-linejoin="round" stroke-width=".871" d="M52.84 48.18l3.41 3.39 5.01-8.44"/>
    </g>
</svg>
