<svg xmlns="http://www.w3.org/2000/svg" width="120" height="120" viewBox="0 0 120 120">
    <g fill="none" fill-rule="evenodd">
        <path fill="#E3E3E3" fill-rule="nonzero" d="M27.92 25.9h3.66c-.1.61-.05 1.25.12 1.84.01 12.2.03 24.41.04 36.61.01 8.7-1.96 20.56 6.67 26.08 1.03.66 2.17 1.16 3.35 1.47 1.54.41 3.15.5 4.75.56 3.35.13 6.71.14 10.07.03l8.78.04c2.79 1.87 6.4 3.22 9.51 4.48-.19.03-.39.05-.58.08H27.92V25.9z"/>
        <path fill="#E3E3E3" fill-rule="nonzero" d="M32.08 81.44c2.9 2.57 7.69 2.65 10.67.19-.52.43 7.33 4.98 8.05 5.41 3.27 1.95 7.11 2.71 10.84 3.24 1.17.17 7.03 1.4 4.13 3.16-1.11.68-3.54.49-4.81.56-1.76.09-3.53.09-5.29.09-2.27 0-4.53 0-6.8.01-1.92 0-3.83 0-5.75-.05-2.58-.08-5.2-.27-7.59-1.25-2.39-.98-4.52-2.86-5.22-5.34M83.85 70.88c-.94-.56-2.02-.82-3.08-1.08-1.31-.32-2.63-.63-3.97-.61-3.56.06-6.68 2.5-8.78 5.37 3.83-2.76 9.62-2.31 12.98 1.01 3.36 3.31 3.88 9.1 1.17 12.97 2.68-1.38 4.72-3.95 5.45-6.88.73-2.93.14-6.16-1.58-8.63-.59-.86-1.31-1.63-2.19-2.15"/>
        <path fill="#F7F7F7" fill-rule="nonzero" d="M112.73 34.63c-1.44-2.98-2.84-6.02-4.79-8.64-.44-.59-.9-1.16-1.4-1.7-1.37-1.48-2.57-3.12-3.96-4.6-.83-.89-4.04-2.82-4.34-3.83 2.62 8.72 4.76 20.09.39 28.54-2.17 4.19-5.87 7.66-10.35 9.14.14 3.56.76 7.41.42 10.95-.21 2.26-1.13 4.16-1.16 6.51-.04 3.08.37 6.15.37 9.23 0 9.31-7.55 16.86-16.86 16.86h-43.4v-23.5c-.11-.06-.21-.13-.31-.2v-9.87c0-4.95-.14-6.29-5.11-7.44-7.84-1.81-15.73-5.77-17.37-14.41-.08-.42-.16-.84-.23-1.27-.05.14-.09.27-.14.41l-.51-1.23.11 2.44A59 59 0 0 0 1.3 60.44 58.874 58.874 0 0 0 60.33 119c32.59 0 59.01-26.43 59.01-59.02 0-8.93-2.74-17.38-6.61-25.35"/>
        <path stroke="#514E4F" stroke-linecap="round" stroke-linejoin="round" stroke-width=".984" d="M84.83 113.38A58.826 58.826 0 0 1 59.66 119c-32.58 0-59-26.42-59-59s26.42-59 59-59c32.59 0 59 26.42 59 59 0 9.91-2.45 19.26-6.77 27.46"/>
        <path stroke="#514E4F" stroke-linecap="round" stroke-linejoin="round" stroke-width=".984" d="M67.06 96.68H27.65V25.77h2.14"/>
        <path stroke="#514E4F" stroke-linecap="round" stroke-linejoin="round" stroke-width=".984" d="M88.17 63.8V21.89H31.54v58.76c0 3.59 2.05 6.94 5.09 8.78 5.63 3.41 13.91 3.36 20.29 3.36h4.43"/>
        <path stroke="#514E4F" stroke-linecap="round" stroke-linejoin="round" stroke-width=".984" d="M31.58 81.58s4.57 4.32 11.31 0c0 0 2.71 5.51 18.46 8.81M50.21 29.58h25.5M43.04 29.58h-.15 3.37M37.62 33.64h-.15 43.21M37.47 41.65h6.25v6.25h-6.25zM37.47 52.57h6.25v6.25h-6.25zM37.47 63.48h6.25v6.25h-6.25z"/>
        <path stroke="#D6D6D6" stroke-linecap="round" stroke-linejoin="round" stroke-width=".984" d="M48.75 47.89h29.32M61.87 44.18H48.75M48.75 58.82h17.28M71.3 55.1H48.75M48.75 69.73h14.66M67.06 66.02H48.75"/>
        <path stroke="#0223C9" stroke-linecap="round" stroke-linejoin="round" stroke-width=".984" d="M85.02 94.3l2.41-1.8"/>
        <path stroke="#D6D6D6" stroke-linecap="round" stroke-linejoin="round" stroke-width=".984" d="M66.91 76.8h12.16M66.91 81.58H83.9"/>
        <path fill="#7184E1" fill-rule="nonzero" d="M102.19 104.96L89.97 90.2c4.97-6.06 5.13-14.98-.06-21.25-5.89-7.11-16.42-8.11-23.54-2.22-7.11 5.89-8.11 16.42-2.22 23.54 5.18 6.27 13.98 7.78 20.86 4.03l12.22 14.76a3.219 3.219 0 0 0 4.53.43 3.22 3.22 0 0 0 .43-4.53M83.88 87.88c-4.57 3.78-11.34 3.14-15.12-1.43-3.78-4.57-3.14-11.34 1.43-15.12 4.57-3.78 11.34-3.14 15.12 1.43 3.78 4.57 3.14 11.34-1.43 15.12"/>
        <path fill="#4860D8" fill-rule="nonzero" d="M102.05 105.59l-.39 1.18c-.81-.01-1.38.34-1.99-.19l-.47-.56c-.8-.94-1.6-1.89-2.4-2.83-1.14-1.35-2.28-2.69-3.42-4.04-1.09-1.29-2.13-2.66-3.3-3.87-.53-.55-1.07-1.1-1.6-1.65-.21-.22-.41-.47-.65-.65-.56-.4-1.19-.7-1.87-.85-.85-.2-1.68-.1-2.53.08-1.5.31-2.96.85-4.47 1.11-3.06.53-6.32-.17-8.91-1.9-3.5-2.34-6-7.15-6.6-11.25-.69-4.71.31-9.7 3.02-13.64-1.17 1.72-3.59 3.66-4.62 5.47-.53.94-.77 2-.99 3.06-.31 1.46-.59 2.94-.64 4.44-.21 5.85 3.32 11.56 8.45 14.36 5.05 2.76 11.41 2.76 16.66.39.35.9.97 1.68 1.59 2.43 3.3 4.04 6.73 7.97 10.28 11.79.28.31.57.61.93.83.29.17.61.27.94.34 1.15.23 2.46-.04 3.21-.93.75-.9.72-2.45-.23-3.12"/>
        <path stroke="#0223C9" stroke-linecap="round" stroke-linejoin="round" stroke-width=".984" d="M102.19 104.96L89.97 90.2c4.97-6.06 5.13-14.98-.06-21.25-5.89-7.11-16.42-8.11-23.54-2.22-7.11 5.89-8.11 16.42-2.22 23.54 5.18 6.27 13.98 7.78 20.86 4.03l12.22 14.76a3.219 3.219 0 0 0 4.53.43 3.22 3.22 0 0 0 .43-4.53zM83.88 87.88c-4.57 3.78-11.34 3.14-15.12-1.43-3.78-4.57-3.14-11.34 1.43-15.12 4.57-3.78 11.34-3.14 15.12 1.43 3.78 4.57 3.14 11.34-1.43 15.12zM91.04 101.47l4.93-3.9"/>
        <path stroke="#A9B4ED" stroke-linecap="round" stroke-linejoin="round" stroke-width=".984" d="M90.58 79.67c0 2.71-.8 5.22-2.19 7.33M89.51 74.44c.43 1 .73 2.06.91 3.17"/>
    </g>
</svg>
