<?xml version="1.0" encoding="utf-8"?>
<!-- Generator: Adobe Illustrator 23.0.4, SVG Export Plug-In . SVG Version: 6.00 Build 0)  -->
<svg version="1.1" id="Layer_1" xmlns="http://www.w3.org/2000/svg" xmlns:xlink="http://www.w3.org/1999/xlink" x="0px" y="0px"
	 viewBox="0 0 240 120" style="enable-background:new 0 0 240 120;" xml:space="preserve">
<g id="XMLID_502_">
	<path id="XMLID_102_" style="fill:#FFFFFF;" d="M116.3,21.3c78.9,14,72.3,37.6,73.2,42.6c2.4,13-9.2,18.9-18.5,22
		c-6.6,2.2-13.5,2.4-20.4,3.7c-9,1.7-17.9,3.9-26.3,7.7c-6.8,3.1-13.1,7.3-20.1,9.8c-7,2.5-14.4,2.5-21.8-0.5
		C33,86.9,37.4,7.3,116.3,21.3z"/>
	<g id="XMLID_41_">
		<rect id="XMLID_101_" x="65" y="31.4" style="fill:#5067DA;" width="6.1" height="7.3"/>
		<path id="XMLID_99_" style="fill:#F7F7F7;" d="M91.8,87.5c4.7-5.5,13.2-5.5,17.9,0c3.7,4.4,3.7,10.9,0,15.2
			c-4.7,5.5-13.2,5.5-17.9,0C88.1,98.4,88.1,91.9,91.8,87.5z"/>
		<path id="XMLID_97_" style="fill:#F7F7F7;" d="M65.4,87.5c4.7-5.5,13.2-5.5,17.9,0c3.7,4.4,3.7,10.9,0,15.2
			c-4.7,5.5-13.2,5.5-17.9,0C61.6,98.4,61.6,91.9,65.4,87.5z"/>
		<path id="XMLID_95_" style="fill:#F7F7F7;" d="M147.3,87.5c4.7-5.5,13.2-5.5,17.9,0c3.7,4.4,3.7,10.9,0,15.2
			c-4.7,5.5-13.2,5.5-17.9,0C143.6,98.4,143.6,91.9,147.3,87.5z"/>
		<rect id="XMLID_94_" x="66.7" y="12.5" style="fill:#F7F7F7;" width="2.8" height="18.7"/>
		<path id="XMLID_93_" style="fill:#F7F7F7;" d="M131.2,71.8c0,0.1,0,0.1,0,0.2L79.6,15c-0.9-1.9-3.1-3.4-5.1-3.7
			c-1-0.2-1.9-0.1-2.9,0c-1,0.1-2.1,0.1-3.1,0.2c-0.4,0-0.8,0-1.1,0.2c-0.4,0.2-0.7,0.5-0.7,0.8c0,0.4,0.2,0.7,0.4,1.1
			c0.5,0.7,0.8,1.5,1.3,2.2l38.1,56.4"/>
		<path id="XMLID_92_" style="fill:#F7F7F7;" d="M186.8,87.3h-0.9V71.2c-0.3-1.4-0.5-3-0.7-4.5c-0.2-0.8-0.4-1.7-0.6-2.5
			c-0.3-1-0.8-2-1.3-3c-0.5-1-0.8-2.1-1.3-3.2c-0.8-1.9-1.7-3.7-2.4-5.6c-0.3-0.8-0.4-1.6-0.6-2.4c-0.3-0.9-1.1-1.7-1.6-2.4
			c-2.2-2.7-5.3-5.3-8.9-5.3h-10.9c-3.1,0-12-1.4-13.8,1.7c-0.9,1.5-0.9,4-1,5.7c-0.2,2.4,0.2,4.9,0.2,7.3v12.6
			c0,0.1-0.4,0.7-0.4,0.7H52.7c-0.5-0.2-2,0.7-2.2,1.3c-0.1,0.6,0.1,1.3,0.6,1.7c0.5,0.4,1.1,0.4,1.7,0.5c0.2,0.1,1,0.1,1.2,0.3
			c0.1,0.1,0.1,0.2,0.1,0.4c0.3,1.9,0.6,3.8,0.8,5.7c0.6,3.8,1.1,7.6,0.8,11.5l-0.6,1.3l7.9,0c0-0.2,0-0.5,0-0.7
			c0.5-3.2,2.9-5.8,5.8-7.3c1.2-0.8,2.5-1.3,3.9-1.6c0.4-0.1,0.7-0.1,1-0.1c5-0.5,10.7,5,11.8,9.7l3.8,0c0.2-1.7,0.7-3.3,1.7-4.6
			c1.3-2.8,4.5-4,7.2-4.6c0.1,0,0.1,0,0.2,0c2.2-0.3,4.3,0.1,6.3,0.9c0.3,0.1,0.7,0.2,1,0.3c3.2,1.5,5.1,4,6.2,7.3
			c0.1,0.3,0.1,0.5,0.2,0.8l32.6,0c0-0.1,0-0.2,0.1-0.3c0.4-1.5,0.9-3.1,1.9-4.3c0.2-0.2,0.4-0.4,0.6-0.6c0.3-0.7,0.9-1.4,1.6-1.9
			c6.3-4.2,13.7-2.6,17.8,3.8c0.8,1.2,1,2.4,0.8,3.4l18.1,0v-0.4h0.9c0.6,0,1-0.5,1-1v-3.4C187.9,87.8,187.4,87.3,186.8,87.3z"/>
		<path id="XMLID_91_" style="fill:none;stroke:#514E4F;stroke-linecap:round;stroke-linejoin:round;stroke-miterlimit:10;" d="
			M151,77l-0.2-0.7c-0.1-0.3,0.1-0.6,0.5-0.6l3.4,0c0.3,0,0.5,0.3,0.5,0.6l-0.2,0.7c0,0,0,0,0,0"/>
		<path id="XMLID_90_" style="fill:none;stroke:#514E4F;stroke-linecap:round;stroke-linejoin:round;stroke-miterlimit:10;" d="
			M167.4,77l-0.2-0.7c-0.1-0.3,0.1-0.6,0.5-0.6l3.4,0c0.3,0,0.5,0.3,0.5,0.6l-0.2,0.7c0,0,0,0,0,0"/>
		<path id="XMLID_89_" style="fill:#E3E3E3;" d="M69.7,76.8c1.2-0.6,2.8-0.6,4.2-0.7c1-0.1,2.1-0.2,3.1-0.4c0.9-0.1,2-0.1,2.8-0.7
			c0.4-0.3,1-0.9,0.1-1c-0.9-0.1-1.8,0-2.6,0c-1.8,0-3.6,0-5.4,0c-1,0-2,0-2.9,0c0,0-0.1,0-0.1,0H54l0,18.7h8c1.5,0,2.8-1.2,3.7-2.4
			c1-1.4,1.5-3.2,2.6-4.5c1.1-1.4,2.8-2.1,4.5-2.4c0.5-0.1,1-0.2,1.4-0.1c0.5,0.1,1,0.1,1.4,0.2c0.3,0,0.6,0.1,0.9,0.1
			c0-0.3-2.6-0.9-3-1c-0.5-0.1-1-0.2-1.5-0.4c-0.5-0.1-1.1-0.3-1.6-0.5c-0.8-0.4-1.6-1.1-1.9-2c-0.2-0.7-0.3-1.6,0.2-2.2
			C69.1,77.2,69.4,77,69.7,76.8z"/>
		<path id="XMLID_88_" style="fill:#E3E3E3;" d="M109.8,87.6h15c1.3,0,2.6,0.4,3.6,1.3l1.9,1.5h-18.7L109.8,87.6z"/>
		<path id="XMLID_87_" style="fill:#5067DA;" d="M68.8,38.8c0.7,0,0.6,0.4,0.6,1c0.1,0.7,0.1,1.4,0.1,2.2c0,0.7,0.8,1,1.2,1.5
			c0.5,0.5,1,1.2,1.3,1.9c0.5,1.2,0.6,2.5,0,3.6c-0.4,0.8-1.1,1.3-1.8,1.8c-0.3,0.2-0.6,0.4-0.9,0.5c-0.4,0.1-0.8,0.2-1.2,0.2
			c-0.8,0.1-1.6,0.2-2.3-0.1c-0.3-0.1-0.5-0.3-0.8-0.4c-0.9-0.6-1.5-1.6-1.7-2.6c-0.1-0.6-0.2-1.2,0.2-1.7c0.3-0.4,0.8-0.5,1.2-0.5
			c0.5,0.1,0.9,0.4,1.1,0.7c0.3,0.4,0.4,0.9,0.8,1.1c0.2,0.1,0.4,0.1,0.6,0.2c0.6,0.1,1.4,0.1,1.7-0.4c0.4-0.5,0.1-1.3-0.3-1.9
			c-0.4-0.5-1-0.9-1.4-1.5C67.1,44,67,43.3,67,42.7c-0.1-1-0.2-2-0.1-3c0-0.5-0.1-0.8,0.4-0.9C67.7,38.7,68.3,38.8,68.8,38.8z"/>
		<polygon id="XMLID_86_" style="fill:#E3E3E3;" points="68,15.2 74.2,15.2 122.9,70 104.5,69.9 		"/>
		<path id="XMLID_85_" style="fill:#D9DEF7;" d="M178.9,70.1h-12.9c-0.9,0-1.7-0.7-1.8-1.6L161.2,47c-0.1-1,0.6-1.8,1.6-1.8l0,0
			c3,0,5.9,0.9,8.4,2.5l0,0c2.8,1.8,4.9,4.5,6.1,7.6l4.1,11.1C182,68.2,180.7,70.1,178.9,70.1z"/>
		<path id="XMLID_84_" style="fill:#D9DEF7;" d="M150.3,45.2h6.7c0.4,0,0.8,0.3,0.8,0.7l3.2,23.1c0.1,0.5-0.3,1-0.8,1h-9.9
			c-0.5,0-0.8-0.4-0.8-0.8l0.1-23.1C149.5,45.6,149.9,45.2,150.3,45.2z"/>
		<polygon id="XMLID_83_" style="fill:#E3E3E3;" points="91.6,90.5 85.2,90.5 83.5,87.5 91.6,87.5 		"/>
		<path id="XMLID_82_" style="fill:#E3E3E3;" d="M164.5,102.3c-0.9-0.3-1.7-1.1-2.3-1.8c-0.2-0.3-0.5-0.6-0.4-1
			c0-0.3,0.1-0.5,0.3-0.7c0.9-1.8,1.1-4,0.4-5.9s-2.4-3.4-4.4-3.7c-1.5-0.2-3.2,0.1-4.5-0.7c-1.1-0.8-1.4-2.1-1.3-3.4
			c0-0.4,0.1-0.7,0.2-0.9c-4.5,1.7-7.6,6-7.6,11.1c0,6.5,5.3,11.8,11.8,11.8c3.8,0,7.1-1.8,9.3-4.5
			C165.5,102.5,165,102.4,164.5,102.3z"/>
		
			<line id="XMLID_81_" style="fill:none;stroke:#514E4F;stroke-linecap:round;stroke-linejoin:round;stroke-miterlimit:10;" x1="119.6" y1="59.1" x2="117.4" y2="56.7"/>
		
			<line id="XMLID_80_" style="fill:none;stroke:#514E4F;stroke-linecap:round;stroke-linejoin:round;stroke-miterlimit:10;" x1="60.5" y1="86.8" x2="53.9" y2="86.8"/>
		
			<line id="XMLID_79_" style="fill:none;stroke:#514E4F;stroke-linecap:round;stroke-linejoin:round;stroke-miterlimit:10;" x1="66.5" y1="13.1" x2="104.8" y2="70.1"/>
		<path id="XMLID_78_" style="fill:none;stroke:#514E4F;stroke-linecap:round;stroke-linejoin:round;stroke-miterlimit:10;" d="
			M115.9,54.9L77.9,13.3c-1.1-1.3-2.8-2-4.5-2H68c-0.8,0-1.4,0.6-1.4,1.4"/>
		
			<line id="XMLID_77_" style="fill:none;stroke:#514E4F;stroke-linecap:round;stroke-linejoin:round;stroke-miterlimit:10;" x1="129.7" y1="70.1" x2="119" y2="58.4"/>
		
			<line id="XMLID_76_" style="fill:none;stroke:#0223C9;stroke-linecap:round;stroke-linejoin:round;stroke-miterlimit:10;" x1="69.6" y1="42.4" x2="69.6" y2="38.9"/>
		<path id="XMLID_74_" style="fill:none;stroke:#514E4F;stroke-linecap:round;stroke-linejoin:round;stroke-miterlimit:10;" d="
			M168.3,92.9l18.3,0c0.8,0,1.4-0.6,1.4-1.4v-1.4c0-0.8-0.6-1.4-1.4-1.4H186V72.6c0-2.9-0.5-5.7-1.6-8.4l-5.2-13.3
			c-2.1-5.4-7.2-8.9-13-8.9h-19.3c-2.4,0-4.3,1.9-4.3,4.3v30.1"/>
		<path id="XMLID_72_" style="fill:none;stroke:#514E4F;stroke-linecap:round;stroke-linejoin:round;stroke-miterlimit:10;" d="
			M147.5,87.5c4.7-5.5,13.2-5.5,17.9,0c3.7,4.4,3.7,10.9,0,15.2c-4.7,5.5-13.2,5.5-17.9,0C143.8,98.4,143.8,91.9,147.5,87.5z"/>
		<path id="XMLID_70_" style="fill:none;stroke:#514E4F;stroke-linecap:round;stroke-linejoin:round;stroke-miterlimit:10;" d="
			M162.5,93.7c0.5,2-0.1,4.2-1.6,5.8c-2.4,2.4-6.3,2.4-8.7,0s-2.4-6.3,0-8.7c2.1-2.1,5.4-2.4,7.8-0.8"/>
		
			<polyline id="XMLID_69_" style="fill:none;stroke:#514E4F;stroke-linecap:round;stroke-linejoin:round;stroke-miterlimit:10;" points="
			62.6,92.9 53.9,92.9 53.9,73.8 		"/>
		
			<line id="XMLID_68_" style="fill:none;stroke:#514E4F;stroke-linecap:round;stroke-linejoin:round;stroke-miterlimit:10;" x1="89.1" y1="92.9" x2="86.2" y2="92.9"/>
		
			<line id="XMLID_67_" style="fill:none;stroke:#514E4F;stroke-linecap:round;stroke-linejoin:round;stroke-miterlimit:10;" x1="142.7" y1="92.9" x2="112.4" y2="92.9"/>
		
			<line id="XMLID_66_" style="fill:none;stroke:#514E4F;stroke-linecap:round;stroke-linejoin:round;stroke-miterlimit:10;" x1="163.2" y1="75.7" x2="163.2" y2="85.2"/>
		<path id="XMLID_65_" style="fill:none;stroke:#0223C9;stroke-linecap:round;stroke-linejoin:round;stroke-miterlimit:10;" d="
			M66.8,38.8c0,0.9,0,1.8,0,2.7c0,1.4,0,2.9,1.2,3.8c0.8,0.6,1.6,1.2,1.1,2.3c-0.2,0.4-0.5,0.7-0.9,0.9c-0.9,0.3-1.9-0.2-2.1-1.1
			c-0.2-0.8-0.9-1.4-1.7-1.3c-0.9,0.1-1.5,0.9-1.3,1.8c0.5,2.5,3,4.1,5.5,3.6c1.6-0.3,2.9-1.5,3.4-3c0.8-2.5-0.6-5-2.8-5.8"/>
		
			<line id="XMLID_64_" style="fill:none;stroke:#514E4F;stroke-linecap:round;stroke-linejoin:round;stroke-miterlimit:10;" x1="66.9" y1="31.3" x2="66.5" y2="12.7"/>
		
			<line id="XMLID_63_" style="fill:none;stroke:#514E4F;stroke-linecap:round;stroke-linejoin:round;stroke-miterlimit:10;" x1="69.6" y1="31.3" x2="69.6" y2="17.6"/>
		
			<line id="XMLID_62_" style="fill:none;stroke:#514E4F;stroke-linecap:round;stroke-linejoin:round;stroke-miterlimit:10;" x1="85" y1="74.1" x2="118.6" y2="74.1"/>
		
			<line id="XMLID_61_" style="fill:none;stroke:#0223C9;stroke-linecap:round;stroke-linejoin:round;stroke-miterlimit:10;" x1="65.3" y1="33.7" x2="69.4" y2="33.7"/>
		
			<line id="XMLID_60_" style="fill:none;stroke:#514E4F;stroke-linecap:round;stroke-linejoin:round;stroke-miterlimit:10;" x1="103.8" y1="44.9" x2="126.7" y2="70"/>
		<path id="XMLID_59_" style="fill:#E3E3E3;" d="M82,102.3c-0.9-0.3-1.7-1.1-2.3-1.8c-0.2-0.3-0.5-0.6-0.4-1c0-0.3,0.1-0.5,0.3-0.7
			c0.9-1.8,1.1-4,0.4-5.9s-2.4-3.4-4.4-3.7c-1.5-0.2-3.2,0.1-4.5-0.7c-1.1-0.8-1.4-2.1-1.3-3.4c0-0.4,0.1-0.7,0.2-0.9
			c-4.5,1.7-7.6,6-7.6,11.1c0,6.5,5.3,11.8,11.8,11.8c3.8,0,7.1-1.8,9.3-4.5C82.9,102.5,82.4,102.4,82,102.3z"/>
		<path id="XMLID_57_" style="fill:none;stroke:#514E4F;stroke-linecap:round;stroke-linejoin:round;stroke-miterlimit:10;" d="
			M65.3,87.5c4.7-5.5,13.2-5.5,17.9,0c3.7,4.4,3.7,10.9,0,15.2c-4.7,5.5-13.2,5.5-17.9,0C61.5,98.4,61.5,91.9,65.3,87.5z"/>
		<path id="XMLID_55_" style="fill:none;stroke:#514E4F;stroke-linecap:round;stroke-linejoin:round;stroke-miterlimit:10;" d="
			M75.4,101.2c-1.9,0.4-4-0.2-5.5-1.7c-2.4-2.4-2.4-6.3,0-8.7c2.4-2.4,6.3-2.4,8.7,0c2.4,2.4,2.4,6.3,0,8.7"/>
		<path id="XMLID_54_" style="fill:#E3E3E3;" d="M108.1,104.3c-1.7-0.3-3.2-1.7-3.6-3.4c-0.1-0.3-0.1-0.7,0.1-0.9
			c0.2-0.2,0.6-0.2,0.9-0.4c0.4-0.2,0.5-0.7,0.6-1.1c0.2-0.4,0.4-0.7,0.7-1c0.5-1.5,0.5-3.2-0.1-4.7c-0.7-1.9-2.4-3.4-4.4-3.7
			c-0.6-0.1-1.3-0.1-2-0.1c-0.1,0-0.2,0-0.3,0.1c-1.4,0.3-2.9,0.7-3.8,1.8c-0.2,0.2-0.4,0.5-0.7,0.6c-0.5,0.2-1,0-1.4-0.3
			c-1.2-0.8-2.1-1.9-2.7-3.1c-1.5,2-2.4,4.4-2.4,7.1c0,6.5,5.3,11.8,11.8,11.8c2.8,0,5.4-1,7.4-2.6
			C108.2,104.4,108.1,104.4,108.1,104.3z"/>
		<path id="XMLID_52_" style="fill:none;stroke:#514E4F;stroke-linecap:round;stroke-linejoin:round;stroke-miterlimit:10;" d="
			M91.8,87.5c4.7-5.5,13.2-5.5,17.9,0c3.7,4.4,3.7,10.9,0,15.2c-4.7,5.5-13.2,5.5-17.9,0C88.1,98.4,88.1,91.9,91.8,87.5z"/>
		<path id="XMLID_50_" style="fill:none;stroke:#514E4F;stroke-linecap:round;stroke-linejoin:round;stroke-miterlimit:10;" d="
			M94.6,96.1c-0.3-1.9,0.3-3.9,1.7-5.3c2.4-2.4,6.3-2.4,8.7,0c2.4,2.4,2.4,6.3,0,8.7s-6.3,2.4-8.7,0"/>
		<path id="XMLID_49_" style="fill:none;stroke:#514E4F;stroke-linecap:round;stroke-linejoin:round;stroke-miterlimit:10;" d="
			M56.3,73.8h-3.9c-1,0-1.8-0.8-1.8-1.8v0c0-1,0.8-1.8,1.8-1.8h90.3"/>
		<path id="XMLID_48_" style="fill:none;stroke:#0223C9;stroke-linecap:round;stroke-linejoin:round;stroke-miterlimit:10;" d="
			M66.5,38.8h3.3c0.8,0,1.4-0.6,1.4-1.4v-4.7c0-0.8-0.6-1.4-1.4-1.4h-3.3c-0.8,0-1.4,0.6-1.4,1.4v4.7C65.1,38.2,65.7,38.8,66.5,38.8
			z"/>
		
			<line id="XMLID_47_" style="fill:none;stroke:#514E4F;stroke-linecap:round;stroke-linejoin:round;stroke-miterlimit:10;" x1="186" y1="88.8" x2="180.7" y2="88.8"/>
		<path id="XMLID_46_" style="fill:none;stroke:#514E4F;stroke-linecap:round;stroke-linejoin:round;stroke-miterlimit:10;" d="
			M185.8,80h-4.9c-0.6,0-1,0.5-1,1v1.1c0,0.3,0.1,0.6,0.4,0.8l0.8,0.6c0.2,0.1,0.4,0.2,0.6,0.2h2.2"/>
		<path id="XMLID_45_" style="opacity:0.4;fill:#FFFFFF;" d="M180.2,63.1l-2.8-7.7c-1-2.7-2.7-5-4.9-6.8l-8.6,16.8l-0.1,0.4l0.4,2.8
			c0.1,0.9,0.9,1.6,1.8,1.6H177L180.2,63.1z"/>
		<path id="XMLID_44_" style="fill:none;stroke:#5D72DC;stroke-linecap:round;stroke-linejoin:round;stroke-miterlimit:10;" d="
			M178.9,70.1h-12.9c-0.9,0-1.7-0.7-1.8-1.6L161.2,47c-0.1-1,0.6-1.8,1.6-1.8l0,0c3,0,5.9,0.9,8.4,2.5l0,0c2.8,1.8,4.9,4.5,6.1,7.6
			l4.1,11.1C182,68.2,180.7,70.1,178.9,70.1z"/>
		<path id="XMLID_43_" style="opacity:0.4;fill:#FFFFFF;" d="M160.3,64.3l-2.5-18.4c-0.1-0.4-0.4-0.7-0.8-0.7h-2.3l-5.3,10.1l0,13.8
			c0,0.5,0.4,0.8,0.8,0.8h7.3L160.3,64.3z"/>
		<path id="XMLID_42_" style="fill:none;stroke:#5D72DC;stroke-linecap:round;stroke-linejoin:round;stroke-miterlimit:10;" d="
			M150.3,45.2h6.7c0.4,0,0.8,0.3,0.8,0.7l3.2,23.1c0.1,0.5-0.3,1-0.8,1h-9.9c-0.5,0-0.8-0.4-0.8-0.8l0.1-23.1
			C149.5,45.6,149.9,45.2,150.3,45.2z"/>
	</g>
</g>
</svg>
