<svg xmlns="http://www.w3.org/2000/svg" width="240" height="120" viewBox="0 0 240 120">
    <g fill="none" fill-rule="evenodd">
        <path fill="#FFF" fill-rule="nonzero" d="M75.32 57.46c0-4.33.6-8.52 1.71-12.5-.5.06-1 .12-1.5.17-15.26 1.47-28.82 10.68-29.54 27.06-.6 13.62 7.88 26.52 20.04 32.31 13.16 6.26 34.94 5.1 47.83-1.38-21.94-4.21-38.54-23.02-38.54-45.66zM191.52 31.97c-9.05-21.61-30.27-22.2-49.64-16.15 15.41 7.51 26.04 23.33 26.04 41.64 0 7.73-1.9 15.02-5.25 21.43 2.53-1.04 5.13-1.89 7.77-2.53 6.15-1.51 10.63-1.86 15.21-6.93 4.38-4.85 7.09-11.55 8.03-18.49.88-6.57.19-13.35-2.16-18.97z"/>
        <g transform="translate(53 11)">
            <path fill="#E3E3E3" fill-rule="nonzero" d="M14 18.96c-3.04 2.6-8.85.65-8.98-3.53-.08.06-.17.12-.27.15l-3.41 1.35c-.86.34-.95 1.51-.16 1.99l3.15 1.89c.31.19.52.52.54.88l.23 3.66c.06.92 1.15 1.37 1.84.77l2.77-2.41c.28-.24.65-.33 1.01-.24l3.55.91c.89.23 1.66-.66 1.3-1.51l-1.44-3.38c-.07-.16-.1-.33-.09-.5-.01-.01-.02-.02-.04-.03z"/>
            <path fill="#F5F5F5" fill-rule="nonzero" d="M111.76 62.18c-2.5 3.72-9.73 6.24-13.77 7.89-17.2 7.02-40.23 5.53-55.11-6.09-8.01-6.26-13.5-17.29-13.31-27.5.06-3.5.45-7.03 1.39-10.41.97-3.49 3.25-6.51 4.18-9.96-2.59 1.31-4.77 3.45-6.53 5.72-1.61 2.07-2.21 4.6-3.2 7.02a46.252 46.252 0 0 0-3.46 17.58c0 25.56 20.72 46.28 46.28 46.28 20.03 0 37.09-12.72 43.53-30.53z"/>
            <path fill="#E3E3E3" fill-rule="nonzero" stroke="#514E4F" stroke-linecap="round" stroke-linejoin="round" d="M47.45 5.37v4.71c0 1.67 1 3.18 2.54 3.83 3.94 1.66 8.02 2.43 12.22 3.29 4.48.91 8.82 2.47 13.23 3.67l6.32 1.71c1.72.47 3.1 1.74 3.7 3.42l2.59 7.22c.49 1.36.41 2.87-.21 4.18l-5.49 11.57a5.43 5.43 0 0 1-2.18 2.37l-6.4 3.74c-1.67.98-2.7 2.77-2.7 4.71v14.07c0 1.04.3 2.05.85 2.93l.61.95c1.77 2.77.69 6.47-2.29 7.86-1.74.81-3.78.61-5.38-.44l-8.13-5.28a5.437 5.437 0 0 1-2.48-4.44l-.41-17.25v-8.46c0-1.32-.48-2.59-1.34-3.58l-6.69-7.67a5.447 5.447 0 0 1-1.32-4.11l.03-.35c.23-2.35.45-4.7.68-7.05.12-1.28 1.27-7.29.63-8.7l-.54-1.19a3.991 3.991 0 0 0-2.54-2.19l-5.92-1.69"/>
            <path fill="#E3E3E3" fill-rule="nonzero" d="M114.04 41.02c.44 4.11-.15 8.08-.56 12.18-.17 1.72-1 10.72-2.07 10.72l-1.01-.87c-3.77-3.27-1.59-7.87-1.73-12.01-.09-2.7-.76-5.5-1.13-8.18a7.31 7.31 0 0 0-.28-1.23s-6.16-19.01-6.17-19.03c-.73-2.24-.32-5.21 1.47-6.87 1.29.78 2.43 2.81 3.49 3.99 1.52 1.69 2.89 2.73 3.55 4.92.73 2.4 1.78 4.72 2.51 7.15a55.228 55.228 0 0 1 2.33 15.9c0 1.84.03 3.7-.16 5.52-.35 3.32-.92 7.7-2.9 10.43"/>
            <path stroke="#514E4F" stroke-linecap="round" stroke-linejoin="round" d="M97.36 10.42c10.65 8.48 17.47 21.55 17.47 36.22 0 25.56-20.72 46.28-46.28 46.28-25.56 0-46.28-20.71-46.28-46.27C22.27 21.09 42.99.37 68.55.37c8.95 0 17.3 2.54 24.38 6.94"/>
            <path stroke="#514E4F" stroke-linecap="round" stroke-linejoin="round" d="M111.41 63.91l-1.01-.87c-3.77-3.27-1.59-7.87-1.73-12.01-.09-2.7-.76-5.5-1.13-8.18a7.31 7.31 0 0 0-.28-1.23l-6.17-19.03a7.13 7.13 0 0 1 1.55-7.03"/>
            <circle cx="71.13" cy="61.19" r="5.13" fill="#5067DA" fill-rule="nonzero" stroke="#0223C9" stroke-linecap="round" stroke-linejoin="round" stroke-width=".851"/>
            <circle cx="52.05" cy="48.21" r="5.13" fill="#5067DA" fill-rule="nonzero" stroke="#0223C9" stroke-linecap="round" stroke-linejoin="round" stroke-width=".851"/>
            <circle cx="73.68" cy="33.2" r="5.13" fill="#5067DA" fill-rule="nonzero" stroke="#0223C9" stroke-linecap="round" stroke-linejoin="round" stroke-width=".851"/>
            <circle cx="55.04" cy="28.07" r="5.13" fill="#5067DA" fill-rule="nonzero" stroke="#0223C9" stroke-linecap="round" stroke-linejoin="round" stroke-width=".851"/>
            <path stroke="#0223C9" stroke-linecap="round" stroke-linejoin="round" stroke-width=".851" d="M71.13 61.19L52.05 48.21 73.68 33.2l-18.64-5.13"/>
            <path stroke="#514E4F" stroke-linecap="round" stroke-linejoin="round" d="M8.2 10.6l2.34 2.83c.23.28.59.43.96.4l3.65-.32c.92-.08 1.53.93 1.04 1.7l-1.97 3.1c-.2.31-.23.69-.08 1.03l1.44 3.38c.36.85-.41 1.74-1.3 1.51l-3.55-.91c-.35-.09-.73 0-1.01.24l-2.77 2.41c-.69.61-1.78.15-1.84-.77l-.23-3.66c-.02-.37-.22-.7-.54-.88l-3.15-1.89c-.79-.47-.69-1.65.16-1.99l3.41-1.35c.34-.13.59-.43.67-.79l.82-3.58c.21-.9 1.36-1.17 1.95-.46z"/>
            <path fill="#E3E3E3" fill-rule="nonzero" d="M126.25 83.45c-3.92.8-8.05-3.72-6.14-7.44-.1.02-.21.02-.31.01l-3.64-.47c-.91-.12-1.57.86-1.11 1.66l1.84 3.17c.18.32.2.7.04 1.03l-1.57 3.31c-.4.83.34 1.76 1.24 1.56l3.59-.77c.36-.08.73.03 1 .28l2.67 2.52c.67.63 1.78.22 1.87-.69l.38-3.65c.02-.17.08-.34.17-.48-.02-.01-.02-.02-.03-.04z"/>
            <path stroke="#514E4F" stroke-linecap="round" stroke-linejoin="round" d="M125.22 73.32l.68 3.61c.07.36.31.66.64.81l3.35 1.49c.84.37.89 1.55.08 1.99l-3.22 1.76c-.32.18-.54.5-.57.86l-.38 3.65c-.09.92-1.2 1.33-1.87.69l-2.67-2.52c-.27-.25-.64-.36-1-.28l-3.59.77c-.9.19-1.63-.73-1.24-1.56l1.57-3.31c.16-.33.14-.72-.04-1.03l-1.84-3.17c-.46-.8.19-1.78 1.11-1.66l3.64.47c.36.05.73-.09.97-.36l2.45-2.73c.62-.7 1.76-.38 1.93.52z"/>
            <circle cx="73.68" cy="33.2" r="2.35" fill="#5067DA" fill-rule="nonzero" stroke="#0223C9" stroke-linecap="round" stroke-linejoin="round" stroke-width=".851"/>
            <circle cx="55.04" cy="28.07" r="2.35" fill="#5067DA" fill-rule="nonzero" stroke="#0223C9" stroke-linecap="round" stroke-linejoin="round" stroke-width=".851"/>
            <circle cx="52.05" cy="48.21" r="2.35" fill="#5067DA" fill-rule="nonzero" stroke="#0223C9" stroke-linecap="round" stroke-linejoin="round" stroke-width=".851"/>
            <circle cx="71.13" cy="61.19" r="2.35" fill="#5067DA" fill-rule="nonzero" stroke="#0223C9" stroke-linecap="round" stroke-linejoin="round" stroke-width=".851"/>
        </g>
        <path d="M0 1h240v118H0z"/>
    </g>
</svg>
