<?xml version="1.0" encoding="UTF-8"?>
<svg width="80px" height="88px" viewBox="0 0 80 88" version="1.1" xmlns="http://www.w3.org/2000/svg" xmlns:xlink="http://www.w3.org/1999/xlink">
    <title>ilus@1,5x</title>
    <defs>
        <rect id="path-1" x="0" y="0" width="80" height="88"></rect>
    </defs>
    <g id="1.1---home" stroke="none" stroke-width="1" fill="none" fill-rule="evenodd">
        <g id="1.1---Home---1440px" transform="translate(-1228.000000, -1456.000000)">
            <g id="Numbers" transform="translate(0.000000, 1336.000000)">
                <g id="add-3-cols-copy-11" transform="translate(1039.000000, 104.000000)">
                    <g id="ilus" transform="translate(189.000000, 16.000000)">
                        <mask id="mask-2" fill="white">
                            <use xlink:href="#path-1"></use>
                        </mask>
                        <g id="Rectangle"></g>
                        <g id="Ilus_2D/10---Miscelaneas/08" opacity="0.3" mask="url(#mask-2)">
                            <g transform="translate(-11.000000, 1.000000)" id="Group-9">
                                <g transform="translate(20.800000, 15.011765)">
                                    <path d="M57.018988,51.9965082 C55.827148,53.3434259 53.762748,53.4733553 52.404508,52.2817318 C51.051988,51.0952847 50.920948,49.0402259 52.112788,47.6938259 C53.304628,46.3474259 55.369028,46.2174965 56.722068,47.4039435 C58.079788,48.5955671 58.210828,50.6495906 57.018988,51.9965082 M46.464548,49.2079435 C46.306988,51.5808376 47.225828,53.9992847 49.159188,55.6950965 C52.476268,58.6047906 57.539508,58.2910965 60.461908,54.9890259 C63.384308,51.6874729 63.058788,46.6476612 59.741708,43.7384847 C57.808868,42.0426729 55.282708,41.4401318 52.938028,41.8941082 M52.412308,42.4888847 L22.086428,15.3082729 C23.576748,11.1670965 22.492548,6.35090824 18.975788,3.26624941 C15.636348,0.337402353 11.022388,-0.237703529 7.199868,1.41980235 L15.877628,9.03128471 L9.627228,16.0930259 L0.949988,8.48154353 C-0.221052,12.4653553 0.933868,16.9492141 4.272788,19.8780612 C7.794748,22.9668612 12.726428,23.4368847 16.664908,21.4335906 L46.990788,48.6136847" id="Fill-1" fill="#F6F6F6"></path>
                                    <path d="M58.15342,50.2741929 C58.0489,50.7317929 57.73846,51.1873224 57.36562,51.5206871 C57.05206,52.3199341 56.3771,52.9788988 55.45358,53.2133929 C54.09274,53.5596988 52.80314,52.8127341 52.31538,51.5470871 C52.0975,51.3617694 51.90978,51.1459106 51.7595,50.8922635 C51.52446,50.4884988 51.4059,50.0531576 51.40434,49.58624 C51.40434,48.6192753 51.92174,47.8816282 52.69238,47.3515576 C53.7589,46.6170165 55.17018,46.6346165 56.33758,47.0906635 C56.7775,47.2133459 57.16074,47.4354165 57.4847,47.75584 C57.62042,47.9308047 57.75562,48.1052518 57.89134,48.2796988 C58.2725,48.8677459 58.30526,49.6116047 58.15342,50.2741929 M62.05758,49.3936753 C61.7383,47.2532047 60.91098,45.1184282 59.33902,43.6234635 C57.7681,42.1290165 55.36518,41.3975812 53.33458,42.1699106 C52.99814,42.2982871 52.65026,42.4675576 52.29458,42.4069929 C52.00494,42.3578165 51.7647,42.1621459 51.54006,41.9726871 C49.45226,40.2106165 47.4461,38.3512282 45.53198,36.40384 C45.35206,38.3067106 43.4577,39.6857224 41.55554,39.9466165 C39.65338,40.2075106 37.74914,39.6168753 35.9203,39.0340047 L46.20434,48.1746165 C46.82678,49.7938165 46.66506,51.6309459 47.2927,53.2480753 C48.03786,55.1664753 49.86514,56.55584 51.86922,57.0543341 C53.87382,57.5533459 56.02142,57.23344 57.93294,56.4538635 C59.52882,55.8036988 61.06698,54.7513224 61.75286,53.17664 C62.26506,52.0005459 62.24686,50.6613929 62.05758,49.3936753" id="Fill-3" fill="#E5E5E5"></path>
                                    <path d="M46.4646,49.2080471 C46.30704,51.5809412 47.22588,53.9993882 49.15924,55.6946824 C52.47632,58.6043765 57.53956,58.2912 60.46196,54.9891294 C63.38436,51.6875765 63.05884,46.6477647 59.74176,43.7385882 C57.8084,42.0422588 55.28276,41.4402353 52.93808,41.8942118 M52.41236,42.4889882 L22.08648,15.3083765 C23.5768,11.1672 22.49208,6.35101176 18.97584,3.26635294 C15.6364,0.337505882 11.02244,-0.238117647 7.19992,1.41990588 L15.87768,9.03087059 L9.62728,16.0926118 L0.95004,8.48164706 C-0.221,12.4654588 0.9334,16.9493176 4.27284,19.8781647 C7.7948,22.9669647 12.72648,23.4364706 16.66496,21.4336941 L46.99084,48.6137882" id="Stroke-5" stroke="#514E4F" stroke-linecap="round" stroke-linejoin="round"></path>
                                    <path d="M57.019976,52.0177318 C55.828136,53.3646494 53.763736,53.4940612 52.405496,52.3024376 C51.052976,51.1159906 50.922456,49.0614494 52.114296,47.7145318 C53.306136,46.3686494 55.370016,46.23872 56.723056,47.4251671 C58.081296,48.6167906 58.211816,50.6708141 57.019976,52.0177318 Z" id="Stroke-7" stroke="#514E4F" stroke-linecap="round" stroke-linejoin="round"></path>
                                </g>
                            </g>
                        </g>
                    </g>
                </g>
            </g>
        </g>
    </g>
</svg>