<svg xmlns="http://www.w3.org/2000/svg" width="240" height="120" viewBox="0 0 240 120">
    <g fill="none" fill-rule="evenodd">
        <path fill="#5067DA" fill-rule="nonzero" d="M91.63 37.1l-1.56 5.94c-.46 1.73-.91 3.47-1.17 5.24 1.97 1.05 4.37.29 6.46-.48.73-.27 1.47-.55 2.04-1.08.49-.45.82-1.06 1.14-1.65.33-.63.67-1.25 1-1.88.1-.19.21-.39.41-.47.18-.08.38-.03.57.01.53.12 1.07.24 1.51.57.43.33.72.91.53 1.42-.13.35-.44.59-.7.85-.71.72-1.06 1.7-1.68 2.5-.46.59-1.05 1.06-1.67 1.48-2.91 1.98-6.61 3-10.01 2.12-1.05-.27-2.05-.71-3.03-1.19-.91-.45-1.83-.93-2.55-1.64-2.01-1.97-2.16-5.19-1.46-7.91-.39-.29-.78-.58-1.16-.87-.22-.17-.45-.34-.61-.57-.23-.35-.27-.8-.24-1.22.1-1.26.75-2.47 1.76-3.23 1.08-.82 2.51-1.14 3.45-2.12 1.16-1.21 1.28-3.13 2.37-4.41 1.1-1.29 2.92-1.65 4.61-1.82.75-.08 1.52-.13 2.24.07.71.2 1.32.64 1.94 1.04 1.55 1.01 3.21 1.87 4.64 3.03 1.44 1.16 2.67 2.71 2.98 4.53-.76.18-1.51-.26-2.14-.72-1.97-1.42-3.99-3.45-6.48-3.89-1.39-.25-1.51.87-1.92 2.02-.5 1.41-.89 2.87-1.27 4.33z"/>
        <path fill="#E1E1E1" fill-rule="nonzero" d="M116.34 86.99l3.04.03c.22-.19-1.1-.49-1.06-.87.14-1.15-.38-2.91-.48-3.68-.19-1.43-.56-2.85-.8-4.28-.29-1.71-.08-3.3-.21-5-.13-1.67-.33-3.34-.43-5.02a8.98 8.98 0 0 1 0-1.16c.02-.27.14-.36-.07-.6-.31-.36-1.01-.29-1.42-.21-1.44.26-2.78 1.63-3.74 2.66-.85.91-1.49 1.85-2.04 2.97-.25.51-.61 1.13-.58 1.72.03.62.56 1.18.85 1.7.52.96 1.1 1.86 1.67 2.79.99 1.63 1.74 3.39 2.74 5.03.65 1.07 1.32 3.4 2.53 3.92zM99.64 42.17c-.09-.03-.17-.09-.26-.09-.87-.33-3.54-1.85-4.21-1.22-.14.13-.22.47-.29.84l-1.52 4.32c-.2.52-.38 1.04-.53 1.51-.16.5-.27.94-.31 1.25 1.6.64 3.61-.85 4.63-1.96.82-.89 2.34-2.47 2.58-3.7l-.09-.95zM104.33 72.13c-.4-.85-1.48-1.96-1.62-2.84h-5.59c.21 0 .82 1.48 1.34 2.79l3.58 5.56c.39-.67 2.85-4.3 2.29-5.51z"/>
        <path stroke="#514E4F" stroke-linecap="round" stroke-linejoin="round" d="M92.45 63.87c-4.95.05-5.14-7.28-4.37-10.88.09-.42.18-.84.27-1.27M100.09 34.09l16.6 9.54c.24.15.5.26.77.33l6.1 1.46 4.39 1.05c.44.11.93.29 1.38.33.65.06 1.06-.37 1.63-.55.61-.2.86-.04 1.42.21 1.46.66 3.34 1.21 4.04 2.84M98.86 41.99l16.93 6.66c.43.21.9.34 1.37.36l16.79.77"/>
        <path fill="#E1E1E1" fill-rule="nonzero" d="M94.08 54.38c-2.06 6.98 17.2 7.74 21.26 7.99 2.13.13 5.23.27 5.5 3 .15 1.56-.6 3.4-.74 4.99-.18 2.23-.45 4.42-.56 6.69-.14 2.68-.12 5.35.14 8.03.16 1.59.33 2.77-.18 4.28-1.19-1.1-.92-3.64-.96-5.09-.06-2.06-.72-3.77-1.21-5.75-.34-1.36-.62-2.79-.69-4.19-.14-2.66.02-5.33.37-7.93.17-1.26.56-2.04-.72-2.59-1.25-.54-3.78.11-5.14.11H97.06c-2.7 0-5.35.58-7.28-1.69-2.34-2.75-1.87-6.95-.88-10.15 1.13-.17 2.36.46 3.3.99M138.99 54.55h5.59c.14.88 1.22 2 1.62 2.84.56 1.21-.89 3.06-1.4 4.1-.13.27-1.5 2.84-1.6 2.58-.65-1.62-1.41-3.21-2.12-4.81-.19-.4-1.74-4.71-2.09-4.71zM157.29 91.89c-.28-2.37 2.94-3.33 4.54-2.3a.498.498 0 0 0-.15-.17l-4.76-9.52c-.3 2.18-2.76 2.44-4.21 2.65M86.89 110.09c-7.68.74-14.92-3.25-18.93-9.79-2.58-4.21-3.36-9.26-2.94-14.14.23-2.72 1.23-7.51 3.64-9.19l-.48.17c-5.74 4.12-9.11 11.18-8.17 18.68 1.37 10.92 11.33 18.66 22.26 17.29a19.8 19.8 0 0 0 9.92-4.17c-1.61.71-3.55.99-5.3 1.15zM99.79 91.69c-.02-.27-.05-.54-.08-.82-.24-1.94-.76-3.78-1.5-5.49l-.14-.23-8.56 5.53c.13.47.23.96.3 1.47.2 1.56.02 3.07-.46 4.46.13.04.26.08.4.11 2.16-1.55 7.09-5.8 10.04-5.03z"/>
        <path fill="#E1E1E1" fill-rule="nonzero" d="M150.23 77c-.14-.14-.28-.27-.41-.39-5.48 3.55-9.11 9.72-9.11 16.74 0 9.15 6.17 16.86 14.58 19.2-1.39-.97-2.9-1.68-4.16-2.87-4.2-3.99-6.8-8.54-6.53-14.57.21-4.58 2.45-10.91 7.93-7.57l.24-.24c.25-.32.51-.63.8-.93.3-.42.48-.83.57-1.27l-3.91-8.1z"/>
        <path stroke="#514E4F" stroke-linecap="round" stroke-linejoin="round" d="M68.32 113.28H32.58M148.28 113.28H91.73M178.31 113.28h-4.34M207.42 113.28h-25.35M95.42 80.98a19.89 19.89 0 0 0-15.63-7.56c-11.01 0-19.93 8.92-19.93 19.93s8.92 19.93 19.93 19.93 19.93-8.92 19.93-19.93c0-2.92-.63-5.69-1.76-8.19"/>
        <path stroke="#514E4F" stroke-linecap="round" stroke-linejoin="round" d="M83.82 84.17c-1.23-.54-2.6-.84-4.03-.84-5.53 0-10.02 4.49-10.02 10.02 0 5.53 4.49 10.02 10.02 10.02 5.53 0 10.02-4.49 10.02-10.02 0-1.12-.18-2.19-.52-3.2M165.13 84.56c-.84-.46-1.75-.81-2.72-1.01M153.7 85.82a10.004 10.004 0 0 0-3.41 7.53c0 5.53 4.49 10.02 10.02 10.02 5.53 0 10.02-4.49 10.02-10.02 0-2.51-.92-4.8-2.44-6.55"/>
        <path stroke="#514E4F" stroke-linecap="round" stroke-linejoin="round" d="M149.67 76.5c-5.58 3.53-9.28 9.76-9.28 16.85 0 11.01 8.92 19.93 19.93 19.93s19.93-8.92 19.93-19.93-8.92-19.93-19.93-19.93c-1.96 0-3.85.28-5.64.81M96.87 69.34l4.68 8.1-22.74 13.13a2.426 2.426 0 0 0-.89 3.33 2.426 2.426 0 0 0 3.33.89l22.74-13.13 6.75 11.68h-2.79a2.58 2.58 0 1 0 0 5.16h15.89a2.58 2.58 0 1 0 0-5.16h-7.74a2.43 2.43 0 0 0-.32-1.02l-1.81-3.14M116.1 93.35h-1.47M150.52 65.85v-.29l1.45-9.97c.16-1.08-.7-2.04-1.8-2l-5.59.2"/>
        <path stroke="#514E4F" stroke-linecap="round" stroke-linejoin="round" d="M125.17 89.04h9.36c2.79 0 5.4-1.26 7.12-3.38M114.24 89.04h5.14M114.63 63.92c-4.59 2.15-6.82 5.91-9.52 9.94l-2.79-4.83M140.7 62.18c-2.15-.87-5.45-1.5-10.49-1.29-1.04.04-2.11.1-3.2.19"/>
        <path fill="#E1E1E1" fill-rule="nonzero" d="M124.28 87.22c3.47 0 7.19.37 10.6-.34 1.53-.32 3.8-1.25 4.45-2.82.5-1.21-.7-1.16-1.51-1.23-1.03-.08-2.44-.29-3.37-.76-.92-.47-1.74-1.37-2.24-2.26-1.12-1.97-1.08-4.42-.4-6.53.74-2.32 1.79-3.79 3.24-5.67 1.5-1.95 3.3-3.59-.24-3.92-2.56-.24-5.46-.26-7.81.94.41.01-.02.83-.13 1.36l-1.81 16.74M102.65 44.3c-.1 2.04-1.78 3.95-2.08 6.04-.2 1.33-.02 2.66-.13 3.92-.35-.02-.73.11-1.08.11h-8.19c-.35-.1-1.68-1.52-1.65-1.97.04-.5.44-.26.91-.31 1.54-.16 3.1-.03 4.63-.19 2.53-.26 5.19-2.35 6.22-4.67M98.51 24.57c-1.17 2.17 2.05 2.74 3.65 3.42.59.25 1.58.88 2.08.31.3-.34.09-1.64.06-2.07-.97-.51-2.19-.59-3.24-.98-.71-.28-1.7-.81-2.55-.68z"/>
        <path stroke="#514E4F" stroke-linecap="round" stroke-linejoin="round" d="M162.21 90.48L142.6 49.8h-8.33c-1.31 0-2.37 1.06-2.37 2.37s1.06 2.37 2.37 2.37h4.81l18.41 38.2c.63 1.3 2.19 1.85 3.49 1.22a2.594 2.594 0 0 0 1.23-3.48zM104.18 63.92h12.84s-.75 5.69-.25 10.57 2.61 14.56 2.61 14.56"/>
        <path stroke="#514E4F" stroke-linecap="round" stroke-linejoin="round" d="M102.71 69.04h1.07a2.58 2.58 0 1 0 0-5.16H84.33a2.58 2.58 0 1 0 0 5.16h12.79"/>
        <path fill="#E1E1E1" fill-rule="nonzero" d="M100.52 7.03c-.39.73-1.47 1.31-1.96 2.24-.61 1.16-.92 2.41-.99 3.71-.12 2.29.57 5 2.27 6.61 2.37 2.24 5.67 3.44 8.84 3.23.16 5.31-9.49 1.64-11.61-.07-2.13-1.71-3.02-4.63-2.78-7.27.11-1.23.16-5.72 1.93-5.84.99-1.19 2.64-2.64 4.3-2.61z"/>
        <path fill="#FFF" fill-rule="nonzero" d="M82.68 33.84c-1.2.6-2.6.71-4.09.68-3.87-.08-7.74-.04-11.6-.11-7.6-.15-15.19-.4-22.79-.5-6.7-.09-11.48-6.59-9.47-12.98.55-1.76 1.46-3.4 2.71-4.77 5.48-6.04 10.95-4.11 16.68-.41 5.89 3.81 10.78-1.19 16.85-.04 5.07.97 7.37 6.23 12.19 7.65 1.59.47 4.97 1.34 5.41 3.19-1.84 1.41-2.62 3.55-3.85 5.43-.58.89-1.27 1.47-2.04 1.86zM127.38 35.01c-.08-.02-.15-.04-.22-.06-4.49-1.45-3.98-7.91-.31-10.59 2.23-1.63 4.76-2.85 7.26-3.44 4.41-1.05 7.61 1.51 11.92 1.13 8.46-.75 12.22-9.66 21.6-9.17 6.05.32 8.11 6.51 13.24 7.49 5.42 1.03 9.18-5.39 15.84-2.22 3.8 1.8 6.03 6.76 6.67 10.69 1.17 7.17-2.78 6.12-8.71 6.12h-62.43c-1.36-.02-3.47.38-4.86.05z"/>
        <path stroke="#514E4F" stroke-linecap="round" stroke-linejoin="round" d="M127.01 61.09c-.02 1.25-.15 2.45-.27 3.42l-2.4 24.26"/>
        <path stroke="#514E4F" stroke-linecap="round" stroke-linejoin="round" d="M107.39 45.8c-1 3.37-1.02 5.8-1.02 5.8 2.56 0 17.98 1.58 19.47 3.81.97 1.46 1.21 3.63 1.17 5.69M108.55 38.91c-.7-3.22-1.04-8.31-4.1-9.87l-.09-3.27M89.14 48.08c1.2-5.28 2.28-9.52 3.45-14.81.51-2.33 2.38-4.2 4.64-4.66M97.25 28.29l1.26-4.01M99.28 7.2c-2.18.67-4.15 2.2-4.73 4.28-.68 2.42-.43 5.02.33 7.42 1.33 4.19 5.93 6.85 10.75 6.81 1.74-.01 2.71-.74 3.38-2.19.56-1.21 1.04-2.54 1.32-3.83.7-3.21 1.24-8.2-1.5-10.76-2.39-2.22-6.36-2.71-9.55-1.73z"/>
        <path stroke="#514E4F" stroke-linecap="round" stroke-linejoin="round" d="M110.67 14.11h-1.46-4.9c-.38 0-.1 2-.05 2.26.29 1.49 1.11 2.96 2.2 4.01.56.54 1.21 1.01 1.88 1.38.33.18.76.31 1.04.5M102.85 29.8c.64-.09 1.21-.26 1.62-.51M88.57 52.11c5.09 3.3 13.95 2.46 17.8 1.48"/>
        <path stroke="#0223C9" stroke-linecap="round" stroke-linejoin="round" d="M85.03 32.89c-.48.47-3.72 1.53-4.23 2.25-.68.95-1.83 3.04-1.39 4.2.27.72 1.12 1.42 1.81 1.69M96.7 28.59c3.16 1.34 6.79 3.38 6.79 7.27M100.09 34.09c-1.23-1.87-4.25-3.36-6.1-3.42M99.68 42.56s-1.48 8.33-11.94 5.67"/>
        <path stroke="#0223C9" stroke-linecap="round" stroke-linejoin="round" d="M102.8 43.55s-2.12 10.27-14.54 8.02c-.62-.11-1.22-.3-1.8-.55-1.14-.5-3.04-1.42-3.85-2.39-1.35-1.62-2.48-4.4-1.66-6.42 1.13-2.78 2.39-5.51 3.59-8.26.7-1.6 1.39-3.2 2.09-4.81.74-1.71 1.35-2.26 3.5-2.39 2.27-.13 4.42.31 6.22 1.61"/>
        <path stroke="#514E4F" stroke-linecap="round" stroke-linejoin="round" d="M124.35 88.77c1.33.75 2.31 1.08 2.97 1.99.16.21.28.43.35.64.32.87-.36 1.79-1.28 1.79 0 0-6.77-.05-6.83 0 0-1.39-.16-2.83-.16-4.22M32.7 81.63h19.03M42.22 87.35h9.51M32.7 93.07h19.03"/>
        <path d="M0 1h240v118H0z"/>
    </g>
</svg>
