<?xml version="1.0" encoding="UTF-8"?>
<svg width="80px" height="88px" viewBox="0 0 80 88" version="1.1" xmlns="http://www.w3.org/2000/svg" xmlns:xlink="http://www.w3.org/1999/xlink">
    <title>ilus@1,5x</title>
    <defs>
        <rect id="path-1" x="0" y="0" width="80" height="88"></rect>
    </defs>
    <g id="1.1---home" stroke="none" stroke-width="1" fill="none" fill-rule="evenodd">
        <g id="1.1---Home---1440px" transform="translate(-610.000000, -1456.000000)">
            <g id="Numbers" transform="translate(0.000000, 1336.000000)">
                <g id="add-3-cols-copy-9" transform="translate(421.000000, 104.000000)">
                    <g id="ilus" transform="translate(189.000000, 16.000000)">
                        <mask id="mask-2" fill="white">
                            <use xlink:href="#path-1"></use>
                        </mask>
                        <g id="Rectangle"></g>
                        <g id="Ilus_2D/10---Miscelaneas/11" opacity="0.3" mask="url(#mask-2)">
                            <g transform="translate(-22.000000, -10.000000)" id="Group-7">
                                <g transform="translate(36.025000, 24.594118)">
                                    <path d="M36.66952,55.6047076 C38.348285,57.4406253 41.329845,56.93279 42.3261,54.6422135 L51.219035,34.1978547 L59.00502,16.29799 C60.2207,13.5035665 57.555505,10.5875018 54.718045,11.60849 L36.545725,18.1472018 L15.79074,25.6151724 C13.464835,26.4520371 12.743025,29.4319135 14.421135,31.2671665 L20.84603,38.2951018 L5.40768,52.8302253 C3.91559,54.2347488 3.82782,56.6011018 5.21249,58.1153018 L9.59837,62.9131488 C10.982385,64.4266841 13.31484,64.5157547 14.806275,63.1112312 L30.244625,48.5767724 L36.66952,55.6047076 Z" id="Fill-1" fill="#E5E5E5"></path>
                                    <path d="M32.6173625,47.4627253 C34.5731925,48.9895547 37.4303025,47.9851841 38.0361775,45.5576782 L43.4504075,23.8962429 L48.1906425,4.93085471 C48.9307925,1.96959 45.8241275,-0.455257059 43.1936475,1.03036059 L26.3483575,10.5489488 L7.1090425,21.4202135 C4.9527825,22.6386194 4.7300825,25.6982606 6.6859125,27.22509 L14.1745275,33.0691841 L1.3365275,50.0098782 C0.0959575,51.6470488 0.3979125,53.99479 2.0105225,55.2544076 L7.1227975,59.2439724 C8.7367175,60.5029253 11.0501775,60.1964959 12.2914025,58.5586606 L25.1287475,41.6186312 L32.6173625,47.4627253 Z" id="Fill-3" fill="#FFFFFF"></path>
                                    <path d="M32.6173625,47.4627253 C34.5731925,48.9895547 37.4303025,47.9851841 38.0361775,45.5576782 L43.4504075,23.8962429 L48.1906425,4.93085471 C48.9307925,1.96959 45.8241275,-0.455257059 43.1936475,1.03036059 L26.3483575,10.5489488 L7.1090425,21.4202135 C4.9527825,22.6386194 4.7300825,25.6982606 6.6859125,27.22509 L14.1745275,33.0691841 L1.3365275,50.0098782 C0.0959575,51.6470488 0.3979125,53.99479 2.0105225,55.2544076 L7.1227975,59.2439724 C8.7367175,60.5029253 11.0501775,60.1964959 12.2914025,58.5586606 L25.1287475,41.6186312 L32.6173625,47.4627253 Z" id="Stroke-5" stroke="#514E4F" stroke-linecap="round" stroke-linejoin="round"></path>
                                </g>
                            </g>
                        </g>
                    </g>
                </g>
            </g>
        </g>
    </g>
</svg>