<?xml version="1.0" encoding="UTF-8"?>
<svg width="80px" height="88px" viewBox="0 0 80 88" version="1.1" xmlns="http://www.w3.org/2000/svg" xmlns:xlink="http://www.w3.org/1999/xlink">
    <title>ilus_ruedas@1,5x</title>
    <defs>
        <rect id="path-1" x="0" y="0" width="80" height="88"></rect>
    </defs>
    <g id="1.1---home" stroke="none" stroke-width="1" fill="none" fill-rule="evenodd">
        <g id="1.1---Home---1440px" transform="translate(-919.000000, -1456.000000)">
            <g id="Numbers" transform="translate(0.000000, 1336.000000)">
                <g id="add-3-cols-copy-10" transform="translate(730.000000, 104.000000)">
                    <g id="ilus_ruedas" transform="translate(189.000000, 16.000000)">
                        <mask id="mask-2" fill="white">
                            <use xlink:href="#path-1"></use>
                        </mask>
                        <g id="Rectangle"></g>
                        <g id="Ilus_2D/10---Miscelaneas/06" opacity="0.3" mask="url(#mask-2)">
                            <g transform="translate(-22.000000, -7.000000)" id="Group-47">
                                <g transform="translate(25.800000, 17.400000)">
                                    <path d="M47.8839,5.4834 L59.4543,14.3262 C70.5183,22.797 71.1069,40.6098 60.7695,54.1116 C50.4315,67.6134 33.0819,71.6916 22.0185,63.2202 L15.0777,58.017" id="Fill-1" fill="#DDDDDD"></path>
                                    <path d="M48.00048,44.75298 C37.66308,58.25478 20.31288,62.33298 9.24948,53.86158 C-1.81392,45.39018 -2.40312,27.57798 7.93488,14.07618 C18.27228,0.57438 35.62188,-3.50322 46.68588,4.96758 C57.74988,13.43898 58.33788,31.25178 48.00048,44.75298" id="Fill-3" fill="#FFFFFF"></path>
                                    <path d="M46.41492,4.80168 C33.88872,-1.04832 22.59492,11.30448 20.21712,22.61868 C17.34732,36.27348 26.19612,49.54488 40.14432,52.29468 C31.80852,59.17668 18.01512,59.57088 9.08532,53.47908 C7.54152,52.42668 6.37872,51.02208 5.30892,49.48968 C4.26672,47.99748 2.97732,46.70628 2.45292,44.96268 C0.45672,38.31468 -0.17148,31.27188 2.23572,24.83208 C4.67052,18.31908 7.35312,14.64348 12.14832,10.02528 C15.49392,6.80268 18.83112,3.68868 23.33232,2.53728 C24.67692,2.19288 25.99212,1.73448 27.34692,1.43148 C28.39512,1.19688 29.93532,0.54588 30.87132,0.49608 C32.92272,0.38688 34.97292,0.65808 37.00872,0.92868 C37.66092,1.01568 38.31372,1.10268 38.95812,1.23528 C41.25672,1.70868 43.43052,2.77428 45.21252,4.30128" id="Fill-5" fill="#EBEBEB"></path>
                                    <path d="M45.92508,4.4106 L59.15988,14.031 C70.22328,22.5024 70.81188,40.3152 60.47388,53.817 C50.13648,67.3188 32.78748,71.3964 21.72288,62.925 L9.03588,53.8776" id="Stroke-7" stroke="#514E4F" stroke-linecap="round" stroke-linejoin="round"></path>
                                    <path d="M48.00048,44.75298 C37.66308,58.25478 20.31288,62.33298 9.24948,53.86158 C-1.81392,45.39018 -2.40312,27.57798 7.93488,14.07618 C18.27228,0.57438 35.62188,-3.50322 46.68588,4.96758 C57.74988,13.43898 58.33788,31.25178 48.00048,44.75298 Z" id="Stroke-9" stroke="#514E4F" stroke-linecap="round" stroke-linejoin="round"></path>
                                    <line x1="62.67414" y1="30.77718" x2="67.69014" y2="33.94518" id="Stroke-11" stroke="#514E4F" stroke-linecap="round" stroke-linejoin="round"></line>
                                    <line x1="59.32902" y1="43.88052" x2="64.34502" y2="47.04852" id="Stroke-13" stroke="#514E4F" stroke-linecap="round" stroke-linejoin="round"></line>
                                    <line x1="45.80736" y1="59.54082" x2="50.82336" y2="62.70882" id="Stroke-15" stroke="#514E4F" stroke-linecap="round" stroke-linejoin="round"></line>
                                    <path d="M30.47394,15.51792 C26.19954,14.85852 20.27634,16.89432 17.31594,20.17212 C13.93914,23.91132 13.06614,30.85632 13.23114,35.65092 C13.23654,35.82012 13.24734,35.99232 13.25874,36.16332 C13.59054,36.39132 13.88694,36.68292 14.12454,37.02972 C14.57574,37.69092 14.85354,38.57772 15.22554,38.98812 C15.65274,39.45852 16.03374,39.94752 16.43214,40.44312 C16.46634,40.48632 16.48734,40.51332 16.50174,40.53192 C16.54254,40.57632 16.59354,40.63212 16.66374,40.70892 C16.71234,40.76292 17.01594,41.01372 16.79214,40.85952 C17.23014,41.16072 17.58234,41.55072 17.82534,41.98932 C19.21974,42.41592 20.61474,42.84252 22.00974,43.26852 C22.51014,43.42212 23.06154,43.57272 23.54094,43.36392 C23.95674,43.18212 24.21594,42.77172 24.45594,42.38712 C28.16154,36.42372 32.91594,31.11372 38.43474,26.77272 C38.72814,26.54172 39.03654,26.29692 39.17754,25.95012 C39.26034,25.74672 39.27774,25.52352 39.28614,25.30392 C39.46314,20.50452 35.22054,16.24992 30.47394,15.51792" id="Fill-17" fill="#DBDBDB"></path>
                                    <path d="M33.48624,39.89142 C33.93564,39.46962 34.40064,39.05082 34.89984,38.75502 C34.96404,38.72862 35.02764,38.70162 35.09124,38.67462 C35.58204,37.84242 36.04404,36.99282 36.53904,36.21702 C37.05264,35.41062 37.67844,34.38942 38.25804,33.28542 C39.03744,31.12122 39.55584,28.88322 40.14864,26.51802 C40.15824,26.47722 40.17624,26.44482 40.18764,26.40462 C35.80704,26.43642 31.12044,28.77222 27.85224,33.04062 C25.21764,36.48162 24.30624,39.72582 24.52584,43.37142 C24.99144,43.07262 25.27704,43.63782 25.94004,43.59042 C27.33264,43.49082 28.71144,42.75582 29.96124,42.19062 C30.92364,41.75442 31.88904,41.32842 32.69244,40.62642 C32.95404,40.39782 33.21744,40.14402 33.48624,39.89142" id="Fill-19" fill="#F6F6F6"></path>
                                    <path d="M36.27942,36.8457 C31.19022,43.4925 22.64862,45.5007 17.20182,41.3301 C11.75502,37.1589 11.46522,28.3899 16.55442,21.7431 C21.64362,15.0957 30.18522,13.0881 35.63202,17.2587 C41.07882,21.4293 41.36862,30.1983 36.27942,36.8457 Z" id="Stroke-21" stroke="#514E4F" stroke-linecap="round" stroke-linejoin="round"></path>
                                    <path d="M39.69954,26.41782 C35.46234,26.61162 30.99954,28.93062 27.85254,33.04062 C25.39854,36.24582 24.20094,39.94182 24.22554,43.37922" id="Stroke-23" stroke="#514E4F" stroke-linecap="round" stroke-linejoin="round"></path>
                                    <g id="Group-28" transform="translate(17.400000, 16.893000)">
                                        <line x1="18.23196" y1="0.3657" x2="0.23136" y2="24.6879" id="Fill-25" fill="#EBEBEB"></line>
                                        <line x1="18.23196" y1="0.3657" x2="0.23136" y2="24.6879" id="Stroke-27" stroke="#514E4F" stroke-linecap="round" stroke-linejoin="round"></line>
                                    </g>
                                    <g id="Group-32" transform="translate(15.600000, 22.293000)">
                                        <line x1="0.22608" y1="0.45156" x2="20.93868" y2="13.92396" id="Fill-29" fill="#EBEBEB"></line>
                                        <line x1="0.22608" y1="0.45156" x2="20.93868" y2="13.92396" id="Stroke-31" stroke="#514E4F" stroke-linecap="round" stroke-linejoin="round"></line>
                                    </g>
                                    <line x1="26.40282" y1="31.01916" x2="27.56022" y2="42.85596" id="Stroke-33" stroke="#514E4F" stroke-linecap="round" stroke-linejoin="round"></line>
                                    <g id="Group-38" transform="translate(24.600000, 15.693000)">
                                        <line x1="0.3204" y1="0.1674" x2="1.803" y2="15.3264" id="Fill-35" fill="#EBEBEB"></line>
                                        <line x1="0.3204" y1="0.1674" x2="1.803" y2="15.3264" id="Stroke-37" stroke="#514E4F" stroke-linecap="round" stroke-linejoin="round"></line>
                                    </g>
                                    <g id="Group-42" transform="translate(12.600000, 24.093000)">
                                        <line x1="0.3597" y1="8.79504" x2="27.0225" y2="0.07584" id="Fill-39" fill="#EBEBEB"></line>
                                        <line x1="0.3597" y1="8.79504" x2="27.0225" y2="0.07584" id="Stroke-41" stroke="#514E4F" stroke-linecap="round" stroke-linejoin="round"></line>
                                    </g>
                                    <path d="M31.31064,33.04122 C28.78524,36.33942 24.54744,37.33602 21.84444,35.26662 C19.14144,33.19722 18.99804,28.84542 21.52344,25.54722 C24.04824,22.24902 28.28664,21.25302 30.98964,23.32182 C33.69264,25.39122 33.83604,29.74302 31.31064,33.04122" id="Fill-43" fill="#EBEBEB"></path>
                                    <path d="M31.31064,33.04122 C28.78524,36.33942 24.54744,37.33602 21.84444,35.26662 C19.14144,33.19722 18.99804,28.84542 21.52344,25.54722 C24.04824,22.24902 28.28664,21.25302 30.98964,23.32182 C33.69264,25.39122 33.83604,29.74302 31.31064,33.04122 Z" id="Stroke-45" stroke="#514E4F" stroke-linecap="round" stroke-linejoin="round"></path>
                                </g>
                            </g>
                        </g>
                    </g>
                </g>
            </g>
        </g>
    </g>
</svg>