<?xml version="1.0" encoding="UTF-8"?>
<svg width="80px" height="88px" viewBox="0 0 80 88" version="1.1" xmlns="http://www.w3.org/2000/svg" xmlns:xlink="http://www.w3.org/1999/xlink">
    <title>ilus@1,5x</title>
    <defs>
        <rect id="path-1" x="0" y="0" width="80" height="88"></rect>
    </defs>
    <g id="1.1---home" stroke="none" stroke-width="1" fill="none" fill-rule="evenodd">
        <g id="1.1---Home---1440px" transform="translate(-301.000000, -1456.000000)">
            <g id="Numbers" transform="translate(0.000000, 1336.000000)">
                <g id="add-3-cols-copy-4" transform="translate(112.000000, 104.000000)">
                    <g id="ilus" transform="translate(189.000000, 16.000000)">
                        <mask id="mask-2" fill="white">
                            <use xlink:href="#path-1"></use>
                        </mask>
                        <g id="Rectangle"></g>
                        <g id="Ilus_2D/10---Miscelaneas/24" opacity="0.3" mask="url(#mask-2)">
                            <g transform="translate(-10.000000, -1.000000)" id="Group-29">
                                <g transform="translate(31.415000, 7.764706)">
                                    <path d="M38.7985035,13.4405506 L39.3902385,13.4395141 C39.5916035,13.4389976 39.7553735,13.6025741 39.7553735,13.8054918 L39.7641297,18.5103859 C39.7646435,18.7127859 39.6019035,18.8773976 39.4000235,18.8773976 L38.7336135,18.8789506" id="Fill-1" fill="#ECECEC"></path>
                                    <path d="M38.8100395,19.93992 L39.4017745,19.9388847 C39.6036545,19.9388847 39.7669095,20.1024612 39.7674245,20.3048612 L39.7761795,25.0097553 C39.7761795,25.2126729 39.6134395,25.3767671 39.4120745,25.3772847 L38.7456645,25.37832" id="Fill-3" fill="#ECECEC"></path>
                                    <path d="M0.500363663,6.78216 C0.494194,3.34653647 3.259744,0.556418824 6.677799,0.550207059 L32.515349,0.503090788 C35.933404,0.496889412 38.708739,3.27717176 38.714919,6.71227765 L38.757149,30.0793835 L38.8447093,66.1065835 C38.850879,69.5416894 36.085329,72.3318071 32.667274,72.3385365 L6.830239,72.3851351 C3.412184,72.3913365 0.636849,69.6115718 0.630154,66.1759482 L0.500363663,6.78216 Z" id="Fill-5" fill="#ECECEC"></path>
                                    <path d="M38.6053785,65.3566682 C38.7099235,65.0321035 38.7887185,64.7572329 38.8324935,64.5895153 L38.8324935,6.52918588 C38.4606635,5.05596235 37.6608685,3.20744471 36.5860635,2.13902118 L36.5860635,63.3269741 C36.5860635,64.4481976 37.4904035,65.3566682 38.6053785,65.3566682" id="Fill-7" fill="#F9F9F9"></path>
                                    <path d="M9.4253755,68.7259294 C7.7289655,68.6265412 6.0974455,67.9701647 4.8532055,66.8070118 C3.5641605,65.6014118 2.7205905,63.9382118 2.7190455,62.1145412 L2.7066855,51.7864471 C2.6979305,46.9226353 2.6752705,46.7336941 2.6660005,41.8693647 C2.6520955,33.9291765 2.6371605,25.9895059 2.6232555,18.0498353 C2.6165605,14.4200941 2.6284055,10.7603294 2.6036855,7.14456471 C2.5908105,5.22823529 4.2001855,3.11468235 6.0335855,2.66847059 C8.3340905,2.10837647 10.6098755,2.31905882 12.9536405,2.31232941 C16.3222555,2.30249412 19.6908705,2.29317647 23.0594855,2.28334118 C23.1398255,2.22122353 23.1918405,2.00795294 23.1666055,1.90908235 C19.5147405,1.59694118 15.8747205,1.13985882 12.2589055,0.539905882 L6.6778505,0.550258824 C3.2597955,0.556470588 0.4942455,3.34658824 0.500415163,6.78221176 L0.6317505,67.0451294 L0.7687405,67.0446118 C0.8753455,67.5343059 1.0818605,68.2186353 1.4758355,68.9707765 L1.2662305,69.2052706 C3.3875155,72.4664471 6.8302905,72.3810353 6.8302905,72.3810353 C6.8714905,72.38 6.9126905,72.3810353 6.9533755,72.3810353 L9.7575505,72.3810353 L15.1738055,72.3810353 L21.7565355,72.3810353 L28.0611655,72.3810353 L32.6400305,72.3810353 L33.8312255,72.3810353 C33.9017805,72.3810353 34.0042655,72.4001882 34.0727605,72.3810353 C34.5929105,72.2355765 34.1783355,71.1624941 33.9630655,70.8415529 C33.4712405,70.1121882 32.5365155,70.0293647 31.7387805,69.9843294 C31.0090255,69.9434353 30.2787555,69.9015059 29.5490005,69.8606118 C26.5939305,69.6939294 23.6383455,69.5277647 20.6827605,69.3610824 C18.0624405,69.2130353 15.4410905,69.0649882 12.8197405,68.9174588 C11.6882855,68.8537882 10.5568305,68.7901176 9.4253755,68.7259294" id="Fill-9" fill="#D6D6D6"></path>
                                    <path d="M4.8245715,58.2324471 L4.71075163,7.88971765 C4.7076665,6.06708235 6.1749015,4.58712941 7.9882165,4.58402353 L11.6967315,4.57729412 C11.9511415,4.57677647 12.1571415,4.78331765 12.1576565,5.03851765 C12.1597165,6.18769412 13.0882615,7.11790588 14.2315615,7.11531765 L24.9852765,7.09616471 C26.1285765,7.09409412 27.0540315,6.16077647 27.0519715,5.0116 C27.0514565,4.75588235 27.2569415,4.54882353 27.5113515,4.54830588 L31.2198665,4.54156981 C33.0326665,4.53795294 34.5055665,6.01272941 34.5086565,7.83536471 L34.6219565,58.1780941 L34.6281413,61.5516 C34.6312265,63.4027059 33.1408165,64.9069882 31.2986615,64.9095765 L8.1741315,64.9520284 C6.3330065,64.9551294 4.8369315,63.4586118 4.8333265,61.6075059 L4.8245715,58.2324471 Z" id="Fill-11" fill="#FFFFFF"></path>
                                    <path d="M38.7985035,13.4405506 L39.3902385,13.4395141 C39.5916035,13.4389976 39.7553735,13.6025741 39.7553735,13.8054918 L39.7641297,18.5103859 C39.7646435,18.7127859 39.6019035,18.8773976 39.4000235,18.8773976 L38.7336135,18.8789506" id="Stroke-13" stroke="#514E4F" stroke-linecap="round" stroke-linejoin="round"></path>
                                    <path d="M38.8100395,19.93992 L39.4017745,19.9388847 C39.6036545,19.9388847 39.7669095,20.1024612 39.7674245,20.3048612 L39.7761795,25.0097553 C39.7761795,25.2126729 39.6134395,25.3767671 39.4120745,25.3772847 L38.7456645,25.37832" id="Stroke-15" stroke="#514E4F" stroke-linecap="round" stroke-linejoin="round"></path>
                                    <path d="M4.8245715,58.2324471 L4.71075163,7.88971765 C4.7076665,6.06708235 6.1749015,4.58712941 7.9882165,4.58402353 L11.6967315,4.57729412 C11.9511415,4.57677647 12.1571415,4.78331765 12.1576565,5.03851765 C12.1597165,6.18769412 13.0882615,7.11790588 14.2315615,7.11531765 L24.9852765,7.09616471 C26.1285765,7.09409412 27.0540315,6.16077647 27.0519715,5.0116 C27.0514565,4.75588235 27.2569415,4.54882353 27.5113515,4.54830588 L31.2198665,4.54156981 C33.0326665,4.53795294 34.5055665,6.01272941 34.5086565,7.83536471 L34.6219565,58.1780941 L34.6281413,61.5516 C34.6312265,63.4027059 33.1408165,64.9069882 31.2986615,64.9095765 L8.1741315,64.9520284 C6.3330065,64.9551294 4.8369315,63.4586118 4.8333265,61.6075059 L4.8245715,58.2324471 Z" id="Stroke-17" stroke="#A4A2A2" stroke-linecap="round" stroke-linejoin="round"></path>
                                    <path d="M18.844262,4.63749647 L23.630672,4.62869475 C23.772812,4.62817882 23.8886887,4.74464941 23.8886887,4.88752 C23.889202,5.03039059 23.773842,5.14634353 23.631702,5.14686118 L18.845292,5.15566118 C18.703152,5.15566118 18.587277,5.04022588 18.586762,4.89683765 C18.586762,4.75396706 18.702122,4.63749647 18.844262,4.63749647 Z" id="Stroke-19" stroke="#A4A2A2" stroke-linecap="round" stroke-linejoin="round"></path>
                                    <path d="M15.7376275,4.64308706 L17.1919875,4.64049882 C17.3346425,4.64049882 17.4500025,4.75593412 17.4505175,4.89932235 C17.4505175,5.04219294 17.3356725,5.15866353 17.1930175,5.15866353 L15.7386575,5.16125176 C15.5965175,5.16125176 15.4806408,5.04581647 15.4806408,4.90242824 C15.4801275,4.75955765 15.5954875,4.64308706 15.7376275,4.64308706 Z" id="Stroke-21" stroke="#A4A2A2" stroke-linecap="round" stroke-linejoin="round"></path>
                                    <path d="M19.7379415,66.4460528 C20.8081115,66.4439859 21.6774315,67.3146682 21.6794936,68.3903388 C21.6810365,69.4660094 20.8153215,70.33928 19.7451515,70.3413527 C18.6749815,70.3429035 17.8056615,69.4732565 17.8035978,68.3975859 C17.8015415,67.3213976 18.6677715,66.4481271 19.7379415,66.4460528" id="Fill-23" fill="#ECECEC"></path>
                                    <path d="M19.7379415,66.4460528 C20.8081115,66.4439859 21.6774315,67.3146682 21.6794936,68.3903388 C21.6810365,69.4660094 20.8153215,70.33928 19.7451515,70.3413527 C18.6749815,70.3429035 17.8056615,69.4732565 17.8035978,68.3975859 C17.8015415,67.3213976 18.6677715,66.4481271 19.7379415,66.4460528 Z" id="Stroke-25" stroke="#A4A2A2" stroke-linecap="round" stroke-linejoin="round"></path>
                                    <path d="M0.500363663,6.78216 C0.494194,3.34653647 3.259744,0.556418824 6.677799,0.550207059 L32.515349,0.503090788 C35.933404,0.496889412 38.708739,3.27717176 38.714919,6.71227765 L38.757149,30.0793835 L38.8447093,66.1065835 C38.850879,69.5416894 36.085329,72.3318071 32.667274,72.3385365 L6.830239,72.3851351 C3.412184,72.3913365 0.636849,69.6115718 0.630154,66.1759482 L0.500363663,6.78216 Z" id="Stroke-27" stroke="#514E4F" stroke-linecap="round" stroke-linejoin="round"></path>
                                </g>
                            </g>
                        </g>
                    </g>
                </g>
            </g>
        </g>
    </g>
</svg>