<?xml version="1.0" encoding="utf-8"?>
<!-- Generator: Adobe Illustrator 23.0.4, SVG Export Plug-In . SVG Version: 6.00 Build 0)  -->
<svg version="1.1" id="Layer_1" xmlns="http://www.w3.org/2000/svg" xmlns:xlink="http://www.w3.org/1999/xlink" x="0px" y="0px"
	 viewBox="0 0 240 120" style="enable-background:new 0 0 240 120;" xml:space="preserve">
<g id="XMLID_499_">
	<path id="XMLID_328_" style="fill:#FFFFFF;" d="M54.2,67.4c-1.3-8.3-3.2-15.9-0.9-24.3c3.3-12,13.9-20.5,25.4-22.9
		c23.5-4.9,46.5,11.3,84.4,16.4c23.6,3.1,23.6,19,24.5,23.9c2.4,12.9-10.3,18.9-20.5,22.2c-7.2,2.3-14.7,2.7-22.2,4
		c-9.8,1.8-19.6,4.2-28.7,8.2c-7.4,3.2-14.4,7.5-22,10.1c-7.6,2.6-16.4,3.5-23.6,0c-6-2.9-10.3-8.5-12.8-14.7
		C54.6,82.7,55.5,75.2,54.2,67.4z"/>
	<g id="XMLID_279_">
		<path id="XMLID_327_" style="fill:#D8D8D8;" d="M161.8,96.7c-3-0.1-5.8-2.3-6.6-5.2c-0.3-1.1-0.3-2.3-0.3-3.4c0-2.3,0.2-4.7,0.6-7
			l-0.1,0.2c0.2-1.8,0.4-3.5,0.4-5.3l-0.8,1.8c-0.2,0.9-0.4,1.8-0.6,2.8c-1.5,7.1-3.3,14.1-6,20.8c-1.3,3.2-2.7,6.7-4.7,9.6
			c-0.5,0.8-0.6,0.6-0.1,1.3c0.3,0.4,0.8,0.7,1.1,1l0.6,0.5C151.7,109.1,157.3,103.3,161.8,96.7"/>
		<path id="XMLID_326_" style="fill:#FFFFFF;" d="M123.3,100.6c0,0.2,0.1,0.5,0.4,0.6l15.9,13.8c4.7-3.6,7.3-9.2,9.5-14.7
			c3.2-7.9,5.5-15.9,6.4-24.3l-9.6-7.3c0.9,4.8-2,9.6-5.5,12.9c-3.5,3.4-7.6,6.6-9.1,11.2c-0.3,1-0.5,2.1-1,3.1
			C128.9,98.5,126.1,99.7,123.3,100.6"/>
		<path id="XMLID_325_" style="fill:#FFFFFF;" d="M109.7,35.9c0.9-3.5,1.2-7,2.4-10.3c0.7-1.9,1.8-3.9,3.8-4.2
			c3.3-0.5,2.8,5.1,2.9,7c0,10,4.6,19.6,7.8,29c0.4,1.2,0.9,2,1.7,3c1.8,2.1,3.8,4.2,6.4,5.2l11.4,5.7c-2.2,8.1-6.2,15.8-11.7,22.1
			c-1.7,1.9-3.6,3.7-5.9,4.9c-3-4.7-6.5-9.1-10.4-13.2c-0.9-0.1-1.1-1.2-1.1-2.1c0-0.9,0.4-1.8,0.8-2.6c1.9-4.2,2.5-8.9,1.7-13.5
			c-0.3-1.9-0.8-3.7-1.4-5.5c-1.5-4.8-3.2-9.5-5.1-14.1c-1.1-2.5-2.2-5-2.5-7.7C110.3,38.5,110.6,36.5,109.7,35.9"/>
		<path id="XMLID_324_" style="fill:#EEEEEE;" d="M60.6,24.2c-1.3-3.5,0.5-7.4,4-8.8l26.6-9.9c3.5-1.3,7.4,0.5,8.8,4l8.9,24l13.8,37
			c1.3,3.5-0.5,7.4-4,8.8L92,89.1c-3.5,1.3-7.4-0.5-8.8-4L60.6,24.2z"/>
		<path id="XMLID_323_" style="fill:#FFFFFF;" d="M84.6,75.3L65.3,23.7c-0.7-1.9,0.3-3.9,2.1-4.6l3.8-1.4c0.3-0.1,0.6,0,0.7,0.3
			c0.4,1.2,1.8,1.8,2.9,1.3L86,15.1c1.2-0.4,1.8-1.8,1.3-2.9c-0.1-0.3,0-0.6,0.3-0.7l3.8-1.4c1.9-0.7,3.9,0.3,4.6,2.1l19.2,51.6
			l1.3,3.5c0.7,1.9-0.3,4-2.2,4.7L90.6,81c-1.9,0.7-4-0.3-4.7-2.2L84.6,75.3z"/>
		<path id="XMLID_322_" style="fill:#E8E8E8;" d="M115.3,21.5c-0.5,0.9-0.9,1.8-1.2,2.7c-2,5.8-0.6,12.2,1.1,18
			c1.8,5.9,4.1,11.8,3.7,17.9l-8.8-23.6c-0.2-1.9,0.4-3.6,0.9-5.5c0.3-1.1,0.4-2.2,0.6-3.3c0.2-1.3,0.4-2.7,1.1-3.9
			c0.7-1.2,1.8-2.2,3.2-2.3"/>
		<path id="XMLID_321_" style="fill:#EFEFEF;" d="M122.8,70.2c0.8,1.8,1.4,3.6,1.6,5.5c0.3,2.8-1.4,5-1.4,7.7c0,2,1.7,2.9,3,4.1
			c2.5,2.2,4.9,4.5,7.4,6.7c-0.6,0.9-1.3,1.6-2.3,2.1c-0.7,0.4-1.6,0.6-2.1,1.3c-0.2,0.3-0.6,0.6-0.8,0.3l-11.9-10.1
			c-1-0.4-1.7-0.6-2.6-1.3c-0.4-0.3-0.8-0.7-1.3-1c-0.6-0.4-1.2-0.6-1.9-0.7c-2.1-0.5-4.3-0.4-6.5-0.4c4.7-1.5,9.2-2.9,13.7-5.1
			c1.2-0.6,2.4-1.2,3.4-2.1c1.7-1.6,2.4-4.2,1.8-6.4"/>
		
			<line id="XMLID_320_" style="fill:none;stroke:#514E4F;stroke-linecap:round;stroke-linejoin:round;stroke-miterlimit:10;" x1="143.2" y1="111.9" x2="145.4" y2="113.9"/>
		<path id="XMLID_319_" style="fill:none;stroke:#514E4F;stroke-linecap:round;stroke-linejoin:round;stroke-miterlimit:10;" d="
			M103.6,84.8c2.6-0.3,5.1-0.4,7.7,0.3c1.8,0.5,3.3,1.5,4.9,2.6c4.3,3.1,8.3,6.7,12.3,10.3l0.1,0.1"/>
		<path id="XMLID_318_" style="fill:none;stroke:#514E4F;stroke-linecap:round;stroke-linejoin:round;stroke-miterlimit:10;" d="
			M102.6,16.4l0.6-0.2c0.2-0.1,0.4,0,0.5,0.2l1.8,4.8c0.1,0.2,0,0.4-0.2,0.5l-0.7,0.3"/>
		<path id="XMLID_317_" style="fill:none;stroke:#514E4F;stroke-linecap:round;stroke-linejoin:round;stroke-miterlimit:10;" d="
			M105.1,23l0.6-0.2c0.2-0.1,0.4,0,0.5,0.2l1.8,4.8c0.1,0.2,0,0.4-0.2,0.5l-0.7,0.3"/>
		<path id="XMLID_316_" style="fill:none;stroke:#A5A3A4;stroke-linecap:round;stroke-linejoin:round;stroke-miterlimit:10;" d="
			M84.6,75.3L65.3,23.7c-0.7-1.9,0.3-3.9,2.1-4.6l3.8-1.4c0.3-0.1,0.6,0,0.7,0.3c0.4,1.2,1.8,1.8,2.9,1.3L86,15.1
			c1.2-0.4,1.8-1.8,1.3-2.9c-0.1-0.3,0-0.6,0.3-0.7l3.8-1.4c1.9-0.7,3.9,0.3,4.6,2.1l19.2,51.6l1.3,3.5c0.7,1.9-0.3,4-2.2,4.7
			L90.6,81c-1.9,0.7-4-0.3-4.7-2.2L84.6,75.3z"/>
		<path id="XMLID_315_" style="fill:none;stroke:#A5A3A4;stroke-linecap:round;stroke-linejoin:round;stroke-miterlimit:10;" d="
			M78.7,15l4.9-1.8c0.1-0.1,0.3,0,0.4,0.2c0.1,0.1,0,0.3-0.2,0.4l-4.9,1.8c-0.1,0.1-0.3,0-0.4-0.2C78.5,15.2,78.5,15,78.7,15z"/>
		<path id="XMLID_314_" style="fill:none;stroke:#A5A3A4;stroke-linecap:round;stroke-linejoin:round;stroke-miterlimit:10;" d="
			M75.5,16.2l1.5-0.6c0.1-0.1,0.3,0,0.4,0.2c0.1,0.1,0,0.3-0.2,0.4l-1.5,0.6c-0.1,0.1-0.3,0-0.4-0.2C75.3,16.4,75.3,16.2,75.5,16.2z
			"/>
		<path id="XMLID_313_" style="fill:none;stroke:#A5A3A4;stroke-linecap:round;stroke-linejoin:round;stroke-miterlimit:10;" d="
			M103.1,78.1c1.1-0.4,2.3,0.2,2.7,1.3c0.4,1.1-0.2,2.3-1.3,2.7c-1.1,0.4-2.3-0.2-2.7-1.3C101.4,79.7,102,78.5,103.1,78.1z"/>
		<path id="XMLID_312_" style="fill:#DCDCDC;" d="M85.4,84c0-0.1-0.1-0.2-0.1-0.3l-5.3-14.2c-1.9-5-2-5.2-3.8-10.2
			c-3-8.1-6.1-16.3-9.1-24.4c-1.4-3.7-2.8-7.5-4.2-11.2c-0.7-2,0.1-4.7,1.8-5.9c2.2-1.5,4.6-2.1,7-3c3.5-1.3,6.9-2.6,10.4-3.9
			c0.1-0.1,0-0.3,0-0.4c-3.9,1.1-7.8,2-11.8,2.8l-5.8,2.1c-3.5,1.3-5.3,5.2-4,8.8l23,61.8l0.1-0.1c0.5,0.8,1.6,2.1,3.4,3
			c0,0,0.1,0,0.1,0.1L85.4,84z"/>
		<path id="XMLID_311_" style="fill:none;stroke:#514E4F;stroke-linecap:round;stroke-linejoin:round;stroke-miterlimit:10;" d="
			M60.6,24.2c-1.3-3.5,0.5-7.4,4-8.8l26.6-9.9c3.5-1.3,7.4,0.5,8.8,4l8.9,24l13.8,37c1.3,3.5-0.5,7.4-4,8.8L92,89.1
			c-3.5,1.3-7.4-0.5-8.8-4L60.6,24.2z"/>
		<path id="XMLID_310_" style="fill:none;stroke:#E8E8E8;stroke-linecap:round;stroke-linejoin:round;stroke-miterlimit:10;" d="
			M118.6,23.9c-0.2-0.2-0.5-0.3-0.7-0.2c-0.2,0.4-0.3,0.9-0.3,1.4c0,2.1,0.1,4.3,0.2,6.4l1.2-0.1"/>
		
			<ellipse id="XMLID_309_" transform="matrix(0.6343 -0.7731 0.7731 0.6343 3.8153 81.5102)" style="fill:none;stroke:#0223C9;stroke-linecap:round;stroke-linejoin:round;stroke-miterlimit:10;" cx="88.1" cy="36.7" rx="12.4" ry="12.4"/>
		<path id="XMLID_308_" style="fill:#FFFFFF;" d="M85.1,68.4c-1.4-1.1-3.1-2-3.8-2.3c-0.7-0.3-1.4-0.7-2.2-1
			c-1.8-0.9-3.8-1.6-5.7-2.2c-1.7-0.6-3.5-1-5.3-1.4c-1.7-0.3-3.8-1.2-4.9,0.6c-0.4,0.6-0.6,1.2-0.6,1.9c-0.1,2,1.8,3.2,3.3,4.1
			c1.5,0.9,3,1.6,4.6,2.1c4,1.5,8.7,2.7,13,2.7c0.8,0,1.6-0.1,2.3-0.5C87.8,71.3,86.8,69.7,85.1,68.4"/>
		<path id="XMLID_307_" style="fill:#FFFFFF;" d="M81.6,42c-1.5-0.9-3.3-1.6-4-1.8l-2.3-0.7c-1.9-0.6-4-1.1-5.9-1.5
			c-1.6-0.3-3.3-0.6-4.9-0.9c-1.1-0.2-3.1-0.5-4,0.4c-0.3,0.3-0.5,0.8-0.7,1.2c-0.3,0.8-0.4,1.7-0.2,2.6c0.6,2.6,5.5,3.4,7.8,4
			c0.5,0.1,0.9,0.2,1.4,0.3c2.3,0.5,4.7,0.8,7.1,0.9c1.2,0.1,2.4,0,3.5,0c1.1-0.1,2.4-0.2,3.3-0.9c0.5-0.5,0.8-1.3,0.5-2
			C83,42.9,82.2,42.4,81.6,42"/>
		<path id="XMLID_306_" style="fill:none;stroke:#E8E8E8;stroke-linecap:round;stroke-linejoin:round;stroke-miterlimit:10;" d="
			M76.7,44.9c0.1-0.3,0.5-3.3,0.6-3.3c0.4,0,0.9,0.2,1.2,0.3c0.8,0.3,3.9,1.2,2.7,2.7c-0.7,0.8-1.7,0.6-2.6,0.6
			C78.4,45.2,76.7,45.1,76.7,44.9z"/>
		<path id="XMLID_305_" style="fill:#FFFFFF;" d="M85.4,59.6c-1.5-1-3.3-1.7-4-2c-0.8-0.3-1.5-0.5-2.3-0.8c-1.9-0.7-3.9-1.3-5.8-1.8
			c-1.9-0.5-3.8-1.3-5.8-1.7c-1.5-0.3-4-0.1-4.6,1.6c-0.2,0.5-0.2,1.1-0.1,1.7c0.2,2.5,1.3,3.4,3.6,4.3c1.5,0.6,3,0.9,4.6,1.2
			c3.6,0.8,7.2,1.7,10.9,1.8c1.5,0,4.1,0.4,4.9-1.4C87.2,61.2,86.3,60.2,85.4,59.6"/>
		<path id="XMLID_304_" style="fill:#E8E8E8;" d="M72.3,45.9c-1,0.2-2.1,0-3.1-0.1c-2.7-0.4-5.5-0.9-7.9-2.1
			c-0.7-0.3-1.4-1.1-1.7-1.8c-0.2-0.5,0-0.8-0.1-1.3c0-0.4,0-0.9,0.1-1.3c0.2-0.8,0.7-1.7,1.5-2.1c0.1-0.1,0.4-0.1,0.4,0.1
			c0,0.1,0,0.1,0,0.2c-0.4,1.6,0,3.5,1.1,4.8c0.3,0.3,0.7,0.6,1.1,0.8c1.6,1,3.4,1.7,5.3,2.2c0.6,0.1,1.1,0.3,1.7,0.4
			C71.1,45.7,71.8,46,72.3,45.9"/>
		<path id="XMLID_303_" style="fill:#E8E8E8;" d="M68.9,61.7C68,61.5,67,61.4,66.4,62c-0.4,0.3-0.6,0.8-0.7,1.2
			c-0.1,0.7-0.1,1.4,0.1,2c0.5,1.5,2,2.4,3.3,3.2c2.2,1.3,4.4,2.4,6.7,3.3C74,71.3,72,70.7,70.2,70c-1.9-0.7-3.7-1.6-5.4-2.7
			c-1-0.7-2-1.5-2.3-2.6c-0.1-0.4-0.1-0.9,0-1.3c0.2-1,0.9-2.1,1.9-2.3c0.4-0.1,0.7,0,1.1,0c1,0.1,2.1,0.3,3.1,0.6"/>
		<path id="XMLID_302_" style="fill:#E8E8E8;" d="M78.3,56.6c-0.2-0.1-0.3-0.2-0.5-0.2l-4.2-0.7c-1.6-0.2-4.8-1.1-6,0.1
			c-0.4,0.3-0.5,0.8-0.6,1.3c-0.3,1.5,0.2,3.1,1.2,4.1C67.1,60.9,66,60.4,65,60c-0.4-0.2-0.8-0.3-1.1-0.6c-0.3-0.3-0.5-0.8-0.6-1.2
			c-0.4-1.2-0.8-2.6-0.1-3.7c0.7-1.1,2.1-1.3,3.4-1.2c1.5,0.1,3,0.5,4.4,0.9c1.7,0.5,3.4,1,5.1,1.5"/>
		<path id="XMLID_301_" style="fill:none;stroke:#514E4F;stroke-linecap:round;stroke-linejoin:round;stroke-miterlimit:10;" d="
			M110,36.3c0.4-2.5,0.8-4.9,1.4-7.4c0.4-2,0.8-4.4,2-6c0.6-0.9,1.7-1.5,2.8-1.4c1.2,0.1,2.2,1.2,2.6,2.4c0.4,1.2,0.3,2.5,0.3,3.7
			c-0.2,10.6,4.3,19.4,7.4,29.3c1.7,5.4,6,7.2,10.7,9.7c3,1.6,6,3.2,9,4.8"/>
		<path id="XMLID_300_" style="fill:#FFFFFF;" d="M85.2,51.9c-1.5-1.3-3.3-1.9-5.1-2.5c-2.3-0.9-4.7-1.7-7-2.5
			c-1.7-0.6-3.5-1.1-5.2-1.4c-2.2-0.5-4.8-1.2-5.4,1.9c-0.7,3.6,5,5.5,7.6,6.5c3.9,1.5,8.7,2.8,12.9,2.8c0.8,0,1.6,0,2.4-0.4
			C87.2,55.1,86.4,53,85.2,51.9C85.2,51.9,85.2,51.9,85.2,51.9"/>
		<path id="XMLID_299_" style="fill:none;stroke:#514E4F;stroke-linecap:round;stroke-linejoin:round;stroke-miterlimit:10;" d="
			M85.1,68.4c-1.4-1.1-3.1-2-3.8-2.3c-0.7-0.3-1.4-0.7-2.2-1c-1.8-0.9-3.8-1.6-5.7-2.2c-1.7-0.6-3.5-1-5.3-1.4
			c-1.7-0.3-3.8-1.2-4.9,0.6c-0.4,0.6-0.6,1.2-0.6,1.9c-0.1,2,1.8,3.2,3.3,4.1c1.5,0.9,3,1.6,4.6,2.1c4,1.5,8.7,2.7,13,2.7
			c0.8,0,1.6-0.1,2.3-0.5C87.8,71.3,86.8,69.7,85.1,68.4z"/>
		<path id="XMLID_298_" style="fill:none;stroke:#514E4F;stroke-linecap:round;stroke-linejoin:round;stroke-miterlimit:10;" d="
			M85.4,59.6c-1.5-1-3.3-1.7-4-2c-0.8-0.3-1.5-0.5-2.3-0.8c-1.9-0.7-3.9-1.3-5.8-1.8c-1.9-0.5-3.8-1.3-5.8-1.7
			c-1.5-0.3-4-0.1-4.6,1.6c-0.2,0.5-0.2,1.1-0.1,1.7c0.2,2.5,1.3,3.4,3.6,4.3c1.5,0.6,3,0.9,4.6,1.2c3.6,0.8,7.2,1.7,10.9,1.8
			c1.5,0,4.1,0.4,4.9-1.4C87.2,61.2,86.3,60.2,85.4,59.6z"/>
		<path id="XMLID_297_" style="fill:none;stroke:#514E4F;stroke-linecap:round;stroke-linejoin:round;stroke-miterlimit:10;" d="
			M81.6,42c-1.5-0.9-3.3-1.6-4-1.8l-2.3-0.7c-1.9-0.6-4-1.1-5.9-1.5c-1.6-0.3-3.3-0.6-4.9-0.9c-1.1-0.2-3.1-0.5-4,0.4
			c-0.3,0.3-0.5,0.8-0.7,1.2c-0.3,0.8-0.4,1.7-0.2,2.6c0.6,2.6,5.5,3.4,7.8,4c0.5,0.1,0.9,0.2,1.4,0.3c2.3,0.5,4.7,0.8,7.1,0.9
			c1.2,0.1,2.4,0,3.5,0c1.1-0.1,2.4-0.2,3.3-0.9c0.5-0.5,0.8-1.3,0.5-2C83,42.9,82.2,42.4,81.6,42z"/>
		
			<line id="XMLID_296_" style="fill:none;stroke:#514E4F;stroke-linecap:round;stroke-linejoin:round;stroke-miterlimit:10;" x1="117.5" y1="38.7" x2="120.1" y2="37.8"/>
		<path id="XMLID_295_" style="fill:none;stroke:#514E4F;stroke-linecap:round;stroke-linejoin:round;stroke-miterlimit:10;" d="
			M146.3,68.5l9.2,7.3c0,0-4.7,28.8-14.6,38.5c-0.7,0.7-1.9,0.7-2.6,0L123,100.6c7.9-2.2,13.5-9.1,17.7-16.1
			C143.6,79.6,146.3,74.2,146.3,68.5c-0.1,0-1.5,1-2.1,1.6"/>
		<path id="XMLID_294_" style="fill:none;stroke:#514E4F;stroke-linecap:round;stroke-linejoin:round;stroke-miterlimit:10;" d="
			M123,100.5c-0.1-1.9,0.6-3.9,1.9-5.3"/>
		
			<line id="XMLID_293_" style="fill:none;stroke:#514E4F;stroke-linecap:round;stroke-linejoin:round;stroke-miterlimit:10;" x1="155.5" y1="75.8" x2="167.9" y2="82.6"/>
		<path id="XMLID_292_" style="fill:none;stroke:#514E4F;stroke-linecap:round;stroke-linejoin:round;stroke-miterlimit:10;" d="
			M135.8,106.7c0-2,1.6-3.5,3.5-3.5c2,0,3.5,1.6,3.5,3.5c0,2-1.6,3.5-3.5,3.5C137.3,110.2,135.8,108.7,135.8,106.7z"/>
		<path id="XMLID_291_" style="fill:none;stroke:#BDBDBD;stroke-linecap:round;stroke-linejoin:round;stroke-miterlimit:10;" d="
			M141.5,106.1c0.3,1.1-0.3,2.3-1.5,2.7c-1,0.4-2.1,0-2.7-0.8"/>
		<path id="XMLID_290_" style="fill:#E8E8E8;" d="M67.2,49.1c0.7-0.7,1.8-0.8,2.8-0.8c2.3,0,4.6,0,6.9,0c-2.8-1.2-5.6-2.2-8.6-2.9
			c-1.1-0.3-2.3-0.5-3.4-0.3c-2.1,0.4-3.3,2.8-2,4.6c0.5,0.7,1.2,1.1,1.9,1.5c0.6,0.4,1.2,0.8,1.8,1.1c0.5,0.3,0.9,0.6,1.5,0.6
			C67.4,52.1,66.2,50.1,67.2,49.1"/>
		<path id="XMLID_289_" style="fill:none;stroke:#514E4F;stroke-linecap:round;stroke-linejoin:round;stroke-miterlimit:10;" d="
			M85.2,51.9c-1.5-1.3-3.3-1.9-5.1-2.5c-2.3-0.9-4.7-1.7-7-2.5c-1.7-0.6-3.5-1.1-5.2-1.4c-2.2-0.5-4.8-1.2-5.4,1.9
			c-0.7,3.6,5,5.5,7.6,6.5c3.9,1.5,8.7,2.8,12.9,2.8c0.8,0,1.6,0,2.4-0.4C87.2,55.1,86.4,53,85.2,51.9
			C85.2,51.9,85.2,51.9,85.2,51.9z"/>
		<path id="XMLID_288_" style="fill:none;stroke:#E8E8E8;stroke-linecap:round;stroke-linejoin:round;stroke-miterlimit:10;" d="
			M80.7,55l0.6-3.7c0,0,3.7,0.9,3.3,2.7C84.2,56,80.7,55,80.7,55z"/>
		<path id="XMLID_287_" style="fill:none;stroke:#E8E8E8;stroke-linecap:round;stroke-linejoin:round;stroke-miterlimit:10;" d="
			M80.8,62.4l0.6-3.1c0,0,3.7,0.8,3.3,2.3C84.2,63.2,80.8,62.4,80.8,62.4z"/>
		<path id="XMLID_286_" style="fill:none;stroke:#E8E8E8;stroke-linecap:round;stroke-linejoin:round;stroke-miterlimit:10;" d="
			M81.1,71.4l0.6-3.1c0,0,3.7,0.8,3.3,2.3C84.6,72.2,81.1,71.4,81.1,71.4z"/>
		<polygon id="XMLID_285_" style="fill:#435CD7;" points="86.3,57.6 103.8,51.2 104.5,53.3 87.2,59.6 		"/>
		
			<polygon id="XMLID_284_" style="fill:none;stroke:#0223C9;stroke-linecap:round;stroke-linejoin:round;stroke-miterlimit:10;" points="
			86.3,57.6 103.8,51.2 104.5,53.3 87.2,59.6 		"/>
		<polygon id="XMLID_283_" style="fill:#435CD7;" points="87.7,61.1 105.1,54.7 105.8,56.8 88.5,63.2 		"/>
		
			<polygon id="XMLID_282_" style="fill:none;stroke:#0223C9;stroke-linecap:round;stroke-linejoin:round;stroke-miterlimit:10;" points="
			87.7,61.1 105.1,54.7 105.8,56.8 88.5,63.2 		"/>
		
			<line id="XMLID_281_" style="fill:none;stroke:#A5A3A4;stroke-linecap:round;stroke-linejoin:round;stroke-miterlimit:10;" x1="104.8" y1="70.1" x2="96.7" y2="73.1"/>
		
			<line id="XMLID_280_" style="fill:none;stroke:#A5A3A4;stroke-linecap:round;stroke-linejoin:round;stroke-miterlimit:10;" x1="106.1" y1="71" x2="96.9" y2="74.3"/>
	</g>
</g>
</svg>
