<svg xmlns="http://www.w3.org/2000/svg" width="240" height="120" viewBox="0 0 240 120">
    <g fill="none" fill-rule="evenodd">
        <path fill-rule="nonzero" d="M0 0h240v120H0z"/>
        <path d="M0 1h240v118H0z"/>
        <path fill="#FFF" fill-rule="nonzero" d="M187.23 69.32c-4.73-5.52-11.73-9.74-17.45-12.93-.45 6.16-9.22 17.44-10.89 18.88-6.27 5.41-14.38 8.43-22.66 8.43-19.15 0-34.67-15.52-34.67-34.67 0-12.64 6.77-23.7 16.87-29.76C104.98 8.23 89.18.65 72.01 10.71c-17.09 10.02-27.1 30.91-24.19 50.51 2.86 19.24 16.78 34.9 35.91 38.55 10.63 2.58 21.99 3.68 33.35 4.3 9.18.51 18.36.71 27.17 1.13 12.1.58 26.86 4.68 38-1.96 7.62-4.55 11.47-14.71 10.19-23.29-.59-3.99-2.54-7.52-5.21-10.63z"/>
        <path fill="#FFF" fill-rule="nonzero" d="M131.8 92.5L93.62 49.89c2.7-5.58 1.91-12.48-2.52-17.33-4.21-4.6-10.56-6.1-16.14-4.35l10.95 11.96-9.78 8.95-10.95-11.96c-2.23 5.4-1.3 11.86 2.92 16.46 4.44 4.85 11.25 6.25 17.04 4.04l38.18 42.61"/>
        <path stroke="#514E4F" stroke-linecap="round" stroke-linejoin="round" d="M87.48 75.73l-12.37 4.09M90.42 96.61l6.47-11.31M91.77 81.28l-6.34 4.61"/>
        <path fill="#E3E3E3" fill-rule="nonzero" d="M160.61 73.6c-8.11-7.11-52.61-46.15-52.5-46.11 0 0-.04-.03-.1-.07-5.38 6.69-8.28 15.31-7.67 24.3l29.89 32.33c3.87.57 7.89.49 11.94-.32 7.32-1.45 13.64-5.11 18.44-10.13z"/>
        <path fill="#D5D5D5" fill-rule="nonzero" d="M64.43 45.97c.91 2.54 2.65 4.79 4.93 6.24 2.28 1.45 5.09 2.06 7.76 1.62 1.56-.26 3.04-.87 4.47-1.52 1.05-.48 2.09-.99 3.05-1.64 2.49-1.69 4.27-4.25 5.61-6.94.74-1.48 1.36-3.03 1.59-4.67.25-1.84-.01-3.71-.28-5.55 1.01.32 1.66 1.28 2.16 2.22.72 1.36 1.27 2.82 1.63 4.32.76 3.2.59 6.78-1.22 9.52-.67 1.01-1.53 1.88-2.39 2.74-1.85 1.86-3.75 3.75-6.07 4.98a13.16 13.16 0 0 1-5.55 1.52c-2.86.14-5.74-.68-8.2-2.15-2.46-1.47-4.52-3.56-6.11-5.95-.5-.76-.98-1.63-.83-2.52"/>
        <path fill="#E3E3E3" fill-rule="nonzero" d="M143.28 98.64c-.52-1.45-1.54-2.66-2.68-3.71-.93-.85-2.05-1.54-3.29-1.78-1-.19-2.02-.08-3.03-.11-1.31-.03-2.69-.43-3.61-1.4-2.65-2.78-5.16-5.68-7.54-8.7-.54 2.64-3.38 4.29-6.08 4.37-2.69.08-5.26-1.03-7.72-2.12l.41.44 13.54 14.39c.02 2.44.3 4.9 1.18 7.18.86 2.21 2.53 4.66 4.73 5.73 2.35 1.15 5.81.65 8.21-.04 2.32-.67 4.63-1.91 5.82-4.02.89-1.57 1.07-3.45.99-5.25-.07-1.7-.36-3.38-.93-4.98zm-6.19 8.09c-1.86 1.71-4.76 1.58-6.48-.29a4.582 4.582 0 0 1 .28-6.47 4.582 4.582 0 0 1 6.47.28c1.72 1.88 1.6 4.78-.27 6.48z"/>
        <path stroke="#514E4F" stroke-linecap="round" stroke-linejoin="round" d="M131.8 92.5L93.62 49.89c2.7-5.58 1.91-12.48-2.52-17.33-4.21-4.6-10.56-6.1-16.14-4.35l10.95 11.96-9.78 8.95-10.95-11.96c-2.23 5.4-1.3 11.86 2.92 16.46 4.44 4.85 11.25 6.25 17.04 4.04l38.18 42.61M137.09 106.73c-1.86 1.71-4.76 1.58-6.48-.29a4.582 4.582 0 0 1 .28-6.47 4.582 4.582 0 0 1 6.47.28c1.72 1.88 1.6 4.78-.27 6.48z"/>
        <path stroke="#514E4F" stroke-linecap="round" stroke-linejoin="round" d="M132.32 92.86c3.37-.5 6.93.63 9.4 3.33 3.98 4.34 3.68 11.06-.64 15.02-4.33 3.96-11.05 3.66-15.02-.68a10.61 10.61 0 0 1-2.4-10"/>
        <path fill="#E3E3E3" fill-rule="nonzero" d="M143.16 93.07c.15 0 .15-.1 0-.1-.15-.01-.15.1 0 .1z"/>
        <path stroke="#D5D5D5" stroke-linecap="round" stroke-linejoin="round" d="M88.57 55.48l35.71 39.85c.72.8 1.95.86 2.74.13.77-.71.83-1.91.13-2.69L103.37 66"/>
        <path stroke="#514E4F" stroke-linecap="round" stroke-linejoin="round" d="M156.9 21.82a34.884 34.884 0 0 1 12.74 20.7c3.8 18.97-8.51 37.43-27.48 41.22-4.05.81-8.08.89-11.94.32M100.33 51.73c-1.18-17.3 10.63-33.2 28.08-36.69 8.17-1.63 16.24-.28 23.09 3.3"/>
        <path fill="#5067DA" fill-rule="nonzero" stroke="#0223C9" stroke-linecap="round" stroke-linejoin="round" d="M130.69 63.21c-.57 0-1.12-.24-1.51-.66l-8.39-8.99c-.78-.83-.73-2.14.1-2.91.83-.78 2.14-.73 2.91.1l6.71 7.19 16.12-21.54a2.07 2.07 0 0 1 2.89-.42c.91.68 1.1 1.97.42 2.89l-17.59 23.52c-.37.49-.93.79-1.54.82h-.12z"/>
        <path stroke="#514E4F" stroke-linecap="round" stroke-linejoin="round" d="M109.8 50.35c-.01-.32-.02-.64-.02-.96 0-14.09 11.42-25.51 25.51-25.51 14.09 0 25.51 11.42 25.51 25.51 0 14.09-11.42 25.51-25.51 25.51-.98 0-1.94-.05-2.89-.16"/>
    </g>
</svg>
